<svg xmlns="http://www.w3.org/2000/svg" width="731.858" height="803.702" viewBox="0 0 731.858 803.702"><defs><style>.a{fill:#d9eff7;isolation:isolate;}.a,.c{opacity:0.5;}.b{fill:#ffe4ca;}.d{fill:#9bbbfc;}.e{fill:#ffd9bf;}.f{fill:#fed2b4;}.g{fill:#707dd0;}</style></defs><path class="a" d="M4765.15-348.83a562.582,562.582,0,0,1-6.72,60.13,680.885,680.885,0,0,1-22.61,93.84q-1.485,4.71-3.05,9.41c-27.86,84.15-70.93,162.37-120.8,222.07-2.71,3.25-5.45,6.42-8.19,9.55q-8.04,9.135-16.2,17.58-1.965,2.01-3.93,3.98a382.06,382.06,0,0,1-42.33,37.04c-19.86,14.84-40.15,26.43-60.43,34.22-48.3,18.49-92.61,23.5-130.86,21.59-8.16-.43-16.06-1.13-23.64-2.13-1.94-.24-3.86-.55-5.77-.79a300.935,300.935,0,0,1-55.54-13.87c-21.83-7.78-37.92-16.48-46.9-22.2-.97-.64-1.94-1.28-2.88-1.92q-6.6-4.515-12.9-9.03C4093.52,32.3,4051.79-51.18,4042.46-123.47a265.682,265.682,0,0,1,10.44-114.38,260.007,260.007,0,0,1,9.23-24.69c8.38-19.38,17.78-34.44,25.5-43.95.27-.34.55-.67.82-1q1.605-1.935,3.27-3.82a.01.01,0,0,1,.01-.01c20.62-23.62,46.38-43.07,74.64-60.55,86.56-53.57,196.53-88.74,254.12-169.07C4565.66-743.47,4780.74-625.42,4765.15-348.83Z" transform="translate(-4034.094 642.742)"/><path class="b" d="M4765.15-348.83a562.582,562.582,0,0,1-6.72,60.13,680.885,680.885,0,0,1-22.61,93.84c-47.32,12.76-76.62,25.5-90.58,38.15-11.64,10.54-51.15,29.21-86.05,69.4-21.18,24.38-26.7,25.17-56.32,27.02-3.78.24-7.63.54-11.53.87h-.06c-5.07.44-10.59,1.07-16.31,1.82h-.02c-.21.02-.42.05-.62.08-26.58,3.47-57.17,9.23-66.89,8.61a205.847,205.847,0,0,1-34.85-5.69c-.03-.01-.05-.01-.08-.02-11.02-2.66-20.56-5.54-27.1-7.16-.53-.14-1.08-.27-1.63-.4-12.36-2.87-19.97-6.56-27.32-11.89a44.3,44.3,0,0,0-7.74-4.56c-.61-.28-1.22-.54-1.83-.79h-.01c-.92-.37-1.86-.72-2.81-1.04h-.01c-.63-.21-1.26-.4-1.9-.58h-.01l-.02-.01a77.811,77.811,0,0,1-17.75-9.06c-8.14-5.83-6.27-16.7,3.48-22.31a18.133,18.133,0,0,1,6.93-2.18c8.72-1.04,18.04,2.73,18.04,2.73v-.01l.1-.15,1.93-2.9c10.25-9.7,27.06-6.17,38.66.03,8.62,4.6,14.78,9.52,20.89,9.33h.05a.089.089,0,0,0,.05-.01,9.473,9.473,0,0,0,4.76-1.79c.55-.37,1.09-.76,1.61-1.17s1.04-.84,1.53-1.28c.04-.03.08-.07.12-.1a41.641,41.641,0,0,1,8.51-5.71c1.56-.81,3.19-1.57,4.87-2.28s3.4-1.38,5.15-2.02q1.755-.63,3.54-1.23c1.19-.4,2.38-.8,3.58-1.18,1.8-.58,3.6-1.14,5.4-1.71.6-.19,1.19-.38,1.79-.57,1.78-.57,3.55-1.15,5.28-1.74.73-.26,1.46-.52,2.18-.78.98-.35,1.95-.72,2.9-1.09a59.931,59.931,0,0,0,9.16-4.45c1.31-.81,2.69-1.61,4.12-2.4.78-.44,1.57-.88,2.38-1.31,2.71-1.46,5.55-2.89,8.35-4.24.18-.07.35-.16.52-.24,1.1-.53,2.16-1.02,3.19-1.5.34-.15.68-.3,1.01-.45,8.36-3.78,14.07-5.94,16.22-10.34.08-.18.17-.35.25-.54.06-.16.11-.31.16-.47a.139.139,0,0,0,.02-.06,3.2,3.2,0,0,0,.17-.53v-.01a167.252,167.252,0,0,1,5.75-16.71c.15-.4.31-.79.46-1.17.08-.18.16-.37.22-.54.16-.36.3-.7.44-1.04.44-1.05.82-1.93,1.12-2.59.11-.24.2-.44.29-.61.06-.13.12-.25.16-.35.09-.15.13-.23.13-.23v-.01c0-.01.01-.02.03-.04a.036.036,0,0,1,.01-.03c-.51.37-20.78,14.74-43.48,24.37-22.92,9.72-38.24,3.33-44.51-8.49s10.03-23.72,42.81-37.27c60.16-24.87,71.87-58.37,97.53-67.41s33.06-4.96,56.66-4.64,54.02-13.59,100.34-37.48C4714.43-322,4743.7-337.44,4765.15-348.83Z" transform="translate(-4034.094 642.742)"/><g class="c" transform="translate(-4034.094 642.742)"><path class="d" d="M4335.6-295.331a1.777,1.777,0,0,1-.6-.03c-26.419-6.093-63.767-2.2-64.141-2.165a1.74,1.74,0,0,1-1.926-1.531,1.74,1.74,0,0,1,1.53-1.926h0l.026,0c.385-.048,38.3-3.991,65.294,2.231a1.738,1.738,0,0,1,1.3,2.086,1.74,1.74,0,0,1-1.484,1.336Z"/></g><g class="c" transform="translate(-4034.094 642.742)"><path class="d" d="M4368.731-268.516a1.753,1.753,0,0,1-.641-.041,178.689,178.689,0,0,0-47.642-5.821,1.739,1.739,0,0,1-1.825-1.648h0a1.758,1.758,0,0,1,1.647-1.826,182.262,182.262,0,0,1,48.68,5.924,1.739,1.739,0,0,1,1.247,2.121,1.737,1.737,0,0,1-1.466,1.289Z"/></g><g class="c" transform="translate(-4034.094 642.742)"><path class="d" d="M4152.253-171.693l-.076.009c-41.087,3.586-71.9-5.086-72.208-5.174a2.129,2.129,0,0,1-1.516-2.6,2.129,2.129,0,0,1,2.6-1.515l.089.025c.3.085,30.408,8.538,70.664,5.023a2.128,2.128,0,0,1,2.34,1.895,2.128,2.128,0,0,1-1.9,2.339h0Z"/></g><g class="c" transform="translate(-4034.094 642.742)"><path class="d" d="M4250.563-167.706a2.147,2.147,0,0,1-.453.006l-27.315-2.485a2.129,2.129,0,0,1-1.926-2.314,2.128,2.128,0,0,1,2.313-1.926h0l27.315,2.486a2.129,2.129,0,0,1,1.922,2.316,2.128,2.128,0,0,1-1.856,1.915Z"/></g><g class="c" transform="translate(-4034.094 642.742)"><path class="d" d="M4213.26-186.118a2.107,2.107,0,0,1-.717-.034c-19.777-4.352-42.937-4.449-43.168-4.449a2.129,2.129,0,0,1-2.089-2.167,2.129,2.129,0,0,1,2.1-2.09c.236,0,23.854.1,44.074,4.548a2.13,2.13,0,0,1,1.625,2.534A2.128,2.128,0,0,1,4213.26-186.118Z"/></g><path class="e" d="M4551.181-203.542c-23.832,22.2-21.663,38.042-34.588,53.182s-16.486,21.3-36.962,25.055-29.542,15.408-46.728,18.441-15.85,11.828-37.329,6.2c-9.822-2.574-20.048-4.856-21.114-4.916a9.506,9.506,0,0,0,4.808-1.8,28.709,28.709,0,0,0,3.139-2.439,1.1,1.1,0,0,1,.123-.106c13.279-11.806,37.67-13.727,52.357-22.758,4.442-2.726,9.7-5.461,14.858-7.949.171-.075.341-.16.513-.244,11.715-5.61,19.382-7.892,21.022-13.894,4.434-16.252,8.572-23.242,8.572-23.242C4520.907-195.513,4575.744-226.419,4551.181-203.542Z" transform="translate(-4034.094 642.742)"/><path class="f" d="M4474.669-57.544c-.845.113-54.483,9.466-68.665,9.841-26.328.689-52.087.653-72.642,3.378s-29.891-1.9-45.665-5.629c-12.412-2.937-17.664-1.649-24.414-4.232s-6.4-19.5,7.419-22.995a145.255,145.255,0,0,1,24.1-3.493c4.422-.308,7.356-.369,7.356-.369a44.74,44.74,0,0,1,14.3,6.975c7.35,5.331,14.968,9.019,27.326,11.889s19.5,8.277,33.421,7.551C4491.735-60.611,4474.669-57.544,4474.669-57.544Z" transform="translate(-4034.094 642.742)"/><path class="e" d="M4491.336-59.429l-.054.006c-11.646,1.666-29.73,3.823-103.071,5.409-25.706.56-32.063-5.3-44.427-8.17s-19.976-6.558-27.325-11.889a44.745,44.745,0,0,0-14.3-6.976l-.028,0a77.52,77.52,0,0,1-17.75-9.057c-8.144-5.831-6.267-16.7,3.485-22.314s24.964.545,24.964.545l.1-.148c.1.078.191.166.284.254,0,0,.94,5.005,14.687,11.749,13.842,6.777,12.85,12.753,28.491,19.762s15.9,5.584,27.292,10.653,18.414,10.109,35.55,9.237,50.648-3.073,73.016-1.51C4501.071-61.266,4498.91-60.518,4491.336-59.429Z" transform="translate(-4034.094 642.742)"/><path class="d" d="M4258.39-276.26l-43.56-102.58a11.727,11.727,0,0,0-4.35-5.21,11.647,11.647,0,0,0-5.65-1.87h-.01c-17.17,13.99-31.98,33.94-43.13,51.79-.91,1.43-1.78,2.85-2.63,4.25-6.86,11.33-12.13,21.5-15.46,28.31a6.793,6.793,0,0,1-8.21,3.41c-9.02-2.96-17.85-5.47-26.34-7.57-1.64-.41-3.26-.81-4.87-1.18a389.857,389.857,0,0,0-67.69-9.79,11.561,11.561,0,0,0-2.18,4.89,11.547,11.547,0,0,0,.83,7.03l46.78,102.84a11.634,11.634,0,0,0,3.69,4.56l.01.01a11.554,11.554,0,0,0,4.71,2.05,11.494,11.494,0,0,0,7.27-.95c58.6-28.37,127.35-54.57,154.11-64.5a11.546,11.546,0,0,0,5.89-4.85,11.47,11.47,0,0,0,1.65-4.89A11.45,11.45,0,0,0,4258.39-276.26Z" transform="translate(-4034.094 642.742)"/><path class="d" d="M4204.82-385.92c-17.17,13.99-31.98,33.94-43.13,51.79-.91,1.43-1.78,2.85-2.63,4.25-6.86,11.33-12.13,21.5-15.46,28.31a6.793,6.793,0,0,1-8.21,3.41c-9.02-2.96-17.85-5.47-26.34-7.57-1.64-.41-3.26-.81-4.87-1.18a389.857,389.857,0,0,0-67.69-9.79,11.615,11.615,0,0,1,3.59-3.1c25.07-13.93,96.26-51.41,161.48-65.87A11.614,11.614,0,0,1,4204.82-385.92Z" transform="translate(-4034.094 642.742)"/><g transform="translate(-4034.094 642.742)"><path class="g" d="M4210.48-384.05c-17.76,13.64-33.14,34.25-44.62,52.64-.9,1.43-1.77,2.86-2.61,4.26-6.72,11.11-11.89,21.09-15.16,27.78a11.812,11.812,0,0,1-10.59,6.55,11.687,11.687,0,0,1-3.67-.59c-8.77-2.88-17.35-5.32-25.61-7.39-1.64-.4-3.26-.8-4.87-1.18a383.452,383.452,0,0,0-69.04-9.83,10.5,10.5,0,0,1,1.012-3.089,10.44,10.44,0,0,1,1.168-1.8c3.234.35,48.7,5.425,67.69,9.79,1.61.37,3.23.77,4.87,1.18,8.49,2.1,17.32,4.61,26.34,7.57a6.793,6.793,0,0,0,8.21-3.41c3.33-6.81,8.6-16.98,15.46-28.31.85-1.4,1.72-2.82,2.63-4.25,11.15-17.85,25.96-37.8,43.13-51.79h.01A11.647,11.647,0,0,1,4210.48-384.05Z"/></g><g transform="translate(-4034.094 642.742)"><path class="g" d="M4109.05-305.73l-.83,4.93-17.89,105.48a8.859,8.859,0,0,1-2.8-.808,8.842,8.842,0,0,1-1.912-1.242l-.01-.01,17.74-104.6.83-4.93C4105.79-306.54,4107.41-306.14,4109.05-305.73Z"/></g><g transform="translate(-4034.094 642.742)"><path class="g" d="M4259.25-270.51a11.47,11.47,0,0,1-1.65,4.89l-94.35-61.53-4.19-2.73,2.63-4.25,4.17,2.72Z"/></g></svg>