<svg xmlns="http://www.w3.org/2000/svg" width="807" height="604" viewBox="0 0 807 604"><defs><style>.a{fill:#f0fbff;}.b{fill:#d9eff7;}.c{fill:#f9ce69;}.d{fill:#4741a6;}.e{fill:#fff;}</style></defs><path class="a" d="M1376.223-3186.315v524.041a39.992,39.992,0,0,1-40,39.979h-727a39.992,39.992,0,0,1-40-39.979v-524.041a39.991,39.991,0,0,1,40-39.979h727a40.014,40.014,0,0,1,37.54,26.156,39.414,39.414,0,0,1,2.129,8.646,40.337,40.337,0,0,1,.321,4.318C1376.223-3186.9,1376.223-3186.605,1376.223-3186.315Z" transform="translate(-569.223 3226.295)"/><path class="b" d="M1266.219-3086.388a30.487,30.487,0,0,1-9.631,1.724c-10.268,0-3.043,4.186-16.357,6.086s-29.284-14.071-39.556-3.423-12.171,5.706-17.5,15.977c-3.274,6.313-11.292,13.635-16.983,18.335-6.29-.723-15.162-4.462-16.793,2.212-5.694-5.14-14.052-11.262-21.374-11.039-12.55.38-17.876,3.043-25.865-2.745-7.757-5.616-20.9-7.061-22.692-.592-7.456-.726-16.245-3.02-12.3-9.977,6.469-11.408,7.609-20.54,17.024-11.408s16.066-3.806,20.252-13.694-14.074-4.946-10.271-14.074,15.977-.76,25.865-4.182,18.256-11.031,5.7-19.02c-6.677-4.25-15.923-16.6-15.919-23.7,4.916,2.175,18.035,7.559,24.478,6.2,21.679-4.566,31.95,15.973,63.328,9.7s38.795,3.992,51.346,22.249c4.995,7.262,9.538,10.193,14.026,10.078,2.126,5.288,4.8,9.724,8.037,11.221C1277.928-3093.274,1273.194-3088.809,1266.219-3086.388Z" transform="translate(-569.223 3226.295)"/><path class="b" d="M1149.4-3045.477a10.408,10.408,0,0,0-.264,2.462c0,10.841-5.136,11.411-25.676,19.969s.57,18.827-16.543,31.951-35.373,5.136-48.5-6.153c-6.3-5.426-14.2-4.215-20.689-1.493a14.748,14.748,0,0,1-.42-1.482c-1.71-7.419-11.982-14.264-15.4-21.683-3.285-7.117,6.044-20.026,7.3-26.092,8.179-2.187,16.484-5.211,18.942-8.9,4.566-6.849,4.848.062,17.019,3.295s7.115.508,8.255-6.639c.034-.2,2.072-2.363,2.128-2.553,1.8-6.469,18.85-2.084,26.607,3.532,7.989,5.788,13.315,3.125,25.865,2.745C1135.351-3056.739,1143.709-3050.617,1149.4-3045.477Z" transform="translate(-569.223 3226.2)"/><path class="b" d="M1179.376-2873.851c-9.7,13.407-3.423,21.392-13.694,20.822s.573,6.119-11.981,8.767-5.7,7.389-15.4,17.285-10.167,22.442-6.223,35c3.337,10.629,6.9,17.169-3.78,17.187a.691.691,0,0,1,.019-.074c2.569-9.7-4.85-17.113-11.695-20.54s-11.694-14.83-9.985-28.524-10.841-15.973-12.55-27.1-16.26-14.547-15.121-25.1-5.706-4.849-11.124-12.268-1.427-8.558-14.741-13.977a30.867,30.867,0,0,0-8.987-2.346c.187-1.982-13.548-9.9-14.17-11.6,5.776-1.892,4.308-6.757,12.509-17.148.525-.667,1.039-1.281,1.542-1.858,5.978,3.888,16.424-2.109,23.31,2.751,9.7,6.845,9.6,1.2,18.724-.511s23.057-11.33,36.178-3.915,3.027,14.239,23.566,14.809c15.195.421,19.775.966,22.606-5.485,5.214.648,10.424,2.782,7.578,9.084-5.135,11.37,5.136,12.51,10.842,21.068S1189.074-2887.258,1179.376-2873.851Z" transform="translate(-569.223 3226.093)"/><path class="b" d="M1128.313-2774.867a.691.691,0,0,0-.019.074c-2.533,9.628.279,9.926-9.962,15.046-10.272,5.136-8.559-3.422-20.827,2.566s-15.12.857-23.1,4.566-7.7-5.135-17.687-1.713c-6.465,2.216-13.173,4.976-19.5,5.151a12.182,12.182,0,0,0,1.24-8.573c-2.853-13.691,8.558-29.668-10.842-38.8a34.711,34.711,0,0,1-15.619-13.94c3.1-2.32,5.352-5.884,5.352-12.3,0-15.035-6.186-22.647-15.054-20.383a71.639,71.639,0,0,0,9.348-12.707c3.992-7.415-4.566-18.827,0-27.955s10.268,1.71,25.672-10.271c4.636-3.6,6.483-7.266,6.8-10.618a30.867,30.867,0,0,1,8.987,2.346c13.314,5.419,9.322,6.562,14.741,13.977s12.267,1.713,11.124,12.268,13.407,13.977,15.121,25.1,14.264,13.407,12.55,27.1,3.14,25.1,9.985,28.524S1130.882-2784.565,1128.313-2774.867Z" transform="translate(-569.223 3226.073)"/><path class="b" d="M1114.619-2647.637c-13.691-.29-12.261,5.7-18.821,13.11-5.44,6.16,2.44,8.39.431,12.54h-75.86a53.86,53.86,0,0,1-6.451-11.38c-7.41-18.83,16.55-15.98,26.241-21.11,9.71-5.15-24.531-38.23-37.64-8-12.57,28.95-26.17,22.35-31.82,8.21.9-.15,1.76-.31,2.57-.48.35-.07.7-.14,1.029-.22a1.252,1.252,0,0,0,.161-.04c.39-.08.759-.18,1.129-.27s.721-.19,1.06-.29c1.03-.29,1.98-.61,2.851-.95.33-.13.639-.27.95-.4a18.154,18.154,0,0,0,3.17-1.8c.139-.1.279-.21.409-.31.29-.23.56-.47.821-.71l.279-.28c.181-.18.351-.36.51-.55.22-.26.43-.52.611-.78.109-.15.21-.29.3-.44s.19-.3.27-.45a4.387,4.387,0,0,0,.27-.47,13.22,13.22,0,0,0,.92-2.19q.12-.39.241-.81c.08-.28.149-.56.21-.84s.129-.58.189-.87.11-.6.161-.9c.1-.57.179-1.16.25-1.77.13-1.02.23-2.1.329-3.23.071-.77.14-1.49.231-2.16.019-.2.049-.4.08-.6.409-2.92,1.039-4.8,2.019-5.96a2.97,2.97,0,0,1,.39-.4,3.624,3.624,0,0,1,.3-.25c.019-.01.03-.02.05-.03.069-.05.14-.1.209-.14a3.78,3.78,0,0,1,.831-.41,2.511,2.511,0,0,1,.489-.14.586.586,0,0,1,.14-.04,3.761,3.761,0,0,1,.5-.09,4.526,4.526,0,0,1,.54-.06c.1-.01.21-.02.32-.02,2.711-.11,6.58.82,12.16,1.75a17.307,17.307,0,0,0,2.74.26c.231,0,.45-.01.66-.03a1.1,1.1,0,0,0,.181-.01,4.91,4.91,0,0,0,.569-.07c.181-.03.361-.07.52-.11a5.456,5.456,0,0,0,.61-.21c.14-.06.281-.13.41-.2a3.676,3.676,0,0,0,1.34-1.29,1.271,1.271,0,0,0,.151-.25,3.118,3.118,0,0,0,.27-.55,12.75,12.75,0,0,0,.73-2.77c.049-.26.089-.54.13-.82q.09-.63.179-1.32c.04-.3.08-.62.12-.94.06-.48.13-.97.2-1.48.049-.35.1-.69.16-1.05s.11-.71.179-1.08q.12-.69.27-1.41c.06-.29.131-.57.2-.87.089-.4.19-.79.3-1.19.051-.2.1-.39.161-.58.049-.17.089-.33.149-.49.071-.26.15-.52.241-.78s.179-.53.269-.79a33.765,33.765,0,0,1,1.361-3.27c.129-.28.27-.56.419-.85s.291-.56.451-.85.32-.58.489-.86.341-.58.52-.87c.54-.88,1.15-1.76,1.821-2.66,1.219-1.63,2.26-3.11,3.139-4.46.38-.58.73-1.13,1.04-1.66q.63-1.035,1.11-1.95c.1-.18.19-.36.281-.53a18.546,18.546,0,0,0,1.56-4.03c.029-.12.059-.23.08-.34s.05-.23.07-.34c.04-.22.069-.43.089-.64a4.116,4.116,0,0,0,.04-.61,6.605,6.605,0,0,0-.149-1.86c4.06-.43,8.709-.18,11.62,2.49a8.667,8.667,0,0,1,1.02,1.13,7.965,7.965,0,0,1,.81,1.39c4.29,9.13,18.259-2,17.4,9.98s4.279,31.39,18.549,34.81,25.67,7.7,31.091,16.25C1116.619-2651.057,1128.318-2647.347,1114.619-2647.637Z" transform="translate(-569.223 3225.985)"/><path class="b" d="M1038.457-2757.75a12.182,12.182,0,0,1-1.24,8.573c-4,7.456-14.328,11.217-11.311,15.959,1.866,2.934,4.156,4.748,4.8,7.541.73,3.173-.674,7.616-7.259,16.421-12.372,16.547-2.1,29.667-15.8,27.388s-17.113-4.566-18.257,8.555c-.916,10.554-2.2,16.308-18.688,19.049q-.379-.944-.708-1.933c-5.135-15.4-23.962-10.267-32.52-10.267s-12.551-11.981-30.237-15.978-5.706-31.377,5.132-34.8c4.119-1.3,6.508-11.382-1.687-17.975,2.607-3.051,11.072,2.187,14.524-4.278,7.948-14.882-5.988-25.1-7.132-33.09s-2.808-19.423,4.037-25.7,30.028.17,37.447.17,9.232,10.542,12.085,2.553,19.461,2.435,24.023-5.549c2.909-5.088,10.9-5.315,16.331-9.378a34.711,34.711,0,0,0,15.619,13.94C1047.015-2787.418,1035.6-2771.441,1038.457-2757.75Z" transform="translate(-569.223 3225.985)"/><path class="c" d="M1017.348-2823.06c0,6.42-2.257,9.985-5.352,12.305-5.427,4.063-13.422,4.29-16.331,9.378-4.562,7.984-20.316,17.563-39.451,9.757-6.87-2.8-16.742-5.471-23.877-1.773-8.244,4.274-15.4,12.551-14.264,20.54s15.08,18.208,7.132,33.09l-.077.145a10.692,10.692,0,0,1-16.374,3.037c-5.173-4.35-12.8-8.992-23.2-13.45-31.947-13.694-39.366-31.95-38.223-56.482s-23.962-32.521-44.5-51.95,6.275-22.789,19.4-21.08c7.043.92,10.633-3.087,16.946-6.647,8.316,10.711,23.072,28.1,30.978,27.727,11.411-.54,29.1,9.731,39.366,2.313s17.117-3.423,25.1,6.845,17.687-7.985,30.238-5.7,21.109,20.536,32.52,13.69a18.493,18.493,0,0,1,4.916-2.126C1011.162-2845.708,1017.348-2838.095,1017.348-2823.06Z" transform="translate(-569.223 3226.062)"/><path class="d" d="M1044.11-2904.725c-.313,3.352-2.16,7.013-6.8,10.618-15.4,11.981-21.11,1.143-25.672,10.271s3.992,20.54,0,27.955a71.639,71.639,0,0,1-9.348,12.707,18.5,18.5,0,0,0-4.916,2.126c-11.411,6.846-19.97-11.411-32.52-13.69s-22.249,15.973-30.238,5.7-14.834-14.26-25.1-6.845-27.955-2.853-39.366-2.313c-7.906.372-22.662-17.016-30.978-27.727,5.448-3.077,12.93-5.818,26.416-4.76,26.6,2.082,27.928-16.327,45.391-56.546,13.3-2.182,29.977-4.257,41.329-3.363,21.679,1.713,36.513,5.136,37.082,22.253s45.072,19.4,53.06,18.256a4.95,4.95,0,0,0,.876-.2A12.625,12.625,0,0,1,1044.11-2904.725Z" transform="translate(-569.223 3226.122)"/><path class="c" d="M1044.4-2935.225c-.5.577-1.017,1.192-1.542,1.858-8.2,10.391.359,18.064.468,23.089.081,3.79-53.666,1.538-54.236-15.579s-14.7-22.913-36.374-24.626c-11.352-.894-28.025,1.18-41.329,3.363,1.643-3.78,3.427-7.751,5.386-11.918,22.818-48.5,49.064-91.286,51.346-115.818a25.5,25.5,0,0,1,1.527-6.536c7.736-4.856,16.86-3.765,23.575.831,10.841,7.415,4,25.1,15.407,21.679s21.935,4.424,21.11,10.268c-.032.226-.06.469-.116.722-1.259,6.067-10.588,18.975-7.3,26.092,3.422,7.419,13.694,14.264,15.4,21.683a14.675,14.675,0,0,0,.42,1.482c2.119,6.216,7.248,8.365,3.006,17.914-4.566,10.272,3.423,9.7,9.7,23.962C1056.738-2943.37,1052.071-2944.055,1044.4-2935.225Z" transform="translate(-569.223 3226.192)"/><path class="b" d="M1277.22-3026.755c-3.135,14.264.667,8.275-12.644,13.694s-12.457,17.687-18.163,24.532-7.988-3.709-16.83,0,.57,13.407-6.562,17.687c-6.134,3.679-24.495,10.308-36.595.312a34.521,34.521,0,0,0,7.214-13.768c3.993-15.452-5.706-9.08-10.271-25.627s-15.4-10.268-19.966-20.536,11.411-17.117,4.562-17.117a15.811,15.811,0,0,1-1.769-.111c5.691-4.7,13.709-12.022,16.983-18.335,5.325-10.271,7.228-5.326,17.5-15.977s26.245,5.326,39.556,3.423,6.089-6.086,16.357-6.086a30.487,30.487,0,0,0,9.631-1.724c2.774,4.3,6.748,9.5,11,11.139,7.419,2.853.071,5.992-2.815,12.551s3.743,7.419,0,16.547S1280.36-3041.015,1277.22-3026.755Z" transform="translate(-569.223 3226.205)"/><path class="b" d="M1376.223-3146v483.724a39.99,39.99,0,0,1-40,39.976h-239.99c2.01-4.147-5.87-6.376-.43-12.532,6.56-7.406,5.13-13.392,18.819-13.1s2-3.418-3.419-11.983c-5.42-8.545-16.82-12.823-31.09-16.24s-19.4-22.807-18.55-34.79-13.11-.849-17.4-9.974a7.9,7.9,0,0,0-.81-1.389,8.528,8.528,0,0,0-1.021-1.129c-2.909-2.668-7.559-2.918-11.619-2.489a6.125,6.125,0,0,0-.27-.879c-.02-.04-.03-.08-.051-.12a4.976,4.976,0,0,0-.209-.48,4.03,4.03,0,0,0-.24-.46,4.374,4.374,0,0,0-.26-.46c-.18-.3-.38-.59-.59-.879q-.36-.495-.75-.99c-.13-.17-.261-.34-.4-.51s-.27-.34-.4-.51-.279-.35-.409-.53c-.051-.06-.091-.12-.14-.18-.23-.3-.46-.609-.68-.939-.13-.2-.271-.4-.4-.6v-.01c-.09-.14-.17-.29-.25-.43a3.033,3.033,0,0,1-.28-1.6c.009-.07.02-.14.03-.21a4.047,4.047,0,0,1,.22-.729.066.066,0,0,1,.009-.04c.031-.07.061-.13.091-.2a2.4,2.4,0,0,1,.11-.23c.02-.03.029-.05.049-.08.051-.09.1-.17.15-.26.1-.16.211-.32.321-.48.219-.3.469-.589.74-.9.1-.1.2-.21.3-.32.12-.13.25-.26.389-.4.261-.26.531-.52.821-.78.14-.13.29-.27.44-.4l.92-.83.49-.43c.159-.14.32-.28.48-.43.32-.28.65-.58.98-.879l.01-.01c.17-.15.33-.3.49-.46s.32-.31.49-.46.33-.32.49-.479v-.01c.29-.28.56-.56.83-.85.21-.23.42-.46.63-.7s.41-.479.6-.729c.02-.03.05-.06.07-.09a5.916,5.916,0,0,0,.37-.49c.08-.09.15-.19.219-.28.131-.19.261-.37.381-.57s.26-.39.369-.59c.131-.2.241-.4.351-.6.33-.01.66-.03.99-.05.159-.01.329-.03.5-.04.25-.02.5-.05.75-.08s.5-.06.75-.1.5-.07.75-.11c.35-.06.71-.12,1.06-.19.41-.08.809-.17,1.22-.26.81-.19,1.629-.4,2.44-.62.62-.18,1.23-.36,1.84-.55s1.24-.39,1.849-.589q.617-.2,1.231-.42l1.229-.42c.411-.15.821-.29,1.221-.43s.819-.29,1.23-.44c.81-.29,1.62-.57,2.43-.849h.01c.04-.01.069-.03.109-.04.141-.05.281-.09.421-.13a1,1,0,0,1,.16-.05c.22-.07.44-.13.65-.18.04-.01.07-.02.11-.03a1.946,1.946,0,0,1,.31-.07c.19-.04.37-.08.54-.11a4.6,4.6,0,0,1,.51-.09c.15-.02.3-.04.45-.05a.344.344,0,0,1,.09-.01c.33-.03.65-.04.95-.04h.269a.28.28,0,0,1,.091.01,2.7,2.7,0,0,1,.409.03,6.235,6.235,0,0,1,.771.11c.12.02.24.05.36.08a2.277,2.277,0,0,1,.35.09c.11.03.22.06.33.1.22.07.43.15.64.24a2.914,2.914,0,0,1,.31.14,5.223,5.223,0,0,1,.58.29,2.444,2.444,0,0,1,.28.15h.01q.42.225.81.48c.18.1.36.21.53.32s.35.21.529.31.35.2.531.29.36.18.54.26a5.732,5.732,0,0,0,2.73.53,2.452,2.452,0,0,0,.27-.02,1.762,1.762,0,0,0,.219-.02c.131-.02.271-.04.421-.07h.01a4.05,4.05,0,0,0,.42-.09,4.061,4.061,0,0,0,.43-.12c.16-.05.33-.11.509-.17.161-.06.331-.12.5-.2.181-.06.351-.14.531-.22s.34-.15.5-.23c.489-.21.969-.39,1.429-.54s.9-.27,1.341-.37l.449-.09a22.329,22.329,0,0,1,5.131-.23c.94.03,1.92.06,2.97.02a1.085,1.085,0,0,0,.18-.01,2.807,2.807,0,0,0,.29-.01c.31-.02.63-.04.96-.08a17.437,17.437,0,0,0,2.02-.28c.13-.02.27-.05.4-.08.11-.03.23-.05.34-.08h.02c.209-.05.43-.1.649-.15.29-.07.591-.15.891-.25.27-.07.54-.16.819-.25s.571-.19.871-.3.6-.22.91-.34c.61-.25,1.24-.52,1.9-.82h.02l1.01-.49h.01c.22-.1.43-.21.64-.3s.41-.19.61-.28c.1-.05.2-.09.3-.13.3-.13.579-.24.86-.35s.55-.21.81-.3.51-.17.76-.24c.16-.05.32-.1.48-.14s.3-.09.45-.13h.01c.149-.04.3-.06.439-.09a3.605,3.605,0,0,1,.42-.09c.141-.02.281-.05.411-.06s.26-.04.39-.05l.38-.03c.12-.01.24-.02.359-.02a11.243,11.243,0,0,1,4.051.68,9.272,9.272,0,0,0,6.82.09q.39-.135.81-.3c.279-.11.569-.23.879-.37s.611-.29.94-.45c.221-.11.431-.22.641-.32.4-.21.78-.4,1.13-.59.41-.21.789-.41,1.14-.619s.69-.38,1-.57c.21-.12.41-.25.6-.37a.879.879,0,0,0,.1-.06c.156-.1.291-.2.433-.293s.291-.2.426-.3c.168-.123.333-.247.481-.367s.27-.22.39-.33.23-.22.34-.33.21-.21.3-.32a3.746,3.746,0,0,0,.269-.33,2.544,2.544,0,0,0,.241-.34c.069-.11.14-.23.2-.34a5.937,5.937,0,0,0,.34-.719c.05-.12.1-.25.14-.38a15.28,15.28,0,0,0,.46-1.929c.03-.14.05-.29.079-.44.031-.17.061-.34.091-.52.03-.15.05-.3.08-.45.07-.39.14-.81.22-1.249.07-.34.13-.709.209-1.089.041-.19.081-.38.121-.58s.09-.4.14-.61c.08-.34.17-.68.26-1.05.04-.18.09-.36.14-.549.339,0,.66-.01.97-.02s.59-.03.869-.06h.011c.42-.04.81-.09,1.17-.16.13-.02.25-.05.37-.07a7.745,7.745,0,0,0,1.23-.38h.01a4.008,4.008,0,0,0,1.8-1.359,2.757,2.757,0,0,0,.25-.429,1.146,1.146,0,0,0,.15-.34,4.916,4.916,0,0,0,.31-1.849c0-.19-.01-.38-.02-.57s-.031-.39-.06-.6-.05-.4-.09-.61c-.07-.44-.16-.9-.28-1.389-.07-.29-.15-.59-.23-.9-.06-.22-.121-.44-.19-.68-.31-1.059-.69-2.219-1.09-3.438l-.24-.72c-.08-.25-.161-.49-.24-.74-.31-.919-.62-1.869-.93-2.858-.09-.29-.181-.589-.26-.879s-.171-.58-.26-.87v-.01c-.08-.29-.15-.579-.23-.869s-.15-.58-.22-.87c-.11-.44-.211-.869-.311-1.3s-.189-.88-.269-1.309-.151-.83-.22-1.249q-.135-.84-.24-1.679c-.04-.32-.08-.65-.11-.97-.02-.15-.03-.3-.04-.44-.03-.28-.05-.56-.07-.839a35.475,35.475,0,0,1,.07-5.836c.03-.33.07-.66.11-.99,0-.03.01-.06.01-.09s.009-.05.009-.07c.051-.38.1-.75.171-1.119l.179-.959v-.02c.071-.34.15-.7.241-1.039s.18-.7.28-1.049c.08-.31.18-.63.28-.939,0-.01.01-.02.01-.03.02-.06.04-.13.06-.19.129-.39.27-.79.42-1.169v-.01c.02-.05.04-.11.06-.16.16-.41.33-.819.51-1.219.079-.19.17-.37.25-.55s.18-.38.27-.56c.07-.15.14-.29.22-.43.2-.39.41-.77.62-1.149.009,0,.009-.01.009-.01.241-.42.5-.85.77-1.259.171-.25.331-.51.511-.76l.54-.75c.24-.32.49-.64.74-.959.649-.81,1.359-1.6,2.12-2.379a25.5,25.5,0,0,0,4.16-5.407v-.01c.15-.25.27-.49.39-.719.07-.13.13-.24.18-.36.17-.35.33-.69.47-1.029.1-.22.19-.45.27-.66s.17-.42.24-.62c.85-2.269,1.26-4.048,2.7-5.477a7.153,7.153,0,0,1,.65-.57c.08-.06.16-.12.25-.18a10.786,10.786,0,0,1,1.15-.68c.109-.05.22-.1.34-.16a19.929,19.929,0,0,1,3.479-1.149c.351-.08.731-.17,1.121-.25.189-.04.379-.08.55-.13.02,0,.039-.01.06-.01a17.322,17.322,0,0,0,1.84-.53,1.891,1.891,0,0,0,.25-.08l.15-.06c.1-.04.2-.07.29-.11.14-.06.27-.11.4-.17.02-.01.03-.02.049-.02a6.023,6.023,0,0,0,.631-.32,4.945,4.945,0,0,0,.54-.33.878.878,0,0,0,.1-.06.486.486,0,0,0,.14-.11.85.85,0,0,0,.12-.08.8.8,0,0,0,.1-.09h.01a1.652,1.652,0,0,0,.2-.17c.06-.06.12-.11.18-.18a2.685,2.685,0,0,0,.32-.35.945.945,0,0,0,.12-.18,2.584,2.584,0,0,0,.24-.37.641.641,0,0,0,.089-.19.765.765,0,0,0,.091-.18.632.632,0,0,0,.06-.18,1.359,1.359,0,0,0,.07-.18,1.817,1.817,0,0,0,.05-.19,1.535,1.535,0,0,0,.05-.18,1.244,1.244,0,0,0,.03-.19,2.248,2.248,0,0,0,.06-.36,1.1,1.1,0,0,0,.02-.18.981.981,0,0,0,.02-.17c.009-.12.02-.24.03-.35s.01-.23.019-.34.021-.22.031-.33a3.232,3.232,0,0,1,.06-.47,2.042,2.042,0,0,1,.05-.24.434.434,0,0,0,.01-.05c.02-.07.05-.14.07-.21a1.91,1.91,0,0,1,.239-.44,1.335,1.335,0,0,1,.1-.12,1.032,1.032,0,0,1,.1-.1.521.521,0,0,1,.11-.1,2.16,2.16,0,0,1,.289-.2c.081-.04.161-.08.241-.11s.15-.06.23-.09c.06-.02.13-.04.19-.06a1.42,1.42,0,0,1,.22-.05,1.553,1.553,0,0,1,.23-.05,1.836,1.836,0,0,1,.25-.04q.225-.03.48-.06c.1-.01.21-.02.32-.02a16.979,16.979,0,0,1,1.88.01c.56.03,1.08.04,1.55.02a.28.28,0,0,0,.09-.01c.11,0,.219-.01.319-.02.141-.01.281-.02.421-.04l.43-.06c.21-.04.41-.08.589-.13l.181-.06a2.9,2.9,0,0,0,.31-.11,2.888,2.888,0,0,0,.31-.13,2.543,2.543,0,0,0,.33-.17c.079-.05.15-.09.22-.14a4.56,4.56,0,0,0,.48-.39,3.441,3.441,0,0,0,.31-.33l.02-.02c.08-.11.17-.22.25-.34.06-.09.12-.18.17-.27a1.576,1.576,0,0,0,.129-.23,4,4,0,0,0,.221-.47,2.433,2.433,0,0,0,.109-.25,2.673,2.673,0,0,0,.1-.27c.069-.18.13-.36.19-.55l.09-.3c.06-.2.119-.4.17-.61v-.01c.06-.22.11-.42.17-.65.029-.11.06-.22.08-.34s.06-.23.09-.35.06-.24.08-.36c.09-.37.18-.75.279-1.139.17-.65.351-1.349.561-2.069v-.01c.09-.3.18-.58.28-.89.22-.679.46-1.389.75-2.129a2.623,2.623,0,0,0,.1-.25c.07-.16.14-.33.21-.5.14-.33.29-.679.45-1.02s.33-.709.51-1.059.37-.729.57-1.1a38.424,38.424,0,0,1,2.58-4.058c.32-.45.64-.879.949-1.3.371-.51.731-1,1.081-1.459.28-.38.55-.74.81-1.089.04-.06.09-.12.13-.17.3-.41.6-.8.88-1.179s.559-.75.83-1.109a1.688,1.688,0,0,0,.11-.16c.06-.07.119-.15.17-.22.1-.12.19-.25.279-.37.581-.79,1.121-1.509,1.6-2.188q.375-.51.69-.99c.22-.32.419-.63.61-.929.09-.15.18-.31.28-.46.08-.14.17-.29.25-.43a4.5,4.5,0,0,0,.239-.42c0-.01.011-.01.011-.01l.21-.42c.069-.14.14-.27.2-.4v-.01c.07-.15.14-.3.2-.45.05-.12.09-.23.129-.34a.519.519,0,0,0,.04-.1c.04-.11.071-.21.111-.31.01-.04.03-.09.04-.13.04-.14.08-.29.12-.43.01-.06.03-.13.039-.19.021-.08.031-.16.051-.24a7.356,7.356,0,0,0,.11-.929,5.222,5.222,0,0,0-.011-.8v-.12a.679.679,0,0,0-.019-.13,7.734,7.734,0,0,0-.17-1.02c-.05-.2-.1-.4-.17-.6a8.375,8.375,0,0,0-.291-.809.009.009,0,0,1-.009-.01c-.17-.41-.37-.85-.6-1.3-.09-.15-.17-.31-.26-.47s-.18-.31-.27-.47c-.07-.11-.131-.22-.211-.34-.229-.37-.479-.77-.75-1.169-.21-.31-.42-.6-.639-.89-.08-.12-.16-.24-.25-.35h-.011v-.01c-.31-.4-.619-.78-.949-1.139-.28-.32-.571-.63-.87-.929-.14-.15-.29-.3-.44-.44-.741-.729-1.491-1.4-2.23-2.039-.17-.15-.34-.3-.511-.44-.759-.65-1.5-1.279-2.189-1.9-.17-.16-.34-.31-.51-.469-.49-.47-.96-.939-1.38-1.419-.12-.14-.231-.28-.34-.42-.181-.22-.34-.44-.49-.659a3.083,3.083,0,0,1-.191-.29c-.089-.14-.179-.28-.259-.43-.07-.13-.141-.27-.21-.4a5.8,5.8,0,0,1-.241-.56,4.759,4.759,0,0,1-.179-.52,2.588,2.588,0,0,1-.12-.42v-.01c-.03-.13-.06-.26-.08-.4a5.378,5.378,0,0,1-.09-.58c0-.02-.01-.03,0-.05a1.176,1.176,0,0,1-.031-.27,9.926,9.926,0,0,1,.31-3.048,17.814,17.814,0,0,1,1.071-2.978,9.483,9.483,0,0,0,.61-1.729c.03-.13.06-.27.08-.4a5.075,5.075,0,0,0,0-2.129c-.02-.1-.05-.21-.08-.31,0-.01-.01-.03-.01-.04a2.857,2.857,0,0,0-.15-.41c0-.01-.01-.01-.01-.02-.06-.12-.111-.25-.18-.36-.01-.02-.01-.03-.02-.04a3.652,3.652,0,0,0-.2-.32c-.08-.12-.171-.23-.26-.34s-.2-.22-.3-.32a1.626,1.626,0,0,0-.23-.22,5.54,5.54,0,0,0-.47-.38.138.138,0,0,1-.04-.03c-.161-.11-.32-.21-.49-.31a5.564,5.564,0,0,0-.68-.37,6.534,6.534,0,0,0-.661-.29c-.287-.115-.589-.216-.894-.313-.109-.034-.218-.068-.327-.1-.217-.063-.44-.121-.664-.176-.122-.03-.239-.065-.365-.091l-.008,0c-.252-.057-.509-.106-.765-.154-.229-.041-.458-.082-.686-.114-.26-.04-.521-.08-.78-.11v-.01a6.062,6.062,0,0,0,.29-.7c.02-.05.05-.11.07-.16.12-.3.23-.6.33-.91s.219-.629.319-.949.211-.649.3-.989c.2-.67.389-1.369.58-2.1s.36-1.479.55-2.259c2.85-11.973,13.12-13.682,10.27-22.237-1.68-5.027,1.57-7.885,5.34-12.512.3.24.59.479.9.7a21.866,21.866,0,0,0,1.841,1.229.031.031,0,0,1,.02.01,21.778,21.778,0,0,0,3.73,1.759c.17.06.33.12.5.18.21.07.42.14.63.2.01.01.02.01.029.02h.021c.67.21,1.34.38,2.019.53s1.371.27,2.061.36l.68.09a31.716,31.716,0,0,0,3.509.19c.531,0,1.051-.01,1.581-.04h.06c.5-.02,1.01-.06,1.52-.11.27-.02.549-.05.82-.08.15-.01.31-.03.46-.05l.45-.06c.39-.05.779-.11,1.16-.17l.17-.03c.04-.01.08-.01.12-.02.26-.04.51-.09.76-.14.51-.09,1-.19,1.49-.31h.01c.25-.05.5-.11.74-.17l.72-.18c.24-.06.48-.12.709-.19s.471-.13.7-.2.46-.13.69-.2.44-.14.66-.22h.01c.439-.14.87-.28,1.29-.44.42-.14.83-.3,1.23-.46.2-.07.4-.15.59-.23.39-.15.76-.31,1.12-.47s.7-.31,1.03-.47h.01a27.693,27.693,0,0,0,2.55-1.339,6.437,6.437,0,0,0,1.45-1.159,4.16,4.16,0,0,0,.52-.689,3,3,0,0,0,.339-.61.3.3,0,0,0,.04-.09c0-.01.011-.01.011-.02a.947.947,0,0,0,.09-.21c0-.01.01-.03.01-.04a3.266,3.266,0,0,0,.15-.43c.009-.03.02-.07.03-.1a2.263,2.263,0,0,0,.07-.28l.03-.15a.075.075,0,0,0,.01-.05,3,3,0,0,0,.08-.51c.01-.04.01-.07.019-.11.02-.17.031-.35.041-.52.25-4.557-2.53-10.114,3.669-12.712.171-.07.351-.14.511-.2a10.244,10.244,0,0,1,1.46-.43,6.9,6.9,0,0,1,.86-.13,7.723,7.723,0,0,1,2.57.12,3.571,3.571,0,0,1,.349.08c.091.02.171.05.25.07.171.05.341.1.5.16a13.723,13.723,0,0,1,1.821.81c.38.19.73.39,1.08.59h.01c.35.19.69.38,1.03.55v.01c.01-.01.01,0,.01,0a5.648,5.648,0,0,0,.609.29.142.142,0,0,1,.061.02,4.036,4.036,0,0,0,.54.21.28.28,0,0,1,.089.02c.091.03.181.05.261.07a3.493,3.493,0,0,0,.71.11,4.165,4.165,0,0,0,.5,0l.279-.03.271-.06a1.941,1.941,0,0,0,.229-.07.092.092,0,0,0,.051-.01.035.035,0,0,1,.03-.01.488.488,0,0,1,.07-.03,2.17,2.17,0,0,0,.28-.12c.12-.06.25-.12.379-.2s.261-.16.4-.26c.021-.01.04-.03.061-.04.11-.08.229-.18.34-.27.139-.12.28-.24.42-.38.11-.11.219-.23.34-.35.089-.1.189-.2.28-.31a.175.175,0,0,0,.04-.05c.059-.05.1-.11.15-.16q.27-.33.51-.66c.189-.26.37-.52.55-.79.04-.05.07-.11.11-.17.09-.14.18-.29.27-.44.15-.24.29-.49.429-.74.271-.5.531-1.01.781-1.539q.2-.405.36-.81.2-.405.359-.81c.121-.27.231-.55.341-.829s.23-.56.34-.84v-.01c.19-.46.38-.929.569-1.4.04-.11.091-.21.121-.31.16-.38.31-.75.47-1.129.17-.41.35-.83.53-1.24.09-.22.19-.429.29-.649s.2-.43.3-.649a2.271,2.271,0,0,0,.1-.21v-.01c.28-.57.58-1.129.89-1.7.12-.21.24-.42.37-.629.2-.35.41-.69.64-1.03v-.01a20.438,20.438,0,0,1,1.5-2c.09-.1.17-.2.25-.29s.18-.19.26-.28c.26-.29.52-.57.8-.849s.579-.54.89-.81c.21-.18.419-.35.629-.52s.431-.34.661-.51a20.912,20.912,0,0,1,2.24-1.419c.26-.15.54-.29.82-.43.56-.29,1.16-.56,1.779-.809,2.071-.84,3.731-1.409,5.06-1.829.011.01.011.01.021,0,.39-.12.76-.22,1.1-.33a.014.014,0,0,0,.02,0c.45-.13.85-.23,1.22-.34h.02q.4-.105.75-.21s.01.01.01,0a9.113,9.113,0,0,0,.99-.31h.01a2.964,2.964,0,0,0,.31-.13s0,.01.01,0a1.306,1.306,0,0,0,.26-.14c.009.01.009.01.009,0a1.908,1.908,0,0,0,.781-.79c.01,0,0-.01,0-.01a1.313,1.313,0,0,0,.139-.27v-.01a3.272,3.272,0,0,0,.181-.51v-.01a3.617,3.617,0,0,0,.109-.4v-.01c.06-.22.111-.46.161-.719v-.01c.04-.18.08-.37.11-.57.1-.51.2-1.1.32-1.779q.105-.615.24-1.319c.209-1.119.47-2.439.81-4a21.171,21.171,0,0,0,.59-6.316c-.021-.17-.04-.33-.06-.49-.02-.18-.05-.35-.08-.51-.06-.32-.131-.63-.21-.909a3.916,3.916,0,0,0-.131-.42,7.5,7.5,0,0,0-.3-.76c-.08-.18-.17-.35-.26-.51a9.294,9.294,0,0,0-.87-1.309c-.13-.18-.27-.35-.41-.51-.161-.21-.33-.4-.49-.6a1.06,1.06,0,0,0-.1-.12c-.111-.14-.21-.27-.321-.41-.109-.16-.219-.31-.319-.47-.02-.02-.03-.05-.05-.07-.05-.09-.1-.17-.15-.26a4.012,4.012,0,0,1-.22-.47c-.04-.11-.08-.23-.12-.35-.02-.05-.03-.11-.05-.17a5.706,5.706,0,0,1,.07-2.708,13.926,13.926,0,0,1,.67-2.019c1.68-4.107,1.27-6.536.56-8.565-.28-.809-.61-1.559-.86-2.328a7.018,7.018,0,0,1,.3-5.647,18.436,18.436,0,0,1,1.77-3.078c.66-.93,1.35-1.789,1.98-2.569.16-.2.31-.39.459-.58a12.465,12.465,0,0,0,1.431-2.069c.08-.16.15-.32.21-.47a2.471,2.471,0,0,0,.18-.889,2.275,2.275,0,0,0-.02-.25.516.516,0,0,0-.02-.11.268.268,0,0,0-.031-.12,1.952,1.952,0,0,0-.2-.48,1.955,1.955,0,0,0-.17-.22,1.411,1.411,0,0,0-.2-.23c-.07-.07-.14-.14-.221-.21s-.2-.16-.309-.24a4.15,4.15,0,0,0-.56-.35,6.2,6.2,0,0,0-.68-.34c-.241-.12-.52-.24-.81-.35-.27-.1-.53-.22-.79-.34h-.01a13.184,13.184,0,0,1-1.56-.919c-.19-.13-.38-.27-.571-.41s-.389-.29-.569-.45h-.01c-.25-.22-.49-.42-.74-.639-.61-.56-1.22-1.169-1.8-1.8l-.54-.6c-.051-.06-.1-.12-.16-.18-.12-.14-.24-.29-.36-.44-.21-.24-.41-.49-.6-.729-.121-.15-.24-.31-.371-.46s-.239-.31-.359-.47c-.3-.4-.59-.8-.88-1.2-.2-.28-.39-.56-.58-.84-.39-.56-.75-1.109-1.1-1.649.29-.1.569-.2.85-.31.04-.02.09-.03.13-.05.23-.09.46-.18.68-.28.14-.06.28-.11.409-.17.261-.11.521-.23.771-.35a17.7,17.7,0,0,0,2.68-1.559,8.67,8.67,0,0,0,.81-.63h.01c.16-.14.309-.28.46-.43.08-.07.14-.15.21-.22s.13-.15.2-.22a4.309,4.309,0,0,0,.34-.44c.05-.07.1-.15.14-.22a3.067,3.067,0,0,0,.49-1.589c0-.1-.011-.2-.02-.3a1.8,1.8,0,0,0-.06-.31,1.19,1.19,0,0,0-.07-.2,1.8,1.8,0,0,0-.08-.21,2.338,2.338,0,0,0-.11-.21c-.03-.06-.08-.13-.12-.2s-.09-.13-.14-.2a4.087,4.087,0,0,0-.411-.45.48.48,0,0,0-.129-.12.382.382,0,0,0-.11-.11h-.011a4.238,4.238,0,0,0-.569-.44,11.833,11.833,0,0,0-1.531-.85c-.2-.09-.4-.2-.6-.31a7.962,7.962,0,0,1-1.16-.83c-.19-.16-.38-.32-.56-.5s-.37-.37-.55-.56-.35-.4-.531-.61c-.119-.14-.229-.28-.339-.43-.23-.29-.45-.6-.67-.919-.11-.16-.22-.32-.33-.49-.14-.21-.28-.44-.42-.67-.21-.34-.41-.69-.61-1.049-.21-.38-.42-.78-.62-1.179s-.39-.79-.58-1.2-.37-.829-.55-1.249c-.18-.4-.35-.809-.51-1.219,6.79-.17,13.44-7.3,21.34-16.92,6.31-7.666,19.85-12.833,35.2-16.131a245.865,245.865,0,0,1,46-4.927h.01q1.65-.03,3.24-.03C1371.582-3145.705,1374.042-3145.805,1376.223-3146Z" transform="translate(-569.223 3226.295)"/><path class="d" d="M1120.041-3113.188c-9.888,3.422-22.059-4.946-25.865,4.182s14.454,4.186,10.271,14.074-10.841,22.823-20.252,13.694-10.555,0-17.024,11.408c-2.977,5.251,1.3,7.846,6.785,9.115a4.959,4.959,0,0,1,2.717,8.108c-1.827,2.012-4.855,3.322-9.882,1.987-12.171-3.233-14.07-13.125-18.636-6.276-2.458,3.687-10.34,6.711-18.519,8.9a6.288,6.288,0,0,0,.116-.723c.57-5.7-10.125-13.69-21.533-10.268s-4.566-14.264-15.407-21.679c-6.715-4.6-15.431-5.58-23.167-.724,7.955-21.31,42.358-36.984,51.7-31.8,10.268,5.705,29.1-17.687,45.071-34.234s20.54-16.543,20.54-16.543c8.1-2.8,15.005,3.062,23.135,8.226a18.081,18.081,0,0,1,8.072,11.5c.991,4.757,3.194,9.232,7.588,12.029C1138.3-3124.219,1129.929-3116.611,1120.041-3113.188Z" transform="translate(-569.223 3226.295)"/><path class="d" d="M1193.115-2964.528c-6.968,13.8-20.069,25.522-24.74,36.846-2.687,6.512-8.028,8.987-23.229,9.043-10.611.038-13.442-1.558-21.683-8.559-11.485-9.757-30.237.57-39.365,2.283s-13.708-1.064-17.117-3.422c-6.931-4.8-17.012-3.106-22.99-6.994,7.672-8.831,12.339-8.145,6.447-21.534-6.275-14.26-14.264-13.691-9.7-23.962,4.242-9.549-.887-11.7-3.006-17.914,6.492-2.722,14.384-3.933,20.689,1.493,13.124,11.289,31.38,19.274,48.5,6.153s-4-23.392,16.543-31.951,25.676-9.128,25.676-19.969a10.408,10.408,0,0,1,.264-2.462c1.631-6.674,14.655-8.668,19.089-4.148,6.808,6.939-9.655,8.893-5.089,19.164s15.4,3.993,19.966,20.536S1208.132-2994.273,1193.115-2964.528Z" transform="translate(-569.223 3226.18)"/><g transform="translate(532.161 215.046)"><path class="c" d="M1114.74-3011.116c8.653.389,14.3,9.3,11.321,17.433l-1.706,4.653-6.656,18.155a3.807,3.807,0,0,1-7.151,0l-6.656-18.155-1.7-4.649c-2.982-8.134,2.669-17.047,11.324-17.437.2-.01.408-.014.614-.014S1114.536-3011.126,1114.74-3011.116Z" transform="translate(-1101.384 3011.13)"/><circle class="e" cx="5.208" cy="5.208" r="5.208" transform="translate(7.533 7.986)"/></g><g transform="translate(365.182 300.026)"><path class="c" d="M947.761-2926.089c8.653.39,14.3,9.3,11.321,17.434L957.376-2904l-6.656,18.155a3.807,3.807,0,0,1-7.15,0L936.914-2904l-1.705-4.649c-2.982-8.134,2.669-17.048,11.324-17.438.2-.009.408-.014.614-.014S947.558-2926.1,947.761-2926.089Z" transform="translate(-934.405 2926.103)"/><circle class="e" cx="5.208" cy="5.208" r="5.208" transform="translate(7.533 7.987)"/></g><g transform="translate(408.586 205.404)"><path class="d" d="M991.165-3020.764c8.653.39,14.3,9.3,11.321,17.433l-1.706,4.654-6.655,18.154a3.807,3.807,0,0,1-7.151,0l-6.656-18.154-1.7-4.649c-2.983-8.134,2.668-17.048,11.323-17.438.2-.009.409-.014.614-.014S990.962-3020.773,991.165-3020.764Z" transform="translate(-977.809 3020.778)"/><circle class="e" cx="5.208" cy="5.208" r="5.208" transform="translate(7.533 7.986)"/></g><g transform="translate(316.264 379.436)"><path class="d" d="M898.843-2846.636c8.652.39,14.3,9.3,11.321,17.433l-1.706,4.653L901.8-2806.4a3.807,3.807,0,0,1-7.151,0l-6.656-18.155-1.7-4.649c-2.982-8.134,2.669-17.047,11.323-17.437q.306-.014.615-.014T898.843-2846.636Z" transform="translate(-885.487 2846.65)"/><circle class="e" cx="5.208" cy="5.208" r="5.208" transform="translate(7.532 7.986)"/></g><g transform="translate(463.901 89.152)"><path class="c" d="M1046.48-3137.13c8.652.39,14.3,9.3,11.321,17.434l-1.706,4.653-6.656,18.155a3.807,3.807,0,0,1-7.151,0l-6.656-18.155-1.7-4.649c-2.983-8.134,2.669-17.048,11.323-17.438q.306-.014.615-.013T1046.48-3137.13Z" transform="translate(-1033.123 3137.143)"/><circle class="e" cx="5.208" cy="5.208" r="5.208" transform="translate(7.533 7.986)"/></g></svg>