<svg xmlns="http://www.w3.org/2000/svg" width="807" height="604.312" viewBox="0 0 807 604.312"><defs><style>.a{fill:#f0fbff;}.b{fill:#d9eff7;}.c{fill:#9bbbfc;}.d{fill:#f9ce69;}.e,.h{fill:none;stroke-miterlimit:10;stroke-width:2.835px;}.e{stroke:#f9ce69;}.f{fill:#4741a6;}.g{fill:#fff;}.h{stroke:#9bbbfc;stroke-linecap:round;}</style></defs><path class="a" d="M8372.33-1326.98v524.31a40,40,0,0,1-40,40h-727a40,40,0,0,1-40-40v-524.31a40,40,0,0,1,40-40h727a40.015,40.015,0,0,1,37.54,26.17,39.524,39.524,0,0,1,2.13,8.65A40.18,40.18,0,0,1,8372.33-1326.98Z" transform="translate(-7565.33 1366.982)"/><path class="b" d="M8224.7-1357.972a9.765,9.765,0,0,1-.891,3.75c-5.949,14.06-15.42,32.45-28.8,19.47s-15.01,0-24.21,16.22c-5.61,9.9,6.89,13.16,17.49,14.19a7.286,7.286,0,0,0-.18.84c-1.62,10.17-.54,16.89-17.85,12.29s-20.01-18.66-26.5-8.92c-3.5,5.24-15.31,9.54-26.94,12.65a8.424,8.424,0,0,0,.17-1.03c.81-8.11-13.8-19.47-30.02-14.6s-11.376-16.742-26.8-27.292c-9.55-6.53-19.606-3.728-30.606,3.172,3.032-18.832,17.842-31.53,30.3-39.75h151.01c.14.09.29.18.44.27s.3.17.46.25a26.688,26.688,0,0,0,3.739,1.45c.19.06.381.12.57.19s.39.12.58.18c.31.1.63.2.94.3.159.06.319.11.479.16.25.09.5.17.74.26a.5.5,0,0,0,.109.04c.551.21,1.091.42,1.6.65.13.06.27.12.39.18.04.03.08.04.11.06.17.08.33.17.479.25.12.07.24.14.351.2.2.13.39.25.569.38.131.1.25.19.37.29a3.826,3.826,0,0,1,.37.33,3.545,3.545,0,0,1,.33.35,4.431,4.431,0,0,1,.49.65c.02.04.05.08.07.12a3.546,3.546,0,0,1,.22.43c0,.01,0,.01.01.01.061.14.11.28.16.43.01.01.01.02.02.04a5.065,5.065,0,0,1,.19.99A5.046,5.046,0,0,1,8224.7-1357.972Z" transform="translate(-7565.33 1366.982)"/><path class="b" d="M8369.87-1340.81a15.246,15.246,0,0,0-3.3.91,17.061,17.061,0,0,0-5.931,4.07c-.46.47-.9.92-1.33,1.35-.649.64-1.279,1.25-1.88,1.81s-1.18,1.08-1.739,1.56-1.091.93-1.61,1.34-1.01.8-1.49,1.15c-.32.23-.63.46-.93.67-.16.1-.311.21-.45.31-.59.41-1.15.77-1.69,1.1h-.01c-.4.25-.79.48-1.16.7-.25.15-.489.29-.729.42h-.01c-.24.14-.471.27-.7.4s-.46.25-.69.38-.439.25-.649.37a19.688,19.688,0,0,0-4.2,2.99l-.29.29c-.2.19-.39.4-.58.61-.39.43-.78.9-1.18,1.43-.1.13-.21.27-.3.41q-.45.63-.93,1.35c-.31.49-.63,1.02-.96,1.58-.22.38-.439.77-.67,1.18s-.46.85-.7,1.31v.01c-.29.56-.6,1.12-.95,1.69s-.71,1.15-1.09,1.73-.79,1.16-1.22,1.74v.01c-.42.58-.87,1.16-1.34,1.74v.01c-.45.58-.93,1.16-1.43,1.75-.99,1.17-2.04,2.34-3.11,3.5s-2.2,2.29-3.33,3.42c-3.97,3.91-8.14,7.55-11.68,10.48-8.94-1.03-21.561-6.35-23.88,3.14-.5-.45-1.011-.9-1.53-1.36s-1.061-.91-1.61-1.37c-.82-.69-1.68-1.39-2.56-2.07-.29-.23-.58-.46-.88-.68-.12-.1-.25-.2-.381-.29q-.69-.525-1.409-1.05c-.61-.44-1.23-.88-1.86-1.31s-1.25-.83-1.89-1.23c-.57-.37-1.141-.72-1.721-1.06-.229-.14-.46-.27-.689-.4a45.806,45.806,0,0,0-6.12-2.96c-.26-.1-.53-.2-.79-.29a.8.8,0,0,0-.2-.07c-.33-.13-.66-.24-.99-.34-.1-.03-.189-.06-.27-.08-.17-.06-.35-.11-.521-.16-.3-.09-.6-.17-.89-.24-.17-.05-.34-.09-.5-.13-.29-.07-.57-.13-.86-.18-.18-.04-.35-.06-.529-.1q-.735-.135-1.471-.21a19.088,19.088,0,0,0-2.72-.11c-1.109.03-2.18.08-3.21.13-.64.03-1.27.07-1.89.11s-1.221.09-1.82.13c-1.18.09-2.31.18-3.4.28h-.01c-.649.06-1.29.12-1.91.17-2.609.23-4.979.43-7.2.49-.261,0-.5.01-.75.01a32.426,32.426,0,0,1-3.44-.11l-.64-.06c-.391-.04-.78-.09-1.16-.15-.21-.03-.43-.07-.641-.11a22.023,22.023,0,0,1-4.4-1.25c-.22-.09-.43-.17-.64-.26a24.906,24.906,0,0,1-2.54-1.27c-.311-.17-.62-.35-.931-.55a1.183,1.183,0,0,1-.149-.09c-.32-.2-.65-.41-.99-.64s-.7-.48-1.061-.74c-11.029-7.98-29.72-10.04-32.27-.84-10.6-1.03-23.1-4.29-17.49-14.19,9.2-16.22,10.82-29.2,24.21-16.22s22.851-5.41,28.8-19.47a9.765,9.765,0,0,0,.891-3.75,4.814,4.814,0,0,0-.03-.55,5.14,5.14,0,0,0-.189-.99c-.011-.02-.011-.03-.021-.04-.05-.15-.1-.29-.16-.43-.01,0-.01,0-.01-.01a3.412,3.412,0,0,0-.22-.43c-.021-.04-.051-.08-.07-.12a4.356,4.356,0,0,0-.49-.65,3.532,3.532,0,0,0-.33-.35,3.714,3.714,0,0,0-.37-.33c-.119-.1-.239-.19-.369-.29-.181-.13-.37-.25-.57-.38-.11-.06-.23-.13-.351-.2-.149-.08-.31-.17-.479-.25-.03-.02-.07-.03-.11-.06-.12-.06-.26-.12-.39-.18-.51-.23-1.05-.44-1.6-.65a.49.49,0,0,1-.11-.04c-.24-.09-.49-.17-.74-.26-.16-.05-.32-.1-.479-.16l-.94-.3c-.189-.06-.38-.12-.58-.18s-.38-.13-.57-.19a26.735,26.735,0,0,1-3.739-1.45c-.16-.08-.311-.17-.46-.25s-.3-.18-.44-.27h121.45A40.015,40.015,0,0,1,8369.87-1340.81Z" transform="translate(-7565.33 1366.982)"/><path class="b" d="M8287.731-1283.9a14.734,14.734,0,0,0-.376,3.5c0,15.417-7.3,16.227-36.511,28.4s.811,26.771-23.524,45.434-50.3,7.3-68.964-8.749c-8.965-7.716-20.187-5.995-29.418-2.124a21.029,21.029,0,0,1-.6-2.107c-2.431-10.55-17.037-20.284-21.9-30.833-4.672-10.121,8.595-28.476,10.385-37.1,11.63-3.108,23.439-7.409,26.935-12.651,6.492-9.74,9.193,4.326,26.5,8.923s16.226-2.123,17.847-12.286a6.849,6.849,0,0,1,.185-.842c2.553-9.2,21.237-7.145,32.268.842,11.36,8.23,18.934,4.443,36.78,3.9C8267.749-1299.913,8279.633-1291.206,8287.731-1283.9Z" transform="translate(-7565.33 1366.982)"/><path class="b" d="M8350.636-1196.9a49.1,49.1,0,0,1-10.259,19.579c-5.359,6.593-9.972,10.666-7.589,17.81,4.057,12.17-10.549,14.6-14.606,31.638a68.454,68.454,0,0,1-3.474,11.482c-4.025,9.172-11.423,13.456-33.031,12.858-29.206-.81-12.17-1.621-30.832-12.17s-43,.81-55.978,3.246-10.544,4.867-24.34-4.867c-9.793-6.911-24.192-4.416-32.692-9.945,10.909-12.557,17.545-11.582,9.167-30.621-8.923-20.278-20.283-19.468-13.791-34.074,6.033-13.579-1.26-16.635-4.273-25.474,9.231-3.871,20.453-5.592,29.418,2.124,18.663,16.052,44.625,27.406,68.964,8.749s-5.683-33.264,23.524-45.434,36.511-12.98,36.511-28.4a14.734,14.734,0,0,1,.376-3.5c2.318-9.49,14.934-4.173,23.879-3.146a22.189,22.189,0,0,0,2.516.159c9.739,0-12.981,9.734-6.488,24.34s21.9,5.677,28.392,29.2S8356.313-1218.875,8350.636-1196.9Z" transform="translate(-7565.33 1366.982)"/><path class="b" d="M8330.352-1039.846c-13.79,19.065-4.866,30.42-19.473,29.609s.816,8.7-17.037,12.467-8.107,10.507-21.9,24.578-14.458,31.913-8.85,49.766c4.745,15.115,9.813,24.414-5.375,24.441l0,0c3.735-13.842-6.843-24.427-16.6-29.311-9.734-4.867-16.629-21.089-14.2-40.562s-15.416-22.714-17.847-38.538-23.123-20.686-21.5-35.7-8.113-6.9-15.818-17.444-2.029-12.17-20.962-19.876a43.9,43.9,0,0,0-12.779-3.336,17.962,17.962,0,0,0-1.117-7.9c8.214-2.69-12.906-18.207-1.245-32.983.747-.948,1.478-1.821,2.193-2.642,8.5,5.529,22.9,3.034,32.692,9.945,13.8,9.734,11.359,7.3,24.34,4.867s37.319-13.79,55.978-3.246,1.626,11.36,30.832,12.17c21.608.6,29.006-3.686,33.031-12.858,7.414.921,14.823,3.956,10.777,12.916-7.3,16.169,7.3,17.789,15.417,29.959S8344.143-1058.912,8330.352-1039.846Z" transform="translate(-7565.33 1366.982)"/><path class="b" d="M8257.74-899.091a.9.9,0,0,0-.027.106c-3.6,13.69.4,14.113-14.166,21.395-14.605,7.3-12.17-4.867-29.615,3.649s-21.5,1.218-32.855,6.493-10.952-7.3-25.15-2.436c-9.194,3.151-18.732,7.075-27.724,7.324a17.319,17.319,0,0,0,1.763-12.191c-4.057-19.468,12.17-42.187-15.416-55.168a49.353,49.353,0,0,1-22.211-19.822c4.4-3.3,7.61-8.368,7.61-17.5,0-21.38-8.8-32.2-21.406-28.985,14.139-7.542,13.877-13.178,13.293-18.069-1.367-11.43-6.493-26.771,0-39.752s14.6,2.431,36.5-14.606c6.594-5.126,9.22-10.332,9.665-15.1a43.9,43.9,0,0,1,12.779,3.336c18.933,7.706,13.256,9.331,20.962,19.876s17.444,2.436,15.818,17.444,19.066,19.876,21.5,35.7,20.282,19.065,17.847,38.538,4.465,35.7,14.2,40.562S8261.394-912.882,8257.74-899.091Z" transform="translate(-7565.33 1366.982)"/><path class="b" d="M8372.33-1170.67v368a40,40,0,0,1-40,40H8179.89c-13.23-9.67-18.07-31.03-17.06-45.15,1.21-17.04-18.66-1.21-24.75-14.19-3.35-7.16-11.89-7.9-19.14-7.13-.91-3.97-4.16-6.55-6.82-10.73-4.29-6.74,10.39-12.09,16.09-22.69,8.99-.25,18.53-4.17,27.72-7.32,14.2-4.87,13.79,7.71,25.15,2.43s15.41,2.03,32.86-6.49c.619-.3,1.22-.58,1.79-.83q.434-.2.84-.36c.83-.35,1.6-.63,2.33-.88.239-.08.479-.16.71-.22.46-.14.9-.26,1.319-.37.57-.14,1.1-.24,1.61-.32.17-.03.34-.05.5-.07l.26-.03c.17-.02.351-.04.521-.05a13.51,13.51,0,0,1,1.79-.02c.489.03.96.09,1.409.16s.881.17,1.29.28c.311.08.61.17.91.25s.6.18.891.28c.39.12.779.25,1.17.36a13.384,13.384,0,0,0,2.46.54,9.651,9.651,0,0,0,1.96.06c.22-.01.439-.02.66-.05a3.462,3.462,0,0,0,.439-.05h.021a8.453,8.453,0,0,0,.91-.17c.159-.03.319-.07.489-.11s.34-.08.511-.13.35-.1.529-.16c.11-.03.23-.07.34-.11.2-.06.41-.13.62-.21.1-.03.21-.07.32-.11.33-.12.68-.26,1.03-.41.63-.27,1.279-.57,1.979-.92,1.11-.55,2.11-1.07,3.021-1.56.3-.16.59-.31.87-.47s.55-.31.81-.46c.52-.29,1-.58,1.45-.86.22-.14.439-.28.64-.41.26-.16.5-.33.73-.49s.439-.32.64-.48.4-.31.58-.47c.1-.08.18-.15.27-.23.171-.16.341-.31.49-.47a8.618,8.618,0,0,0,.98-1.17,1.71,1.71,0,0,0,.16-.24,4.6,4.6,0,0,0,.25-.41.285.285,0,0,0,.04-.07c.09-.17.18-.34.26-.51s.149-.34.22-.52.14-.36.2-.55a11.583,11.583,0,0,0,.33-1.16v-.01c.1-.41.189-.84.27-1.3.1-.46.181-.95.271-1.47.13-.71.26-1.49.41-2.34.1-.5.2-1.02.31-1.58s.23-1.14.37-1.75c.14-.56.28-1.16.43-1.78.061-.21.11-.42.17-.63.471,0,.931-.01,1.36-.04.22,0,.439-.01.65-.03s.42-.03.619-.05c.4-.03.78-.08,1.141-.14h.01a9.681,9.681,0,0,0,1.02-.19h.011a9.623,9.623,0,0,0,1.76-.54h.01c.12-.05.25-.11.36-.17a1.993,1.993,0,0,0,.359-.18,3.448,3.448,0,0,0,.33-.19h.011c.1-.07.2-.13.3-.21a1.464,1.464,0,0,0,.28-.22,1.837,1.837,0,0,0,.27-.23.065.065,0,0,0,.05-.04,1.716,1.716,0,0,0,.19-.2,1.265,1.265,0,0,0,.22-.25,1.746,1.746,0,0,0,.2-.27,1.632,1.632,0,0,0,.18-.28,1.659,1.659,0,0,0,.17-.29,5.062,5.062,0,0,0,.46-1.29,3.4,3.4,0,0,0,.07-.35,3.543,3.543,0,0,0,.05-.36,2.154,2.154,0,0,0,.04-.37,19.128,19.128,0,0,0-.859-6.28.1.1,0,0,0-.011-.05c-.17-.63-.35-1.28-.56-1.95q-.105-.345-.21-.69c-.141-.45-.29-.92-.44-1.4-.08-.25-.16-.51-.25-.77s-.18-.54-.27-.82c-.271-.82-.55-1.66-.83-2.52q-.151-.45-.3-.9c-.341-1.03-.681-2.08-1.021-3.17-5.609-17.86-4.939-35.7,8.851-49.77.319-.33.63-.66.93-.98s.59-.64.86-.95.55-.64.8-.95c.13-.15.25-.3.37-.45s.229-.3.34-.44c.16-.21.319-.41.47-.61s.271-.38.4-.56c.55-.77,1.029-1.51,1.449-2.23.21-.36.41-.71.591-1.06q.149-.255.27-.51c.18-.34.34-.67.49-1q.344-.735.63-1.44a4.259,4.259,0,0,0,.18-.46,4.322,4.322,0,0,0,.181-.45c.06-.15.119-.3.17-.44s.109-.3.16-.44c.1-.29.2-.57.3-.85q.224-.615.42-1.2c.05-.13.1-.26.14-.39.28-.76.57-1.48.891-2.16a11.62,11.62,0,0,1,.729-1.29c.07-.1.14-.21.21-.31.14-.2.3-.4.46-.59s.34-.39.53-.57c.109-.11.22-.22.34-.32s.25-.22.38-.32a8.332,8.332,0,0,1,.84-.61c.15-.1.3-.19.471-.29.149-.09.319-.19.5-.28s.35-.18.54-.27.38-.18.579-.27.4-.18.62-.26c.42-.16.86-.33,1.33-.49.26-.08.521-.17.8-.25.261-.08.53-.15.811-.23.21-.06.42-.11.64-.17.65-.17,1.351-.33,2.09-.49.33-.07.66-.14.971-.22s.609-.15.9-.23c.58-.16,1.12-.32,1.61-.49.39-.13.76-.27,1.1-.42.011.01.011.01.011,0,.35-.14.67-.29.97-.44a9.618,9.618,0,0,0,1.55-.94,6.044,6.044,0,0,0,.6-.49,2.97,2.97,0,0,0,.261-.25,1.767,1.767,0,0,0,.229-.26,2.2,2.2,0,0,0,.21-.24,3.347,3.347,0,0,0,.37-.53,1.7,1.7,0,0,0,.15-.26,1.608,1.608,0,0,0,.14-.25,4.812,4.812,0,0,0,.311-.79,2.739,2.739,0,0,0,.069-.27,4.821,4.821,0,0,0,.12-.51v-.01a4.581,4.581,0,0,0,.08-.5c.01-.09.02-.18.03-.27.04-.33.06-.66.08-.98v-.01c.02-.32.05-.63.08-.92v-.01c.02-.15.04-.29.06-.43v-.01c.02-.1.04-.21.07-.31a.777.777,0,0,1,.04-.15.9.9,0,0,0,.05-.15v-.01c.03-.08.06-.15.09-.22s.08-.16.12-.23a1.614,1.614,0,0,1,.13-.22c.05-.07.1-.14.16-.21l.149-.15a2.858,2.858,0,0,1,.8-.53l.01-.01a5.338,5.338,0,0,1,.53-.2,14.5,14.5,0,0,1,4.979-.34c4.021.22,6.26-.48,7.68-2v-.01a5.547,5.547,0,0,0,.44-.53,3.018,3.018,0,0,0,.2-.29c.13-.2.25-.4.359-.61a7.2,7.2,0,0,0,.33-.69c.1-.24.2-.48.29-.73v-.01c.051-.13.09-.26.13-.39a7.078,7.078,0,0,0,.261-.82c.05-.14.09-.28.13-.42q.18-.66.359-1.38c.08-.32.16-.65.24-.98v-.01c.08-.34.17-.68.25-1.03.05-.18.09-.36.13-.55.09-.36.19-.73.28-1.11s.21-.77.31-1.17c.07-.27.15-.55.23-.83.16-.54.32-1.09.5-1.66.01-.02.02-.05.03-.08.1-.29.2-.6.3-.9.21-.61.439-1.23.68-1.87s.521-1.29.811-1.96v-.01c.08-.19.16-.37.25-.55s.17-.37.26-.56c.46-.98.979-1.99,1.55-3.03q.3-.51.6-1.05c.84-1.41,1.779-2.87,2.88-4.38,13.79-19.07,18.649-21.51,10.55-33.68a30.365,30.365,0,0,0-2.641-3.4c-.229-.26-.46-.51-.7-.77s-.48-.5-.721-.73q-.359-.375-.72-.72c-.479-.46-.97-.92-1.45-1.35s-.97-.87-1.449-1.28c-.24-.21-.48-.42-.721-.62-1.67-1.43-3.27-2.77-4.649-4.16-.2-.19-.391-.39-.58-.59s-.37-.4-.55-.61c-.28-.32-.551-.65-.8-.99-.08-.1-.149-.2-.22-.3-.11-.14-.21-.29-.31-.44s-.181-.28-.261-.42-.159-.27-.239-.41c-.091-.16-.181-.32-.261-.49l-.029-.06c-.07-.14-.13-.28-.19-.42a8.347,8.347,0,0,1-.31-.78c-.011-.02-.011-.03-.021-.05-.09-.25-.16-.5-.229-.76-.011-.02-.011-.04-.021-.06s-.01-.03-.01-.04c-.03-.13-.061-.27-.1-.41a1.765,1.765,0,0,0-.04-.21c-.04-.25-.08-.5-.11-.76-.01-.08-.021-.16-.03-.23-.01-.15-.02-.3-.03-.45v-.07a12.711,12.711,0,0,1,.1-2.27v-.01c.03-.22.07-.45.11-.68s.09-.46.14-.7.11-.48.17-.72l.21-.75c.08-.27.17-.54.27-.82.061-.17.12-.34.19-.52.22-.61.48-1.24.78-1.9.2-.44.37-.87.51-1.28a5.552,5.552,0,0,0,.18-.54c.051-.17.1-.34.141-.51a6.7,6.7,0,0,0,.16-.71,7.649,7.649,0,0,0,.079-2.55,1.63,1.63,0,0,0-.079-.45.043.043,0,0,0-.011-.05,5.181,5.181,0,0,0-.63-1.64,1.918,1.918,0,0,0-.2-.33,6.726,6.726,0,0,0-.569-.75c-.1-.11-.2-.22-.311-.32a6.433,6.433,0,0,0-.67-.61h-.01a3.973,3.973,0,0,0-.37-.28,5.562,5.562,0,0,0-.51-.33,2.449,2.449,0,0,0-.3-.18,2.537,2.537,0,0,0-.221-.13c-.05-.02-.09-.05-.14-.07a4.817,4.817,0,0,0-.5-.27c-.25-.12-.49-.23-.75-.33-.22-.1-.45-.18-.68-.26-.32-.13-.66-.24-1-.34s-.69-.2-1.051-.29c-.04-.01-.079-.02-.13-.03-.189-.05-.39-.1-.59-.14s-.4-.08-.609-.12l-.3-.06c-.18-.04-.359-.07-.55-.1l-.55-.09c-.37-.06-.75-.11-1.12-.16.18-.4.35-.81.51-1.24s.33-.85.48-1.29l.27-.78.07-.2.17-.55c.03-.09.06-.19.09-.29.1-.31.19-.62.28-.94.15-.48.28-.96.42-1.46.27-1,.53-2.03.79-3.1.07-.26.14-.54.2-.81s.13-.55.2-.82c.069-.29.14-.58.22-.86.06-.25.13-.49.2-.73v-.01c.04-.12.069-.23.109-.35.061-.22.13-.44.2-.65.05-.15.1-.29.15-.44.02-.06.04-.13.06-.19a.593.593,0,0,0,.061-.17.8.8,0,0,0,.05-.14c.069-.18.14-.37.21-.55.09-.25.189-.5.29-.74s.21-.49.319-.73.21-.48.32-.71a34.939,34.939,0,0,1,1.83-3.33c.11-.17.21-.33.32-.49.13-.2.26-.4.4-.59.181-.27.36-.53.551-.79.369-.52.739-1.02,1.119-1.5.32-.42.65-.82.971-1.22.17-.2.33-.39.489-.58s.32-.38.48-.57c1.07-1.26,2.12-2.43,3.05-3.57.19-.23.38-.46.55-.69.271-.33.521-.67.761-1,.17-.23.33-.46.479-.7.14-.2.271-.4.39-.61.11-.18.211-.35.3-.52a6.015,6.015,0,0,0,.319-.62c.1-.19.181-.38.271-.57a.145.145,0,0,0,.02-.06,4.2,4.2,0,0,0,.19-.5,1.369,1.369,0,0,0,.07-.18c.05-.14.1-.29.14-.43s.08-.26.11-.39a10.291,10.291,0,0,0,.27-1.57c.01-.07.01-.15.021-.22.01-.21.02-.41.02-.62a12.806,12.806,0,0,0-.71-4.05c-2.38-7.15,2.229-11.22,7.59-17.81.51.42,1.03.82,1.55,1.19.561.41,1.12.79,1.69,1.15a30.82,30.82,0,0,0,4.81,2.47c.4.16.811.32,1.221.47.3.11.609.21.909.31.391.13,1.04.34,1.45.45.24.07.48.14.721.2.43.11.85.21,1.279.3A47.482,47.482,0,0,0,8372.33-1170.67Z" transform="translate(-7565.33 1366.982)"/><path class="b" d="M8179.886-762.672h-118.45c2.57-9.52,8.71-6.84,24.72-4.17,19.47,3.24,4.87-15.42,22.46-38.95,9.36-12.52,11.36-18.84,10.32-23.35,7.25-.77,15.79-.03,19.14,7.13,6.09,12.98,25.96-2.85,24.75,14.19C8161.816-793.7,8166.656-772.342,8179.886-762.672Z" transform="translate(-7565.33 1366.982)"/><path class="b" d="M8129.966-874.752a17.362,17.362,0,0,1-1.76,12.19c-5.7,10.6-20.38,15.95-16.09,22.69,2.66,4.18,5.91,6.76,6.82,10.73,1.04,4.51-.96,10.83-10.32,23.35-17.59,23.53-2.99,42.19-22.46,38.95-16.01-2.67-22.15-5.35-24.72,4.17h-104.23a57.737,57.737,0,0,0-13.84-4.99c-25.15-5.68-8.11-44.62,7.3-49.49,5.86-1.84,9.691-11.832,1.57-20.51,3.7-4.341,11.78-1.93,16.69-11.13,11.3-21.16-8.52-35.69-10.15-47.05s10.55-20.29,20.29-29.21,25.15,3.25,35.7,3.25,18.65,11.36,22.71,0,25.15-3.25,31.64-14.6c4.14-7.24,15.51-7.56,23.22-13.34a49.387,49.387,0,0,0,22.21,19.82C8142.136-916.942,8125.906-894.222,8129.966-874.752Z" transform="translate(-7565.33 1366.982)"/><path class="b" d="M8138-1083.749c-.445,4.766-2.975,10.1-9.665,15.1-15.573,11.641-25.445,7.183-31.573,18.757-6.791,12.827,1.933,34.222-3.745,44.766-2.335,4.338-4.255,4.937-14.479,8.9a26.333,26.333,0,0,0-6.991,3.024c-16.227,9.734-28.4-16.226-46.244-19.468s-31.638,22.715-43,8.108-21.094-20.278-35.7-9.733-34.014-3.6-61.131-4.42c-11.251-.34-38.68-15.786-50.5-31.017,8.617-5.855,29.994-15.553,49.17-14.048,37.819,2.96,48.373-42.283,73.205-99.474,18.917-3.1,33.969,13.012,50.111,14.283,30.828,2.437,51.921,7.3,52.731,31.643s64.092,27.582,75.451,25.961a7.009,7.009,0,0,0,1.245-.281A17.962,17.962,0,0,1,8138-1083.749Z" transform="translate(-7565.33 1366.982)"/><path class="b" d="M8372-1332.16a40.18,40.18,0,0,1,.33,5.18v156.31a47.482,47.482,0,0,1-18.32-.11c-.43-.09-.85-.19-1.279-.3-.24-.06-.48-.13-.721-.2-.41-.11-1.06-.32-1.45-.45-.3-.1-.609-.2-.909-.31-.41-.15-.82-.31-1.221-.47a30.82,30.82,0,0,1-4.81-2.47c-.57-.36-1.13-.74-1.69-1.15-.52-.37-1.04-.77-1.55-1.19a49.243,49.243,0,0,0,10.26-19.58c5.67-21.97-8.12-12.91-14.609-36.44s-21.9-14.6-28.391-29.2,16.221-24.35,6.49-24.35a22.318,22.318,0,0,1-2.52-.15c3.54-2.93,7.71-6.57,11.68-10.48,1.13-1.13,2.25-2.27,3.33-3.42s2.12-2.33,3.11-3.5c.5-.59.979-1.17,1.43-1.75v-.01c.47-.58.92-1.16,1.34-1.74v-.01c.43-.58.84-1.16,1.22-1.74s.75-1.16,1.09-1.73.66-1.13.95-1.69v-.01c.24-.46.471-.89.7-1.31s.45-.8.67-1.18c.32-.57.65-1.09.96-1.58s.63-.93.93-1.35c.091-.14.2-.28.3-.41.4-.53.79-1,1.18-1.43.19-.21.38-.42.58-.61l.29-.29a19.688,19.688,0,0,1,4.2-2.99c.21-.12.43-.24.649-.37s.46-.26.69-.38.46-.26.7-.4h.01c.24-.13.479-.27.729-.42.37-.22.761-.45,1.16-.7h.01c.54-.34,1.1-.7,1.69-1.1.14-.1.29-.21.45-.31.3-.21.609-.44.93-.67.48-.36.97-.74,1.49-1.15s1.05-.86,1.61-1.34,1.14-1,1.739-1.56,1.23-1.17,1.88-1.81c.431-.43.87-.88,1.33-1.35v-.01a16.894,16.894,0,0,1,5.931-4.06,15.246,15.246,0,0,1,3.3-.91A39.524,39.524,0,0,1,8372-1332.16Z" transform="translate(-7565.33 1366.982)"/><path class="c" d="M8144.055-1115.146c-2.779,8.71,6.128,27.792,0,36.568-12.556,17.98-77.517-2.323-82.947-28.539-5.533-26.714-27.638-35.833-56.436-31.994-18.1,2.414-38.807,13.005-50.157-2.639-23.578-32.5,62.764-132.02,68.8-179.669,3.2-25.279,27.927-20.866,35.506-15.679,16.948,11.591,13.888,31.088,31.727,25.738s32.263,7.123,33,16.051c1.042,12.634-16.733,30.793-11.6,41.919,5.35,11.6,39.837,31.005,29.436,64.217-5.251,16.769,5.351,15.166,15.161,37.459C8165.753-1130.784,8149.863-1133.351,8144.055-1115.146Z" transform="translate(-7565.33 1366.982)"/><path class="d" d="M8114.024-969.4c.785,26.909-35.507,22.97-68.067,50.824-19.638,16.8-89.276-18.809-80.34,24.595,2.52,12.242,18.006,30.543,5.7,53.592q-.942,1.766-1.8,3.4a13.573,13.573,0,0,1-21.154,3.748c-7.974-7.364-20.555-15.383-38.456-23.052-49.479-21.209-60.969-49.485-59.2-87.48s-37.112-50.368-68.924-80.461,22.224-22.358,41.582-34.239c8.555-5.251,19.9-1.888,26.632,5.557,11.513,12.729,24.748,24.313,33.649,23.894,17.674-.837,48.942,21.663,63.373,8.37,32.9-30.308,69.846-11.9,83.807,2.075,14.363,14.381,33.564,29.165,50.968,18.127C8099.713-1011.816,8113.346-992.674,8114.024-969.4Z" transform="translate(-7565.33 1366.982)"/><path class="e" d="M7781.532-1057.638c15.854-3.7,24.614-2.394,40.34-13.532,9.055-6.413,27.248-3.217,36.511,8.094s55.862,46.164,77.869,31.647c22.982-15.16,43.918-25.884,75.067-13.7s39.064,35.234,52.851,36.256,30.515-15.017,47.176,2.3c14.164,14.719,18.7,53.106,1.335,63.829-21.092,13.028-46.763,16.913-60.766,32.851-14.059,16-58.468-2.468-69.7,4.171s-.35,15.246,2.042,30.127c10.468,65.107-32.425,65.17-48.255,48-14.535-15.766-59.489-21.957-79.149-52.085-10.337-15.842-16.462-37.792-16.34-56.425.1-15.56-4.473-29.32-17.107-41.107-14.808-13.815-69.447-47.744-63.523-67.149C7763.655-1056.727,7774.411-1055.977,7781.532-1057.638Z" transform="translate(-7565.33 1366.982)"/><g transform="translate(-7565.33 1366.982)"><path class="f" d="M7911.034-1064.8c19.76.89,32.663,21.241,25.854,39.812l-3.9,10.626-15.2,41.46a8.694,8.694,0,0,1-16.33,0l-15.2-41.46-3.892-10.616c-6.811-18.576,6.095-38.932,25.859-39.822q.7-.031,1.4-.032T7911.034-1064.8Z"/><circle class="g" cx="11.893" cy="11.893" r="11.893" transform="translate(7897.735 -1046.589)"/></g><path class="h" d="M8011.629-1323.6c2.426-26.686,38.086-42.922,57.392-19.1,18,22.213,14.718,24.791,31.277,21.191s38.681,14.3,35.106,30.256c-2.887,12.888-16.076,32.31-8.752,40.408,8.79,9.719,31.348,28.4,26.114,50.358-5.608,23.527,1.583,23.539,9.7,38.255,10.894,19.745,5.522,31.17-4.34,41.106-10.632,10.712-2.122,25.341-1.532,37.379s-14.383,23.983-41.107,21.077c-18.072-1.965-57.181-13.437-63.319-40.808-5.116-22.817-24.2-33.307-51.83-23.791-30.744,10.589-66.379,3.494-60-35.048,4.851-29.31,26.6-66.617,41.617-94.1C8000.851-1291,8010.128-1307.091,8011.629-1323.6Z" transform="translate(-7565.33 1366.982)"/><g transform="translate(-7565.33 1366.982)"><path class="f" d="M8061.192-1284.082c14.264,1.459,23.08,16.367,18.144,29.83l-2.941,8.022-11.436,31.193a6.542,6.542,0,0,1-12.287,0l-11.436-31.193-2.938-8.015c-4.937-13.466,3.88-28.378,18.149-29.837a23.26,23.26,0,0,1,2.372-.121A23.264,23.264,0,0,1,8061.192-1284.082Z"/><circle class="g" cx="8.948" cy="8.948" r="8.948" transform="translate(8049.868 -1270.481)"/></g></svg>