<svg xmlns="http://www.w3.org/2000/svg" width="736" height="597" viewBox="0 0 736 597"><defs><style>.a{fill:#f0fbff;}.b{fill:#f9ce69;}.c{fill:#e6f8fc;}.d{fill:#c3e3ea;}.e{fill:#d9eff7;}.f{fill:#d0e8ef;}.g{fill:#4741a6;}.h{fill:#fff;}</style></defs><g transform="translate(-2468.734 5332.16)"><path class="a" d="M3204.734-5292.643v517.966c0,21.825-16.334,39.517-36.481,39.517H2505.215c-20.147,0-36.481-17.692-36.481-39.517v-517.966c0-21.825,16.334-39.517,36.481-39.517h663.038c15.705,0,29.1,10.754,34.237,25.847a41.752,41.752,0,0,1,1.943,8.55c.164,1.393.265,2.817.292,4.27C3204.734-5293.217,3204.734-5292.93,3204.734-5292.643Z"/><path class="b" d="M2665.293-5001.371c-.292,4.317-.906,8.748-1.587,12.748a10.689,10.689,0,0,0-4.867-.1c-3.646.617-8.692,2.678-14.494,7.652-10.13,8.706-13.379,6.426-23.7,5.185s-11.081-3.733-20.027,4.966-2.718,18.443-.233,29.632c1.2,5.4-2.455,10.41-6.558,14.151.285-11.539-25.373-14.386-41.29-31.418-19.631-20.991-.262-29.835-21.922-51.378s-27.275-26.792-16.314-32.593,21.667,0,25.231-4.974c.067-.1.142-.195.21-.293,6.97,10.492,17.437,14.273,26.428,20.553,10.707,7.481,18.156,4.114,25.808-1.087s9.366,6.864,16.246,12.666,12.8-6.426,23.509-5.388c10,.966,17.332,6.094,23.554,3.043a9.358,9.358,0,0,0,1.295-.763,8.426,8.426,0,0,0,2.478-3.01C2662.3-5016.268,2665.78-5008.535,2665.293-5001.371Z"/><path class="c" d="M2745.972-4956.792a21.236,21.236,0,0,1-5.668,3.781c-12.286,6.24-39.725,13.867-59.528,9.364a27.435,27.435,0,0,0,1.707-6.378c1.535-10.118-1.041-22.6-5.832-24.618-6.881-2.9-10.13-12.431-12.234-13.672a3.408,3.408,0,0,0-.711-.308c.681-4,1.295-8.431,1.587-12.748.487-7.164-2.995-14.9-6.237-20.406,3.871-7.205,3.661-22.127,5.937-26,2.673-4.561,12.8-.828,15.1-8.285,1.055-3.44,3.376-6.085,4.23-7.943,19.428,2.572,13.97,19.189,26.353,30.313,13.379,12.017,21.218,31.288,19.5,41.642-.988,5.923,2.291,14.434,6.806,20.358a20.921,20.921,0,0,0,6.469,5.882,12.824,12.824,0,0,0,2.972,6.905C2746.93-4958.366,2746.743-4957.644,2745.972-4956.792Z"/><path class="c" d="M2674.741-4926.373s.345.244.981.649a10.337,10.337,0,0,1-.524,2.4Z"/><path class="d" d="M2760.092-4917.366c.546,4.73-.344,11.871-1.235,18.857v.008a139.022,139.022,0,0,0-1.4,14.589c-.008.738.007,1.436.052,2.077.4,6.11-11.53,10.889-18.68,13.193a15.431,15.431,0,0,0-3.107-3.042,13.2,13.2,0,0,0-1.662-1.136c-6.469-3.879-18.058-5.453-24.527-11.709-7.075-6.832-7.652-30.654-17.4-33.559a67.212,67.212,0,0,1-16.411-7.636c.479-5.266-3.908-7.124,2.269-13.493a14.043,14.043,0,0,0,2.785-4.43c19.8,4.5,47.242-3.124,59.528-9.364a21.236,21.236,0,0,0,5.668-3.781,47.616,47.616,0,0,0,11.919,3.172c8.984,1.039,3.444,12.537,4.3,17.2S2759.044-4926.373,2760.092-4917.366Z"/><path class="b" d="M2687.394-5089.456c-6.124-1-4.039,5.7-4.039,5.7l-5.739,4.015,1.236,12.519q-.831-.024-1.82-.024c-13.566,0-27.716-8.5-30.965-15.952s-9.943-14.914-31.543-14.711c-10.916.106-20.559.633-27.432,1.136.517-.795,1.064-1.59,1.633-2.377,15.033-20.715,33.129-69.886,42.053-95.851a36.728,36.728,0,0,1,11.568-16.82.361.361,0,0,1,.089-.073c2.254,6.856,9.119,25.867,16.629,27.393,8.205,1.671,13.813,3.5,13.124,9.647a12.6,12.6,0,0,1-.509,2.37.4.4,0,0,1-.03.089c-2.47,8.033-5.1,13.631,3.669,25.8a65,65,0,0,1,6.064,9.786,23.866,23.866,0,0,1,2.164,6.807v.008c.621,4.114-.015,8.358-1.73,13.859-3.825,12.22,3.437,7.66,5.736,15.116C2689.161-5095.769,2689.64-5092.783,2687.394-5089.456Z"/><path class="e" d="M2688.921-5134.992c-3.8-1.858-6.131-2.183-7.539-1.817a65,65,0,0,0-6.064-9.786c-8.767-12.171-6.139-17.769-3.669-25.8,5.331-4.569,12.646-10.289,16.284-10.654,6.117-.625,10.13,7.871,16.052,8.179s9.366-5.761,7.075-8.211a8.737,8.737,0,0,0-3.444-1.7c4.1-.649,10.34-.439,17.782,2.759,11.088,4.771,21.405,1.452,26.376,9.323,1.812,2.872,10.617,4.118,14.039,4.2-2.209,6.58-15.372,9.562-20.919,11.964-5.735,2.482-8.221,11.6-13.192,21.753s-13.761,10.979-23.509,11.182S2699.972-5129.6,2688.921-5134.992Z"/><path class="c" d="M2840.464-5034.313v.008c.292,3.01-4.829,8.39-5.346,10.767-.764,3.522-9.748,6.215-8.79,10.573s-6.116,6.207-2.68,14.5a45.643,45.643,0,0,1,2.448,7.595c1,4.511.742,7.733-.531,8.56-.1.065-.21.13-.345.211a40.6,40.6,0,0,1-13.109,4.723c-1.206.235-2.478.421-3.811.551a45.863,45.863,0,0,1-8.161.114c-13.76-1.038-13.573,8.487-31.347,4.552-17.2-3.806-10.969,8.081-18.328,4.933a8.593,8.593,0,0,0,.15-2.9c-.622-7.189-6.551-19.911-2.853-26.889,5.158-9.737,16.059-27.344,23.9-30.217.1-.032.2-.073.292-.114,7.6-3.018,19.983-16.641,16.4-24.95a48.98,48.98,0,0,1,13.9-.649c14.143,1.241,18.538-8.5,20.641,1.549,1.9,9.088.839,14.7,9.217,15.076a25.681,25.681,0,0,0,3.017-.056C2838.914-5036.65,2840.321-5035.758,2840.464-5034.313Z"/><path class="d" d="M2839.326-5056.886c1.243,1.785,4.365,2.726,7.666,3.8,4.358,1.412,9.022,3.059,10.108,7.181.569,2.15-.884,3.9-3.369,5.485a.028.028,0,0,1-.023.008c-3.317,2.11-8.49,3.944-13.244,6.1-.143-1.445-1.55-2.337-5.346-2.069a25.681,25.681,0,0,1-3.017.056c-8.378-.373-7.315-5.988-9.217-15.076-2.1-10.053-6.5-.308-20.641-1.549a48.98,48.98,0,0,0-13.9.649,7.682,7.682,0,0,0-.441-.86c-4.972-8.285-9.943-11.392-9.943-14.289,0-2.093-4.623-6.759-8.749-8.552.457-1.566,5.2-3.2,5.5-5.542,1.145-8.9,12.81-12.844,9.748-19.676-1.715-3.838-.3-7.676,1.647-11.847,15.805,10.378,26.84,1.388,26.84-5.972,0-7.87,6.3-8.909,12.616-6s5.158-7.457,8.026-13.883c2.381-5.339,7.015-5.948,12.241-7.789a31.416,31.416,0,0,0,3.242-1.323,6.406,6.406,0,0,0,1.834-1.29c3.564.341,8.146.957,10.017,1.907a2.634,2.634,0,0,1,1.445,2.231c.315,2.3-.7,5.68,2,8.747,3.819,4.357-1.153,16.991.951,21.55s3.092,14.914-14.03,29.211c-.172.146-.345.284-.509.43C2834.212-5071.175,2836.488-5060.992,2839.326-5056.886Z"/><path class="d" d="M2951.112-5026.329c-1.617,3.343-5.847,7.9-4.551,17.3a34.683,34.683,0,0,1,.149,10.142c-1.018,6.516-4.507,10.045-8.939,14.711-3.1,3.262-8.273,5.169-12.735,6.264a30.888,30.888,0,0,0-6.267-10.215c-4.35-4.885-10.1-8.82-15.408-9.307-9.171-.828-17.205-8.7-17.205-15.53s-.187-19.271-5.54-20.31c-2.65-.511-4.507-3.359-5.7-6.1,3.265-1.023,6.02-5.607,12.578-13.161,9.172-10.565,13.761,3.521,18.156,11.6,3.19,5.842,14.877,5.176,23.2-.041h.007a21.708,21.708,0,0,0,5.3-4.584,15.873,15.873,0,0,0,7.045.689c8.985-.835,5.548,9.737,9.561,14.192C2952.063-5029.242,2951.884-5027.919,2951.112-5026.329Z"/><path class="e" d="M2793.259-4811.811c-.981,12.041-8.932,20.755-10.272,29.235a.794.794,0,0,1-.135-.017,85.1,85.1,0,0,1-10.624-1.939c-33.638-8.293-45.108-12.707-53.524-8.293s-27.267,4.423-25.485-6.629c.891-5.5,4.829-9.363,6.573-12.674v-.008c5.668-1.623,12.519-4.787,13.177-10.654,1.153-10.15-.569-25.9,4.785-30.451s7.449-12.017,14.719-12.431c5.33-.3,7.771-.828,6.356-2.97,7.15-2.3,19.084-7.083,18.68-13.193-.045-.641-.06-1.339-.052-2.077,3.713,2.012,8,5.444,9.613,10.986,1.864,6.451,2.523,8.585,6.588,8.4-2.1,2.58-4.335,4.86-6.206,5.688-4.957,2.191,4.731,13.356,14.3,20.837.4.316.794.616,1.191.917C2792.877-4829.63,2794.4-4825.9,2793.259-4811.811Z"/><path class="c" d="M2833.389-4815.47a9.6,9.6,0,0,1-6.3,4.072c-9.748,1.867-6.311,9.737,0,21.34a31.145,31.145,0,0,1,2.688,6.418c-15.393-2.344-27.41,3.3-46.718,1.064,1.34-8.48,9.216-17.194,10.2-29.235,1.145-14.086-.382-17.819-10.317-25.275-.4-.3-.794-.6-1.191-.917-9.568-7.481-19.256-18.646-14.3-20.837,1.871-.828,4.1-3.108,6.206-5.688a46.015,46.015,0,0,0,7.539-1.347c1.61-.357,3.452-.779,5.563-1.249,16.816-3.733,9.935-7.457,11.47-24.862s3.631-4.763,12.107-6.418a5.128,5.128,0,0,0,2.118-.892,26,26,0,0,0,4.507,5.655c6.881,6.418,12.234,15.952,10.317,25.17-1.5,7.221,1.356,15.27,8.446,16.917a42.245,42.245,0,0,0,.082,11.4c.022.195.052.39.075.585C2837.11-4830.092,2837.072-4820.729,2833.389-4815.47Z"/><path class="d" d="M2898.847-4777.5c-1.183.795-2.381,1.534-3.594,2.2-13.125,7.319-28.083,7.862-47.834-2.353a56.729,56.729,0,0,0-17.16-5.907c-.165-.033-.322-.057-.479-.082a31.145,31.145,0,0,0-2.688-6.418c-6.311-11.6-9.748-19.473,0-21.34a9.6,9.6,0,0,0,6.3-4.072c3.683-5.259,3.721-14.622,2.493-24.1-.023-.2-.053-.39-.075-.585a42.245,42.245,0,0,1-.082-11.4,11.028,11.028,0,0,0,1.183.212,15.073,15.073,0,0,0,5.667-.455c12.039-3.108,12.615-2.483,18.732-2.28a5.007,5.007,0,0,0,4.852-2.694,16.8,16.8,0,0,0,1.677-5.5c7.943-3.773,12.256-3.741,14.435-2.159h.007c2.3,1.664,2.239,5.047,1.587,7.457l-.022.1c-1.348,4.973-3.759,12.544,2.7,13.574,6.5,1.039,14.15,6.216,11.283,19.685s-10.9,14.913-3.062,30.241C2898.293-4786.471,2899.064-4781.2,2898.847-4777.5Z"/><path class="f" d="M2948.095-4818.116a28.261,28.261,0,0,0-.621,4.99c-2.456.925-4.784,1.9-7.023,2.954-10.249,4.779-18.635,11.043-28.038,20.942a80.535,80.535,0,0,1-13.566,11.733c.217-3.7-.554-8.974-4.088-15.879-7.839-15.328.194-16.78,3.062-30.241s-4.784-18.646-11.283-19.685c-6.454-1.03-4.043-8.6-2.7-13.574l.022-.1c.652-2.41.712-5.793-1.587-7.457,2.6-1.647,6.813-3.213,13.244-2.9,6.447.316,11.006-.479,13.582-.333a3.221,3.221,0,0,1,1.946.568c.764.657.7,1.988-.232,4.536-2.867,7.87-1.34,18.435,9.553,23.2s11.47,2.905,15.1-1.242a2.681,2.681,0,0,1,2.082-1.2c2.313.129,4.035,5.541,8.243,9.281.09.082.18.155.262.236C2951.12-4827.763,2950.154-4827.788,2948.095-4818.116Z"/><path class="d" d="M3059.156-4842.06a16.771,16.771,0,0,1-1.34,2.6c-2.2,3.5-6.364,6.969-14.914,7.131-10.7.212-11.081,3.319-18.538,6.63s-7.262,3.107-14.914,1.249c-4.454-1.087-6.7,2.4-7.8,5.5-4.836-3.295-11.38-5.023-23.112-2.889h-.007c-1.633.292-3.362.657-5.2,1.112a222.948,222.948,0,0,0-25.852,7.594,28.261,28.261,0,0,1,.621-4.99c2.059-9.672,3.025-9.647-2.036-14.175-.082-.081-.172-.154-.262-.236-4.208-3.74-5.93-9.152-8.243-9.281a16.911,16.911,0,0,1,4.23-9.429c5.735-5.875,7.839-5.112,5.54-10.5a6.079,6.079,0,0,1-.269-.738c-.517-1.655-.075-2.637,1.28-3.205,2.411-1.022,7.7-.738,15.625-.617,13,.211,24.273,7.871,39.186,5.591s22.745-1.858,37.465,6.215c11.417,6.272,17.317,7.806,18.583,10.11A2.538,2.538,0,0,1,3059.156-4842.06Z"/><path class="c" d="M2914.232-4871.887c-1.153,1.809-2.224,3.4-3.182,4.787a3.221,3.221,0,0,0-1.946-.568c-2.576-.146-7.135.649-13.582.333-6.431-.309-10.639,1.257-13.244,2.9h-.007c-2.179-1.582-6.492-1.614-14.435,2.159.277-1.615.479-3.294.733-4.852.959-5.8-8.6-3.936-8.6-10.776s3.631-27.863,2.1-35.263,4.4-2.515.958-11.489,2.868-4.414,3.631-12.285c.45-4.617,2.209-14.727,3.362-23a25.284,25.284,0,0,0,5.817-1.859c.742-.308,1.475-.592,2.216-.843,1,3.618,2.306,8.479,3.9,14.305,3.631,13.266,10.512,18.645,13.566,31.076s4.4,3.319,9.561,16.78c3.594,9.4,8.228,11.733,13.454,12-1.617,2.922-3.406,6.216-4.305,8.1-.5,1.054-.329,1.509.09,1.793C2915.46-4877.827,2918.417-4878.419,2914.232-4871.887Z"/><path class="e" d="M2945.782-4870.938c-1.655,2.816-2.3,5.728,1.273,8.463a6.079,6.079,0,0,0,.269.738c2.3,5.388.2,4.625-5.54,10.5a16.911,16.911,0,0,0-4.23,9.429,2.681,2.681,0,0,0-2.082,1.2c-3.631,4.147-4.2,6-15.1,1.242s-12.42-15.328-9.553-23.2c.929-2.548,1-3.879.232-4.536.958-1.388,2.029-2.978,3.182-4.787,4.185-6.532,1.228-5.94.09-6.7-.419-.284-.592-.739-.09-1.793.9-1.883,2.688-5.177,4.305-8.1.165.017.322.017.494.025h.008a51.879,51.879,0,0,0,6.6-.422c2.77-.284,6.738-.617,10.878-1.1.831-.1,1.67-.2,2.5-.309a21.253,21.253,0,0,1,3.728,5.347c2.486,5.388,9.366,4.763,6.117,9.534C2947.886-4873.981,2946.68-4872.471,2945.782-4870.938Z"/><path class="e" d="M3123.326-4865.469c-4.223,5.793-8.318,10.564-11.485,15.4-4.29,6.564-6.865,13.242-5.727,22.72,2.291,19.059,3.316,47.783-7.644,49.17s-34.156,1.38-43.335-17.4-28.031-1.38-39.5-10.224c-5.571-4.284-8.79-9.615-13.986-13.136,1.1-3.1,3.347-6.589,7.8-5.5,7.652,1.858,7.457,2.069,14.914-1.249s7.839-6.418,18.538-6.63c8.55-.162,12.713-3.626,14.914-7.131a16.771,16.771,0,0,0,1.34-2.6,2.538,2.538,0,0,0,.038-2.321c4.035-3.992,8.063-9.234,6.842-13.421-2.3-7.87-5.929-5.176-6.581-12.641s2.95-7.043-5.083-12.22c-7.914-5.1-2.448-8.195,3.743-7.887.09.008.18.008.27.017a11.043,11.043,0,0,0,3.691-.414c3.893-1.055,6.753-3.343,13.9,1.655,9.18,6.427,3.639-.827,12.234,0s6.693,9.737,15.3,6.629a20.038,20.038,0,0,1,16.059,1.453S3124.666-4877.089,3123.326-4865.469Z"/><path class="e" d="M3072.28-4967.56c-3.346,3.416-7.584,6.824-11.739,7.685-.015,0-.037.008-.053.008-6.131,1.225-9.949,1.614-14.367-.041a32.708,32.708,0,0,1-6.85-3.757,22.234,22.234,0,0,0-11.844-3.8,22.6,22.6,0,0,0-2.486.057,33.5,33.5,0,0,0,.569-5.786c.381-15.749-5.54-13.258-11.088-26.313s-15.1-21.129-.958-32.107a41.719,41.719,0,0,1,13.356-6.767c.067.113.142.227.217.34,5.735,8.5,5.548,10.557,12.616,1.242,6.835-9.015,12.241,4.43,28.308,3.651-2.351,20.22-2.546,42.55,2.089,59.046A58.2,58.2,0,0,0,3072.28-4967.56Z"/><path class="c" d="M3027.427-4967.462l-2.554.4c.023-.114.045-.228.068-.341A22.6,22.6,0,0,1,3027.427-4967.462Z"/><path class="f" d="M3181.814-4940.873c-1.535,20.164-2.044,44.189-18.1,46.956s-24.213,3.311-35.683,21.543c-1.557,2.475-3.144,4.763-4.709,6.9,1.34-11.62-3.766-15.741-3.766-15.741a20.038,20.038,0,0,0-16.059-1.453c-8.6,3.108-6.693-5.8-15.3-6.629s-3.054,6.427-12.234,0c-7.142-5-10-2.71-13.9-1.655,2.283-5.915,7.442-20.91,4.724-29.421-3.444-10.768,4.971-10.151,5.353-18.435s-17.018-3.936-13.955-11.189a38.688,38.688,0,0,0,2.343-9.883c4.155-.861,8.393-4.269,11.739-7.685,2.449,5.989,5.773,10.833,10.13,13.981,19.878,14.362,41.036,12.431,57.6-3.871S3183.341-4961.036,3181.814-4940.873Z"/><path class="g" d="M2684.325-5064c-.854,1.858-3.175,4.5-4.23,7.943-2.3,7.457-12.429,3.724-15.1,8.285-2.276,3.87-2.066,18.792-5.937,26a8.426,8.426,0,0,1-2.478,3.01,9.358,9.358,0,0,1-1.295.763c-6.222,3.051-13.551-2.077-23.554-3.043-10.706-1.038-16.628,11.181-23.509,5.388s-8.6-17.875-16.246-12.666-15.1,8.568-25.808,1.087c-8.991-6.28-19.458-10.061-26.428-20.553,3.459-4.868,5.967-9.339,21.712-7.716,15.445,1.59,12.5-21.1,25.642-41.268,6.873-.5,16.516-1.03,27.432-1.136,21.6-.2,28.293,7.254,31.543,14.711s17.4,15.952,30.965,15.952q.988,0,1.82.024c.756.025,1.415.065,2,.122a.752.752,0,0,1,.142.016C2684.684-5066.721,2685.111-5065.69,2684.325-5064Z"/><path class="e" d="M2682.483-4950.025a27.435,27.435,0,0,1-1.707,6.378,14.043,14.043,0,0,1-2.785,4.43c-6.177,6.369-1.79,8.227-2.269,13.493a5.772,5.772,0,0,1-.524,2.4v.008a15.98,15.98,0,0,1-1.22,2.743c-5.353,9.737-4.013,25.275-10.13,28.382s-9.561-3.521-16.823,4.139c-6.753,7.124,1.684,17.656-13.514,19.262a59.5,59.5,0,0,0-10.467-7.375c-18.388-10.938-47.347-23.677-34.888-40.213.261-.341.531-.682.823-1.023,3.317-3.911,4.784-7.051,4.844-9.728v-.008c4.1-3.741,7.756-8.755,6.558-14.151-2.485-11.189-8.714-20.926.233-29.632s9.71-6.208,20.027-4.966,13.574,3.521,23.7-5.185c5.8-4.974,10.848-7.035,14.494-7.652a10.689,10.689,0,0,1,4.867.1,3.408,3.408,0,0,1,.711.308c2.1,1.241,5.353,10.767,12.234,13.672C2681.442-4972.622,2684.018-4960.143,2682.483-4950.025Z"/><path class="f" d="M2732.473-4865.672c-7.27.414-9.366,7.87-14.719,12.431s-3.632,20.3-4.785,30.451c-.658,5.867-7.509,9.031-13.177,10.654,1.752-3.327,1.288-6.094-6.693-9.412a29.262,29.262,0,0,1-2.815-1.355c-14.727-7.976-26.87-28.862-22.55-34.834,4.3-5.947,13.5-4.389,15.909-9.371a5.493,5.493,0,0,0,.4-1.12c.315-1.29-.239-3.156-1.355-5.274l-.007-.016c-4.425-8.317-16.2-15.23-21.287-9.51-6.372,7.181-15.07,28.058-27.049,15.076-.262-.284-.539-.56-.831-.836,15.2-1.606,6.761-12.138,13.514-19.262,7.262-7.66,9.358-3.652,15.475-6.76s6.125-16.024,11.478-25.761a15.98,15.98,0,0,0,1.22-2.743v-.008a10.337,10.337,0,0,0,.524-2.4,67.212,67.212,0,0,0,16.411,7.636c9.748,2.9,10.325,26.727,17.4,33.559,6.469,6.256,18.058,7.83,24.527,11.709a13.2,13.2,0,0,1,1.662,1.136,15.431,15.431,0,0,1,3.107,3.042C2740.244-4866.5,2737.8-4865.972,2732.473-4865.672Z"/><path class="e" d="M2771.951-5027.352c-.1.041-.194.082-.292.114-7.839,2.873-18.74,20.48-23.9,30.217-3.7,6.978,2.231,19.7,2.853,26.889a8.593,8.593,0,0,1-.15,2.9,2.933,2.933,0,0,1-2.508,2.321,7.116,7.116,0,0,1-4.507-.9,20.921,20.921,0,0,1-6.469-5.882c-4.515-5.924-7.794-14.435-6.806-20.358,1.722-10.354-6.117-29.625-19.5-41.642-12.383-11.124-6.925-27.741-26.353-30.313.786-1.688.359-2.719-3.332-3.084a.752.752,0,0,0-.142-.016c-.584-.057-1.243-.1-2-.122l-1.236-12.519h0c-.545-5.524,3.659-10.346,8.764-9.845.332.032.671.076,1.014.132a17.13,17.13,0,0,1,5.5,1.907c8.8,4.763,14.914,1.655,15.1,7.456s16.254-1.7,20.649-4.787,18.825,4.831,18.825,7.314c0,2.093,6.331,3.048,14.574,1.855h.007c1.55-.227,3.16-.454,4.822-.649a12.907,12.907,0,0,1,6.663.657c4.126,1.793,4.425,6.159,4.425,8.252,0,2.9,4.971,6,9.943,14.289a7.682,7.682,0,0,1,.441.86C2791.934-5043.993,2779.55-5030.37,2771.951-5027.352Z"/><path class="g" d="M2747.192-5231.735c-.195,4.56-11.665,10.768-17.2,9.737s-5.166-.414-2.486,7.66-4.207,20.309-8.8,15.951-9.553-1.654-13,6.427c-2.149,5.055-.412,6.3,1.76,7.124.045.016.1.033.149.057a8.737,8.737,0,0,1,3.444,1.7c2.291,2.45-1.145,8.527-7.075,8.211s-9.935-8.8-16.052-8.179c-3.638.365-10.953,6.085-16.284,10.654a.4.4,0,0,0,.03-.089,12.6,12.6,0,0,0,.509-2.37c.689-6.15-4.919-7.976-13.124-9.647-7.51-1.526-14.375-20.537-16.629-27.393,12.309-10.216,29.926-13.242,42.631-24.261,17.616-15.27,28.517-31.9,50.873-14.224.285.219.569.454.861.69q.55.45,1.123.876C2739.7-5243.135,2747.334-5235.264,2747.192-5231.735Z"/><path class="c" d="M2849.413-5170.417c2.717,8.633,5.727,17.112,1.834,21.088a6.409,6.409,0,0,1-1.834,1.29,31.509,31.509,0,0,1-3.242,1.323c-5.226,1.841-9.86,2.45-12.241,7.789-2.868,6.426-1.722,16.78-8.026,13.883s-12.616-1.866-12.616,6c0,7.36-11.035,16.35-26.84,5.972,1.52-3.253,3.361-6.71,4.282-10.524a6.965,6.965,0,0,0-.022-4.43v-.008c-1.37-3.205-6.109-2.832-5.525-10.792.763-10.459-4.972-10.256-13.185-16.471-7.622-5.761-7.833-8.731-7.96-14.743,1.3-.869,10.976-8.756,12.054-9.778a207.819,207.819,0,0,1,16.742-14.215c4.964-3.936,10.512-7.879,17.969-6.215s19.877.413,24.272-3.108a8.369,8.369,0,0,1,2.276-1.177h.008a36.211,36.211,0,0,1,5.315-1.338c2.4,4.357,6.477,10.734,9.988,11C2858.015-5194.443,2846.358-5180.154,2849.413-5170.417Z"/><path class="c" d="M2936.244-5048.813a16.072,16.072,0,0,1-2.082,3.254,21.708,21.708,0,0,1-5.3,4.584h-.007c-8.325,5.217-20.012,5.883-23.2.041-4.4-8.082-8.984-22.168-18.156-11.6-6.558,7.554-9.313,12.138-12.578,13.161a6.111,6.111,0,0,1-4.432-.528,8.6,8.6,0,0,0-1.273-.438c-3.766-.982-10.234-.625-15.482-.081,2.485-1.59,3.938-3.335,3.369-5.485-1.086-4.122-5.75-5.769-10.108-7.181-3.3-1.071-6.423-2.012-7.666-3.8-2.838-4.106-5.114-14.289,11.455-28.367.164-.146.337-.284.509-.43,17.122-14.3,16.134-24.65,14.03-29.211s2.868-17.193-.951-21.55c-2.695-3.067-1.684-6.443-2-8.747,1.73-.771,3.429-1.85,4.088-3.262,1.543-3.318,1.543-6.84,9.187-2.491,6.9,3.927,8.669,7.181,16.4,7.319.15.008.307.008.465.008q1.044,0,2.246-.073c10.13-.625,11.851,15.538,9.179,25.275-2.284,8.293,1.819,23.06,6.393,23.782a2.68,2.68,0,0,0,2.4-1c1.655-1.728,3.691-.827,5.563,1.339,4.193,4.836,16.279,16.68,12.715,18.83-5.166,3.107-6.426,2.21-3.364,9.869S2941.784-5060.408,2936.244-5048.813Z"/><path class="f" d="M2916.171-4970.878a9.409,9.409,0,0,0-5.353,2.239c-4.537,4.536-18.582,1.014-32.763,6-.741.251-1.474.535-2.216.843a25.284,25.284,0,0,1-5.817,1.859c-4.013.568-3.661-2.329-5.293-6.037a14.873,14.873,0,0,0-6.476-7.011c-12.234-7.245-14.914,4.763-26-3.724-3.16-2.418-5.413-4.146-7.031-5.388.135-.081.248-.146.345-.211,1.273-.827,1.527-4.049.531-8.56a45.643,45.643,0,0,0-2.448-7.595c-3.436-8.292,3.631-10.15,2.68-14.5s8.026-7.051,8.79-10.573c.517-2.377,5.638-7.757,5.346-10.767v-.008c4.754-2.158,9.927-3.992,13.244-6.1a.028.028,0,0,0,.023-.008c5.248-.544,11.716-.9,15.482.081a8.6,8.6,0,0,1,1.273.438,6.111,6.111,0,0,0,4.432.528c1.191,2.742,3.048,5.59,5.7,6.1,5.353,1.039,5.54,13.47,5.54,20.31s8.034,14.7,17.205,15.53c5.308.487,11.058,4.422,15.408,9.307a30.888,30.888,0,0,1,6.267,10.215c.119.333.217.665.307.99C2926.982-4970.846,2921.3-4971.657,2916.171-4970.878Z"/><path class="c" d="M2960.239-5187.035a1.362,1.362,0,0,0-.09-.114c-.052-.056-.1-.121-.142-.178h.007a2.165,2.165,0,0,1,.143.178C2960.179-5187.116,2960.209-5187.076,2960.239-5187.035Z"/><path class="d" d="M3006.171-5123.608c-.007.455-.007.933-.015,1.436-.03,1.428-.067,3.084-.142,5a15.808,15.808,0,0,1-1.288,6.215c-.1.219-.209.422-.329.625-2.448,4.268-7.465,4.324-13.679,1.03-8.6-4.56-11.088-3.935-13.955,2.069s-31.535,9.737-37.652,11.157c-3.7.86-6.356-.9-10.032-2.653a26.731,26.731,0,0,0-9.089-2.7c-5.915-.625-8.521,3.472-9.659,6.8-4.574-.722-8.677-15.489-6.393-23.782,2.672-9.737.951-25.9-9.179-25.275q-1.2.073-2.246.073c-.158,0-.315,0-.465-.008a34.422,34.422,0,0,1,2.456-6.938c2.92-6.231,7.217-11.984,9.366-15.294,3.317-5.112,26.639-.552,35.174-4.56.277-.13.546-.252.816-.366a28.294,28.294,0,0,1,6.858-1.931h.007c4.126,3.14,10.2,8.179,13.222,15.555,5.091,12.431,10.953,8.43,17.2,14.224a12.566,12.566,0,0,0,7.383,3.237,11.923,11.923,0,0,0,1.325.081c4.814.1,9.62-1.988,11.941-4.836,3.714-4.551,6.821,6.11,1.745,11.668a5.414,5.414,0,0,1-.472.487,3.563,3.563,0,0,0-.4.438,3.245,3.245,0,0,0-.307.463,2.363,2.363,0,0,0-.09,2.126,4.894,4.894,0,0,0,1.078,1.59h.008A20.468,20.468,0,0,0,3006.171-5123.608Z"/><path class="c" d="M3070.686-5051.085c-.959,5.055-1.8,10.467-2.5,16.058-.075.624-.15,1.249-.224,1.882-16.067.779-21.473-12.666-28.308-3.651-7.068,9.315-6.881,7.254-12.616-1.242-.075-.113-.15-.227-.217-.34,7.734-2.4,11.163-1.639.03-5.25-.779-.251-1.535-.471-2.269-.674-1.422-7.619,1.086-16.439-.98-22.532-2.681-7.871-11.665-23-11.283-30.663a10.337,10.337,0,0,0-1.018-4.682,31.15,31.15,0,0,0-6.574-8.779,15.808,15.808,0,0,0,1.288-6.215c.075-1.915.112-3.571.142-5,.008-.5.008-.981.015-1.436,4.979,2,10.983,3.116,14.053,2.223,6.626-1.931,19.242.828,16.561-6.077s2.426-1.168,13.259,6.386a14.448,14.448,0,0,0,4.859,2.182,18.568,18.568,0,0,0,5.226.5,30.66,30.66,0,0,0,8.663-1.777c.135-.048.262-.089.389-.137q.774,1.764,1.505,3.488C3077.566-5100.532,3077.057-5084.791,3070.686-5051.085Z"/><path class="c" d="M3026.82-5038.378a41.719,41.719,0,0,0-13.356,6.767c-14.143,10.978-4.583,19.06.958,32.107s11.469,10.564,11.088,26.313a33.5,33.5,0,0,1-.569,5.786c-.023.113-.045.227-.068.341-.95,4.316-2.912,6.223-5.8,6.637a7.172,7.172,0,0,1-1.041.089c-3.069.089-7.037-1.184-11.829-2.913-12.039-4.349-13.379-2.9-20.454-8.081s-11.657-6.216-20.641-12.845c-7.944-5.866-11.583,6.437-21.413-6.918.434-2.743,3.437-13.813,2.868-17.935-1.3-9.4,2.934-13.956,4.551-17.3,4.875.422,10.789.252,11.126-3.01.577-5.591,12.616-9.112,18.156-6.208s13.192,2.889,17.587-1.249c4.2-3.944,11.507-11.473,26.6-7.506.734.2,1.49.423,2.269.674C3037.983-5040.017,3034.554-5040.78,3026.82-5038.378Z"/><path class="c" d="M3027.427-4967.462l-2.554.4c.023-.114.045-.228.068-.341A22.6,22.6,0,0,1,3027.427-4967.462Z"/><path class="d" d="M2958.24-4899.524c-1.026,1.574-2.186,2.962-3.077,4.228-1.8,2.564-8.932,4.049-16.149,5.006-.831.106-1.67.211-2.5.309-4.14.486-8.108.819-10.878,1.1a51.879,51.879,0,0,1-6.6.422h-.008c-.172-.008-.329-.008-.494-.025-5.226-.267-9.86-2.6-13.454-12-5.158-13.461-6.5-4.349-9.561-16.78s-9.935-17.81-13.566-31.076c-1.595-5.826-2.9-10.687-3.9-14.305,14.181-4.983,28.226-1.461,32.763-6a9.409,9.409,0,0,1,5.353-2.239c3.28,2.8,7.689,6.661,12.234,11.011,9.171,8.763,4.2,18.159,15.865,20.65s5.734,13.461,13,23.619a17.3,17.3,0,0,1,3.174,6.9A12.237,12.237,0,0,1,2958.24-4899.524Z"/><path class="e" d="M2868.569-4867.124c-.254,1.558-.456,3.237-.733,4.852a16.8,16.8,0,0,1-1.677,5.5,5.007,5.007,0,0,1-4.852,2.694c-6.117-.2-6.693-.828-18.732,2.28a15.073,15.073,0,0,1-5.667.455,11.028,11.028,0,0,1-1.183-.212c-7.09-1.647-9.943-9.7-8.446-16.917,1.917-9.218-3.436-18.752-10.317-25.17a26,26,0,0,1-4.507-5.655c3.167-2.329,2.374-8.317,1.206-15.239v-.007a106.182,106.182,0,0,1-1.767-13.283c-.479-12.634-2.007-22.581-1.43-33.771.284-5.59,1-11.383,1.647-15.781a40.6,40.6,0,0,0,13.109-4.723c1.618,1.242,3.871,2.97,7.031,5.388,11.088,8.487,13.768-3.521,26,3.724a14.873,14.873,0,0,1,6.476,7.011c1.632,3.708,1.28,6.6,5.293,6.037-1.153,8.276-2.912,18.386-3.362,23-.763,7.871-7.075,3.31-3.631,12.285s-2.485,4.081-.958,11.489-2.1,28.431-2.1,35.263S2869.528-4872.926,2868.569-4867.124Z"/><path class="f" d="M2812.455-4899.3a5.128,5.128,0,0,1-2.118.892c-8.476,1.655-10.58-10.986-12.107,6.418s5.346,21.129-11.47,24.862c-2.111.47-3.953.892-5.563,1.249a46.015,46.015,0,0,1-7.539,1.347c-4.065.187-4.724-1.947-6.588-8.4-1.61-5.542-5.9-8.974-9.613-10.986a139.022,139.022,0,0,1,1.4-14.589v-.008c.891-6.986,1.781-14.127,1.235-18.857-1.048-9.007,2.965-14.4,2.1-19.052s4.679-16.163-4.3-17.2a47.616,47.616,0,0,1-11.919-3.172c.771-.852.958-1.574.449-2.11a12.824,12.824,0,0,1-2.972-6.905,7.116,7.116,0,0,0,4.507.9,2.933,2.933,0,0,0,2.508-2.321c7.359,3.148,1.13-8.739,18.328-4.933,17.774,3.935,17.587-5.59,31.347-4.552a45.863,45.863,0,0,0,8.161-.114c1.333-.13,2.6-.316,3.811-.551-.644,4.4-1.363,10.191-1.647,15.781-.577,11.19.951,21.137,1.43,33.771a106.182,106.182,0,0,0,1.767,13.283v.007C2814.829-4907.613,2815.622-4901.625,2812.455-4899.3Z"/><path class="c" d="M3059.194-4844.381c-1.266-2.3-7.166-3.838-18.583-10.11-14.72-8.073-22.558-8.487-37.465-6.215s-26.189-5.38-39.186-5.591c-7.921-.121-13.214-.405-15.625.617-1.355.568-1.8,1.55-1.28,3.205-3.572-2.735-2.928-5.647-1.273-8.463.9-1.533,2.1-3.043,3.077-4.471,3.249-4.771-3.631-4.146-6.117-9.534a21.253,21.253,0,0,0-3.728-5.347c7.217-.957,14.345-2.442,16.149-5.006.891-1.266,2.051-2.654,3.077-4.228,8.55.552,19.825,1.656,27.889,3.814,5.548,1.485,8.842,1.615,11.006,1.46,1.28-.089,2.171-.267,2.9-.332,1.295-.106,2.081.195,3.684,2.183,4.02,4.973,19.885-.828,36.318-1.242,9.554-.243,15.109,1.55,18.081,3.091-6.191-.308-11.657,2.784-3.743,7.887,8.033,5.177,4.432,4.763,5.083,12.22s4.283,4.771,6.581,12.641C3067.257-4853.615,3063.229-4848.373,3059.194-4844.381Z"/><path class="d" d="M3066.8-4920.368c2.718,8.511-2.441,23.506-4.724,29.421a11.043,11.043,0,0,1-3.691.414c-.09-.009-.18-.009-.27-.017-2.972-1.541-8.527-3.334-18.081-3.091-16.433.414-32.3,6.215-36.318,1.242-1.6-1.988-2.389-2.289-3.684-2.183-.726.065-1.617.243-2.9.332-.2-5.476,2.71-9.42,6.551-13.688,1.033-1.144,2.126-2.3,3.241-3.521,3.489-3.814,3.107-7.335.652-10.695-2.172-2.985-5.982-5.834-10.168-8.649-.067-.041-.127-.089-.194-.13-8.984-6-4.4-8.7,4.589-9.112s9.367-5.8,13.192-9.947c.1-.114.2-.236.307-.366,1.468-1.915,2.755-5.939,3.766-10.069,2.89-.414,4.852-2.321,5.8-6.637l2.554-.4a22.234,22.234,0,0,1,11.844,3.8,32.708,32.708,0,0,0,6.85,3.757c4.418,1.655,8.236,1.266,14.367.041.016,0,.038-.008.053-.008a38.688,38.688,0,0,1-2.343,9.883c-3.063,7.253,14.337,2.9,13.955,11.189S3063.356-4931.136,3066.8-4920.368Z"/><path class="c" d="M2960.157-5187.149h-.008c-.052-.056-.1-.121-.142-.178h.007A2.165,2.165,0,0,1,2960.157-5187.149Z"/><path class="c" d="M3016.713-5204c-3.122,1.347-6.746,3.237-8.378,5.33-3.152,4.042-5.443,4.763-10.032,1.039a6.256,6.256,0,0,0-1.52-.949,2.988,2.988,0,0,0-4.073,1.192,2.89,2.89,0,0,0,.239,3.376c2.007,2.077.667,7.254-3.533,4.974s-4.111-3.935-10.707-3.935c-.329,0-.644,0-.958-.017-6.027-.138-9.7-1.476-10.706,1.672a4.019,4.019,0,0,1-1.932,2.044c-.09.049-.187.106-.3.163a25.769,25.769,0,0,1-3.092,1.225l-.075.025c-.068.024-.143.048-.21.072-.479.163.544,2.765.088,2.911-.045-.057-1.578-2.537-1.578-2.537s-4.7-7.6-3.7-13.656c1.4-8.43-20.26-33.844-28.039-37.016-4.252-1.744-7.973-9.964-9.441-9.648a20.458,20.458,0,0,1,3.931-8.317c19.5-7.253,12.421-21.964,19.69-21.753s15.289-6.426,24.467-6.629,29.626,26.305,37.847,47.645,0,17.405,6.88,25.478a36.832,36.832,0,0,1,4.934,6.93C3016.586-5204.253,3016.645-5204.123,3016.713-5204Z"/><path class="f" d="M3068.792-5120.176a30.66,30.66,0,0,1-8.663,1.777c-1.49-.138-3.226-.308-5.226-.5a14.448,14.448,0,0,1-4.859-2.182c-10.833-7.554-15.932-13.291-13.259-6.386s-9.935,4.146-16.561,6.077c-3.07.893-9.074-.227-14.053-2.223a20.468,20.468,0,0,1-6.82-4.073h-.008a4.894,4.894,0,0,1-1.078-1.59,3.823,3.823,0,0,1,.187-2.167c-.03.017-.067.024-.1.041a3.245,3.245,0,0,1,.307-.463,3.563,3.563,0,0,1,.4-.438,5.414,5.414,0,0,0,.472-.487c5.076-5.558,1.969-16.219-1.745-11.668-2.321,2.848-7.127,4.934-11.941,4.836.112-.113.224-.227.337-.332a8.6,8.6,0,0,1-1.662.251,12.566,12.566,0,0,1-7.383-3.237c-6.244-5.794-12.106-1.793-17.2-14.224-3.025-7.376-9.1-12.415-13.222-15.555,1.7-.268,3.145-.389,4.3-.649h.008c1.684-.365,2.77-1,3.174-2.718,1.018-4.414,13-2.621,9.044-7.319-.344-.405-.689-.811-1.033-1.225l-.292-.341-.472-.56c-.082-.1-.157-.194-.247-.292-.3-.365-.254-1.809.225-1.972.067-.024.142-.048.21-.072l.075-.025a25.769,25.769,0,0,0,3.092-1.225c.112-.057.209-.114.3-.163a4.019,4.019,0,0,0,1.932-2.044c1-3.148,4.679-1.81,10.706-1.672.314.017.629.017.958.017,6.6,0,6.5,1.655,10.707,3.935s5.54-2.9,3.533-4.974a2.89,2.89,0,0,1-.239-3.376,2.988,2.988,0,0,1,4.073-1.192,6.256,6.256,0,0,1,1.52.949c4.589,3.724,6.88,3,10.032-1.039,1.632-2.093,5.256-3.983,8.378-5.33,1.2,2.434,1.534,4.227,3.855,7.814,4.013,6.215,7.076,4.146,9.561,14.507s6.5,6.63,12.234,15.742,9.366,20.1,17.774,23.619,8.033,15.539,8.6,20.5A7.842,7.842,0,0,1,3068.792-5120.176Z"/><path class="c" d="M2960.239-5187.035a1.362,1.362,0,0,0-.09-.114c-.052-.056-.1-.121-.142-.178h.007a2.165,2.165,0,0,1,.143.178C2960.179-5187.116,2960.209-5187.076,2960.239-5187.035Z"/><path class="f" d="M3019.071-4960.427c-1.011,4.13-2.3,8.154-3.766,10.069-.1.13-.2.252-.307.366-3.825,4.146-4.208,9.533-13.192,9.947s-13.573,3.108-4.589,9.112c.067.041.127.089.194.13,4.186,2.815,8,5.664,10.168,8.649,2.455,3.36,2.837,6.881-.652,10.695-1.115,1.217-2.208,2.377-3.241,3.521-3.841,4.268-6.746,8.212-6.551,13.688-2.164.155-5.458.025-11.006-1.46-8.064-2.158-19.339-3.262-27.889-3.814a12.237,12.237,0,0,0,2.2-9.177,17.3,17.3,0,0,0-3.174-6.9c-7.263-10.158-1.34-21.136-13-23.619s-6.694-11.887-15.865-20.65c-4.545-4.35-8.954-8.212-12.234-11.011,5.129-.779,10.811.032,9.172-6.045-.09-.325-.188-.657-.307-.99,4.462-1.095,9.635-3,12.735-6.264a48.431,48.431,0,0,0,6.252-7.431,5,5,0,0,1,7.985-.789c5.154,5.389,6.89,3.636,13.1,8.22,8.984,6.629,13.573,7.668,20.641,12.845s8.415,3.732,20.454,8.081c4.792,1.729,8.76,3,11.829,2.913A7.172,7.172,0,0,0,3019.071-4960.427Z"/><path class="g" d="M2790.391-5123.592c-.92,3.814-2.762,7.271-4.282,10.524-1.947,4.171-3.362,8.009-1.647,11.847,3.062,6.832-8.6,10.775-9.748,19.676-.039.3-.08.6-.123.892a4.63,4.63,0,0,1-4.63,4.175,18.3,18.3,0,0,0-3.086.118c-1.662.195-3.272.422-4.822.649h-.007c-8.243,1.193-12.91,2.413-14.472.381-1.467-1.907-14.532-12.633-18.927-9.55s-20.454,10.589-20.649,4.787-6.3-2.693-15.1-7.456a17.13,17.13,0,0,0-5.5-1.907c2.246-3.327,1.767-6.313.158-11.563-2.3-7.456-9.561-2.9-5.736-15.116,1.715-5.5,2.351-9.745,1.73-13.859V-5130a23.866,23.866,0,0,0-2.164-6.807c1.408-.366,3.736-.041,7.539,1.817,11.051,5.388,9.524,11.6,19.272,11.393s18.545-1.031,23.509-11.182,7.457-19.271,13.192-21.753c4.623-2,10.488-4.409,13.593-8.964a7.22,7.22,0,0,1,4.714-3.236,23.018,23.018,0,0,0,2.822-.643c3-.878,5.449,2.635,3.949,5.586-1.472,2.9-1.939,5.757,1.687,8.5,8.213,6.215,13.948,6.012,13.185,16.471-.584,7.96,4.155,7.587,5.525,10.792v.008A6.965,6.965,0,0,1,2790.391-5123.592Z"/><path class="f" d="M2842.336-5205.867a36.2,36.2,0,0,0-5.316,1.338h-.008a8.367,8.367,0,0,0-2.276,1.177c-4.394,3.521-16.823,4.763-24.272,3.108s-13.005,2.279-17.969,6.215-7.075,10.767-14.532,17.81a27.027,27.027,0,0,1-3.593,2.856c-4.4,2.986-9.786,4.974-14.383,4.86-3.421-.081-6.4-1.322-8.213-4.194-4.971-7.871-15.288-4.552-26.376-9.323-7.442-3.2-13.679-3.408-17.782-2.759-.052-.024-.1-.041-.149-.057-2.172-.828-3.909-2.069-1.76-7.124,3.444-8.081,8.415-10.775,13-6.427s11.47-7.87,8.8-15.951-3.062-8.7,2.486-7.66,17.01-5.177,17.2-9.737c.142-3.529-7.494-11.4-9.269-17.08,22.993,17.251,58.743-2.677,72.286,5.477,10.5,6.321,11.058,13.932,20.477,18.654h.007a32.822,32.822,0,0,0,6.958,2.48,10.786,10.786,0,0,1,6.049,4.073c1.944,2.609,5.256,4.655,7.381,7.54C2854.975-5205.3,2848.392-5207.028,2842.336-5205.867Z"/><path class="e" d="M2954.212-5176.081c-.4,1.72-1.49,2.353-3.174,2.718h-.008c-1.16.26-2.6.381-4.3.649h-.007a28.294,28.294,0,0,0-6.858,1.931c-.27.114-.539.236-.816.366-8.535,4.008-31.857-.552-35.174,4.56-2.149,3.31-6.446,9.063-9.366,15.294a34.422,34.422,0,0,0-2.456,6.938c-7.734-.138-9.5-3.392-16.4-7.319-7.644-4.349-7.644-.827-9.187,2.491-.659,1.412-2.358,2.491-4.088,3.262a2.634,2.634,0,0,0-1.445-2.231c-1.871-.95-6.453-1.566-10.017-1.907,3.893-3.976.883-12.455-1.834-21.088-3.055-9.737,8.6-24.026,3.249-24.448-3.511-.268-7.592-6.645-9.987-11,6.056-1.161,12.256-1.745,6.932-4.017-4.335-1.842-9-7.307-9.818-11.7.112.024,3.013.321,3.125.337,0,0,10.452,1.112,15.55-12.422s31.6-8.568,59.379-13.818c.434-.081.861-.17,1.265-.252,1.468-.316,5.189,7.9,9.441,9.648,7.779,3.172,29.439,28.586,28.039,37.016-1,6.061,3.7,13.656,3.7,13.656s.023.032.067.089h-.007c.045.057.09.122.142.178a1.362,1.362,0,0,1,.09.114c.03.041.06.081.09.114.284.373.584.738.883,1.1.09.1.165.195.247.292l.472.56.292.341c.344.414.689.82,1.033,1.225C2967.209-5178.7,2955.23-5180.5,2954.212-5176.081Z"/><path class="e" d="M3024.581-5044.3c-15.093-3.967-22.4,3.562-26.6,7.506-4.4,4.138-12.039,4.146-17.587,1.249s-17.579.617-18.156,6.208c-.337,3.262-6.251,3.432-11.126,3.01.772-1.59.951-2.913-.344-4.349-4.013-4.455-.576-15.027-9.561-14.192a15.873,15.873,0,0,1-7.045-.689,16.072,16.072,0,0,0,2.082-3.254c5.54-11.6-5.548-9.112-8.6-16.78s-7.992-4.835-5.353-10.564c1.9-4.114.195-13.3-4-18.135-1.872-2.166-3.908-3.067-5.563-1.339a2.68,2.68,0,0,1-2.4,1c1.138-3.327,3.744-7.424,9.659-6.8a26.731,26.731,0,0,1,9.089,2.7c3.676,1.752,6.333,3.513,10.032,2.653,6.117-1.42,34.784-5.144,37.652-11.157s5.353-6.629,13.955-2.069c6.214,3.294,11.231,3.238,13.679-1.03.12-.2.224-.406.329-.625a31.15,31.15,0,0,1,6.574,8.779,10.337,10.337,0,0,1,1.018,4.682c-.382,7.668,8.6,22.792,11.283,30.663C3025.667-5060.741,3023.159-5051.921,3024.581-5044.3Z"/><path class="h" d="M2689.79-5236.667h-1.738v-39.11a2.726,2.726,0,0,1,2.607-2.825H2784.4v1.883h-93.744a.909.909,0,0,0-.869.942Z"/><path class="h" d="M2647.746-5143.408h-1.738v-24.962a.908.908,0,0,0-.869-.941h-73.468v-1.884h73.468a2.725,2.725,0,0,1,2.607,2.825Z"/><path class="h" d="M2745.2-5120.058h-1.738V-5146.5a2.725,2.725,0,0,1,2.607-2.825h92.1v1.883h-92.1a.908.908,0,0,0-.869.942Z"/><path class="h" d="M2592.5-5007.907h-1.738v-14.1a2.725,2.725,0,0,1,2.607-2.825h103.49v1.884H2593.37a.909.909,0,0,0-.869.941Z"/><path class="h" d="M2610.143-5062.453h-1.738v-11.068a2.726,2.726,0,0,1,2.607-2.825H2700.5v1.884h-89.492a.908.908,0,0,0-.869.941Z"/><path class="b" d="M2688.907-5246.75c6.111.3,10.1,7.116,8,13.337l-1.2,3.559-4.7,13.889a2.623,2.623,0,0,1-5.05,0l-4.7-13.889-1.2-3.556c-2.106-6.223,1.885-13.041,8-13.34.144-.007.288-.01.434-.01S2688.763-5246.757,2688.907-5246.75Z"/><ellipse class="h" cx="3.678" cy="3.984" rx="3.678" ry="3.984" transform="translate(2684.794 -5240.651)"/><rect class="h" width="107.23" height="36.764" rx="16.621" transform="translate(2732.219 -5296.042)"/><path class="b" d="M2749.278-5274.911l.807-1.98a4.8,4.8,0,0,0,2.453.737c.712,0,.966-.161.966-.437,0-1.013-4.109-.2-4.109-3.2,0-1.5,1.158-2.716,3.462-2.716a5.537,5.537,0,0,1,2.8.7l-.755,1.968a4.306,4.306,0,0,0-2.071-.6c-.732,0-.966.23-.966.506,0,.967,4.11.161,4.11,3.131,0,1.473-1.157,2.716-3.462,2.716A6.246,6.246,0,0,1,2749.278-5274.911Z"/><path class="b" d="M2762.424-5275.67H2759.6l-.5,1.4h-2.549l3.249-8.057h2.464l3.25,8.057h-2.591Zm-.691-1.957-.722-2.026-.722,2.026Z"/><path class="b" d="M2768.166-5280.217h-2.176v-2.106h6.86v2.106h-2.177v5.951h-2.507Z"/><path class="b" d="M2774.069-5277.892v-4.431h2.506v4.351c0,1.231.436,1.691,1.136,1.691s1.137-.46,1.137-1.691v-4.351h2.464v4.431c0,2.417-1.339,3.81-3.622,3.81S2774.069-5275.475,2774.069-5277.892Z"/><path class="b" d="M2793.553-5274.266l-.021-3.672-1.614,2.946h-1.1l-1.614-2.819v3.545h-2.283v-8.057h2.06l2.421,4.293,2.358-4.293h2.06l.021,8.057Z"/><path class="b" d="M2802.747-5275.67h-2.824l-.5,1.4h-2.548l3.249-8.057h2.464l3.249,8.057h-2.591Zm-.69-1.957-.722-2.026-.722,2.026Z"/><path class="b" d="M2810.062-5276.292h-.68v2.026h-2.506v-8.057h3.579c2.071,0,3.387,1.174,3.387,3.039a2.734,2.734,0,0,1-1.4,2.532l1.561,2.486h-2.677Zm.233-3.936h-.913v1.888h.913c.69,0,1.02-.357,1.02-.944S2810.985-5280.228,2810.295-5280.228Z"/><path class="b" d="M2821.6-5276.315v2.049h-6.181v-8.057h6.043v2.049h-3.579v.944h3.143v1.956h-3.143v1.059Z"/><rect class="h" width="98.272" height="33.692" rx="15.926" transform="translate(2652.451 -5040.716)"/><path class="g" d="M2671.165-5026.185H2669.2v-1.9h6.188v1.9h-1.963v5.368h-2.261Z"/><path class="g" d="M2676.547-5028.085h2.261v7.268h-2.261Z"/><path class="g" d="M2686.461-5020.817l-.019-3.312-1.456,2.658h-1l-1.457-2.544v3.2h-2.059v-7.268h1.858l2.185,3.873,2.126-3.873h1.859l.019,7.268Z"/><path class="g" d="M2690.185-5028.085h2.262v7.268h-2.262Z"/><path class="g" d="M2693.691-5021.4l.728-1.785a4.33,4.33,0,0,0,2.213.664c.642,0,.871-.145.871-.394,0-.914-3.707-.177-3.707-2.887,0-1.349,1.045-2.45,3.123-2.45a5,5,0,0,1,2.53.633l-.681,1.776a3.882,3.882,0,0,0-1.868-.54c-.661,0-.872.208-.872.457,0,.872,3.708.145,3.708,2.824,0,1.329-1.044,2.45-3.123,2.45A5.635,5.635,0,0,1,2693.691-5021.4Z"/><path class="g" d="M2700.712-5024.451a3.672,3.672,0,0,1,3.783-3.8,3.673,3.673,0,0,1,3.784,3.8,3.673,3.673,0,0,1-3.784,3.8A3.673,3.673,0,0,1,2700.712-5024.451Zm5.288,0c0-1.132-.671-1.817-1.5-1.817s-1.5.685-1.5,1.817.671,1.817,1.5,1.817S2706-5023.319,2706-5024.451Z"/><path class="g" d="M2714.246-5022.084H2711.7l-.451,1.267h-2.3l2.931-7.268h2.223l2.931,7.268H2714.7Zm-.623-1.765-.652-1.827-.651,1.827Z"/><path class="g" d="M2720.844-5022.644h-.613v1.827h-2.261v-7.268h3.228c1.869,0,3.056,1.059,3.056,2.741a2.463,2.463,0,0,1-1.264,2.284l1.408,2.243h-2.414Zm.211-3.551h-.824v1.7h.824c.622,0,.919-.322.919-.852S2721.677-5026.195,2721.055-5026.195Z"/><path class="g" d="M2730.249-5022.084H2727.7l-.45,1.267h-2.3l2.931-7.268h2.223l2.931,7.268H2730.7Zm-.622-1.765-.652-1.827-.651,1.827Z"/><rect class="h" width="90.902" height="31.166" rx="14.537" transform="translate(2524 -5185.128)"/><path class="g" d="M2542.308-5170.083a4.118,4.118,0,0,1,4.243-4.26,4.117,4.117,0,0,1,4.242,4.26,4.118,4.118,0,0,1-4.242,4.261A4.119,4.119,0,0,1,2542.308-5170.083Zm5.929,0c0-1.268-.752-2.037-1.686-2.037s-1.687.769-1.687,2.037.752,2.037,1.687,2.037S2548.237-5168.814,2548.237-5170.083Z"/><path class="g" d="M2555.581-5168.057h-.687v2.048h-2.535v-8.148h3.619c2.095,0,3.426,1.187,3.426,3.073a2.764,2.764,0,0,1-1.417,2.561l1.579,2.514h-2.707Zm.236-3.981h-.923v1.909h.923c.7,0,1.031-.361,1.031-.955S2556.516-5172.038,2555.817-5172.038Z"/><path class="g" d="M2566.126-5167.429h-2.856l-.505,1.42h-2.578l3.286-8.148h2.492l3.286,8.148h-2.62Zm-.7-1.979-.73-2.048-.73,2.048Z"/><path class="g" d="M2570.3-5174.157h3.705a3.905,3.905,0,0,1,4.243,4.074,3.905,3.905,0,0,1-4.243,4.074H2570.3Zm3.6,6.007a1.728,1.728,0,0,0,1.794-1.933,1.727,1.727,0,0,0-1.794-1.932h-1.063v3.865Z"/><path class="g" d="M2586.066-5168.08v2.071h-6.251v-8.148h6.111v2.072h-3.619v.955h3.179v1.978h-3.179v1.072Z"/><path class="g" d="M2592.81-5167.429h-2.858l-.5,1.42h-2.578l3.287-8.148h2.491l3.287,8.148h-2.621Zm-.7-1.979-.731-2.048-.73,2.048Z"/><rect class="h" width="111.169" height="34.727" rx="16.18" transform="translate(2783.554 -5165.223)"/><path class="g" d="M2800.223-5148.458a3.489,3.489,0,0,1,3.587-3.65,3.377,3.377,0,0,1,2.89,1.4l-1.371,1.326a1.709,1.709,0,0,0-1.408-.817,1.54,1.54,0,0,0-1.508,1.745,1.539,1.539,0,0,0,1.508,1.744,1.709,1.709,0,0,0,1.408-.817l1.371,1.326a3.375,3.375,0,0,1-2.89,1.4A3.489,3.489,0,0,1,2800.223-5148.458Z"/><path class="g" d="M2807.875-5151.948h2.171v5.155h2.908v1.824h-5.079Z"/><path class="g" d="M2814.047-5148.109v-3.839h2.171v3.769c0,1.067.377,1.465.984,1.465s.985-.4.985-1.465v-3.769h2.135v3.839c0,2.094-1.16,3.3-3.138,3.3S2814.047-5146.015,2814.047-5148.109Z"/><path class="g" d="M2821.121-5145.846l1.168-1.5c.34.459.662.688,1.021.688.451,0,.7-.3.7-.867v-2.652h-2.19v-1.775h4.334v4.287c0,1.915-.929,2.852-2.659,2.852A2.906,2.906,0,0,1,2821.121-5145.846Z"/><path class="g" d="M2827.586-5148.7h2.76v1.7h-2.76Z"/><path class="g" d="M2838.183-5151.948v6.979H2836.4l-2.446-3.17v3.17h-2.117v-6.979h1.785l2.447,3.17v-3.17Z"/><path class="g" d="M2844.171-5146.185h-2.447l-.433,1.216h-2.208l2.815-6.979h2.135l2.815,6.979H2844.6Zm-.6-1.695-.626-1.755-.625,1.755Z"/><path class="g" d="M2853.783-5149.316c0,1.616-1.14,2.632-2.935,2.632h-.929v1.715h-2.172v-6.979h3.1C2852.643-5151.948,2853.783-5150.931,2853.783-5149.316Zm-2.19,0c0-.508-.285-.818-.883-.818h-.791v1.636h.791C2851.308-5148.5,2851.593-5148.807,2851.593-5149.316Z"/><path class="g" d="M2854.876-5148.458a3.528,3.528,0,0,1,3.634-3.65,3.527,3.527,0,0,1,3.633,3.65,3.527,3.527,0,0,1-3.633,3.649A3.527,3.527,0,0,1,2854.876-5148.458Zm5.079,0c0-1.087-.645-1.745-1.445-1.745s-1.445.658-1.445,1.745.644,1.744,1.445,1.744S2859.955-5147.371,2859.955-5148.458Z"/><path class="g" d="M2863.227-5148.458a3.489,3.489,0,0,1,3.588-3.65,3.376,3.376,0,0,1,2.889,1.4l-1.371,1.326a1.708,1.708,0,0,0-1.408-.817,1.54,1.54,0,0,0-1.508,1.745,1.539,1.539,0,0,0,1.508,1.744,1.708,1.708,0,0,0,1.408-.817l1.371,1.326a3.373,3.373,0,0,1-2.889,1.4A3.489,3.489,0,0,1,2863.227-5148.458Z"/><path class="g" d="M2875.268-5146.185h-2.448l-.431,1.216h-2.208l2.815-6.979h2.134l2.815,6.979H2875.7Zm-.6-1.695-.625-1.755-.626,1.755Z"/><rect class="h" width="78.89" height="30.173" rx="15.08" transform="translate(2647.366 -5089.631)"/><path class="g" d="M2675.723-5072.667h-2.581l-.455,1.282h-2.329l2.969-7.359h2.251l2.968,7.359h-2.367Zm-.63-1.788-.66-1.85-.66,1.85Z"/><path class="g" d="M2682.405-5073.235h-.62v1.85h-2.29v-7.359h3.269c1.892,0,3.095,1.072,3.095,2.775a2.5,2.5,0,0,1-1.281,2.313l1.426,2.271h-2.444Zm.213-3.6h-.833v1.725h.833c.631,0,.932-.326.932-.863S2683.249-5076.831,2682.618-5076.831Z"/><path class="g" d="M2691.93-5072.667h-2.58l-.456,1.282h-2.328l2.968-7.359h2.251l2.968,7.359h-2.367Zm-.63-1.788-.66-1.85-.66,1.85Z"/><path class="g" d="M2695.7-5078.744h3.347a3.527,3.527,0,0,1,3.832,3.679,3.527,3.527,0,0,1-3.832,3.68H2695.7Zm3.25,5.425a1.56,1.56,0,0,0,1.62-1.746,1.56,1.56,0,0,0-1.62-1.745h-.96v3.491Z"/><path class="g" d="M2591.264-5016.393c6.01.294,9.934,7,7.863,13.116l-1.185,3.5-4.622,13.658a2.58,2.58,0,0,1-4.967,0l-4.622-13.658-1.184-3.5c-2.071-6.119,1.853-12.825,7.864-13.119.142-.006.284-.01.427-.01S2591.123-5016.4,2591.264-5016.393Z"/><ellipse class="h" cx="3.617" cy="3.918" rx="3.617" ry="3.918" transform="translate(2587.22 -5010.395)"/><path class="b" d="M2744.712-5128.949c5.389.263,8.907,6.274,7.051,11.76l-1.063,3.139-4.145,12.246a2.313,2.313,0,0,1-4.453,0l-4.145-12.246-1.061-3.136c-1.858-5.487,1.662-11.5,7.052-11.763.126-.007.254-.01.382-.01S2744.586-5128.956,2744.712-5128.949Z"/><ellipse class="h" cx="3.243" cy="3.513" rx="3.243" ry="3.513" transform="translate(2741.086 -5123.572)"/><path class="g" d="M2647.266-5152.426c5.465.267,9.034,6.364,7.151,11.928l-1.078,3.184-4.2,12.421a2.346,2.346,0,0,1-4.517,0l-4.2-12.421-1.076-3.181c-1.884-5.565,1.685-11.664,7.152-11.931q.193-.01.388-.009C2647.008-5152.435,2647.137-5152.432,2647.266-5152.426Z"/><ellipse class="h" cx="3.29" cy="3.563" rx="3.29" ry="3.563" transform="translate(2643.587 -5146.971)"/><path class="b" d="M2609.639-5071.637c5.129.25,8.477,5.972,6.71,11.193l-1.011,2.988-3.945,11.656a2.2,2.2,0,0,1-4.239,0l-3.945-11.656-1.01-2.985c-1.768-5.223,1.582-10.946,6.712-11.2.12-.006.242-.009.364-.009S2609.518-5071.643,2609.639-5071.637Z"/><ellipse class="h" cx="3.087" cy="3.344" rx="3.087" ry="3.344" transform="translate(2606.187 -5066.519)"/></g></svg>