<svg xmlns="http://www.w3.org/2000/svg" width="807" height="604" viewBox="0 0 807 604"><defs><style>.a{fill:#f0fbff;}.b{fill:#d9eff7;}.c,.f{fill:#f9ce69;}.d,.g{fill:#4741a6;}.e{fill:#fff;}.f,.g{font-size:15px;font-family:Montserrat-Black, Montserrat;font-weight:800;letter-spacing:0.06em;}</style></defs><path class="a" d="M2425.68-3452.06v524.04a39.991,39.991,0,0,1-40,39.98h-727a39.991,39.991,0,0,1-40-39.98v-524.04a39.991,39.991,0,0,1,40-39.98h727a40.011,40.011,0,0,1,37.54,26.15,39.524,39.524,0,0,1,2.13,8.65,40.663,40.663,0,0,1,.32,4.32C2425.68-3452.64,2425.68-3452.35,2425.68-3452.06Z" transform="translate(-1618.68 3492.04)"/><path class="b" d="M2356.7-3372.187a36.34,36.34,0,0,1-11.49,2.057c-12.25,0-3.63,4.991-19.514,7.256s-34.936-16.777-47.19-4.081-14.52,6.8-20.873,19.051c-3.906,7.527-13.472,16.257-20.26,21.862-7.5-.862-18.088-5.32-20.034,2.637-6.794-6.128-16.764-13.429-25.5-13.162-14.973.453-21.327,3.628-30.857-3.273-9.255-6.7-24.93-8.42-27.071-.706-8.9-.866-19.381-3.6-14.676-11.9,7.718-13.6,9.077-24.491,20.309-13.6s19.168-4.538,24.162-16.329-16.791-5.9-12.254-16.781,19.06-.906,30.857-4.987,21.78-13.154,6.806-22.679c-7.966-5.067-19-19.791-18.992-28.255,5.865,2.594,21.516,9.013,29.2,7.4,25.863-5.444,38.117,19.047,75.549,11.564s46.284,4.761,61.257,26.529c5.958,8.66,11.378,12.155,16.732,12.017,2.537,6.306,5.723,11.595,9.588,13.38C2370.665-3380.4,2365.017-3375.073,2356.7-3372.187Z" transform="translate(-1618.68 3492.04)"/><path class="b" d="M2217.335-3323.405a12.343,12.343,0,0,0-.316,2.936c0,12.927-6.127,13.606-30.63,23.811s.68,22.448-19.736,38.1-42.2,6.123-57.858-7.337c-7.522-6.47-16.936-5.027-24.681-1.78a17.561,17.561,0,0,1-.5-1.768c-2.039-8.846-14.293-17.008-18.376-25.854-3.919-8.486,7.211-23.878,8.713-31.112,9.757-2.607,19.664-6.213,22.6-10.609,5.447-8.167,5.783.074,20.3,3.928s8.489.607,9.849-7.915c.04-.244,2.472-2.818,2.538-3.045,2.142-7.713,22.488-2.485,31.743,4.212,9.53,6.9,15.884,3.726,30.857,3.273C2200.571-3336.834,2210.541-3329.533,2217.335-3323.405Z" transform="translate(-1618.68 3492.04)"/><path class="b" d="M2253.092-3118.76c-11.569,15.986-4.083,25.507-16.337,24.828s.685,7.3-14.293,10.454-6.8,8.81-18.376,20.609-12.13,26.76-7.425,41.73c3.981,12.674,8.233,20.472-4.509,20.494a.793.793,0,0,1,.022-.089c3.065-11.563-5.785-20.405-13.951-24.49s-13.952-17.684-11.912-34.012-12.934-19.047-14.973-32.316-19.4-17.345-18.039-29.931-6.807-5.781-13.271-14.628-1.7-10.2-17.586-16.666a36.843,36.843,0,0,0-10.721-2.8c.222-2.363-16.164-11.811-16.906-13.831,6.891-2.256,5.141-8.058,14.924-20.448.627-.795,1.24-1.527,1.84-2.216,7.131,4.636,19.594-2.514,27.809,3.281,11.574,8.162,11.447,1.434,22.337-.609s27.507-13.509,43.16-4.668,3.611,16.978,28.115,17.658c18.127.5,23.591,1.151,26.968-6.54,6.22.772,12.436,3.317,9.041,10.831-6.127,13.557,6.127,14.916,12.934,25.121S2264.662-3134.747,2253.092-3118.76Z" transform="translate(-1618.68 3492.04)"/><path class="b" d="M2192.174-3000.734a.793.793,0,0,0-.022.089c-3.022,11.48.333,11.835-11.886,17.941-12.254,6.124-10.21-4.081-24.845,3.06s-18.039,1.021-27.565,5.444-9.188-6.124-21.1-2.043c-7.713,2.643-15.715,5.933-23.259,6.142a14.519,14.519,0,0,0,1.479-10.223c-3.4-16.324,10.21-35.375-12.933-46.259a41.405,41.405,0,0,1-18.635-16.622c3.692-2.767,6.385-7.017,6.385-14.672,0-17.928-7.38-27.005-17.959-24.3a85.432,85.432,0,0,0,11.152-15.152c4.763-8.841-5.447-22.448,0-33.332s12.25,2.038,30.626-12.248c5.532-4.3,7.735-8.664,8.109-12.66a36.843,36.843,0,0,1,10.721,2.8c15.884,6.462,11.121,7.825,17.586,16.666s14.635,2.043,13.271,14.628,15.995,16.667,18.039,29.931,17.017,15.987,14.973,32.316,3.745,29.931,11.912,34.012S2195.239-3012.3,2192.174-3000.734Z" transform="translate(-1618.68 3492.04)"/><path class="b" d="M2124.77-2888.04h-96.72a8.165,8.165,0,0,1,.39-.84c.06-.1.11-.19.17-.29s.13-.21.19-.31a6.769,6.769,0,0,1,.42-.56l.26-.29c.07-.07.13-.13.2-.19.03-.02.05-.05.08-.06a3.13,3.13,0,0,1,.59-.44c.1-.07.21-.13.31-.19a3.536,3.536,0,0,1,.34-.16c.11-.05.23-.1.34-.14s.24-.08.37-.12h.01a1.6,1.6,0,0,1,.21-.05.184.184,0,0,1,.07-.02,2.711,2.711,0,0,1,.41-.09,2.354,2.354,0,0,1,.28-.04c.1-.02.2-.03.3-.05h.04c.1-.01.2-.02.3-.02a2.458,2.458,0,0,1,.28-.02c3.23-.17,7.88.96,14.61,2.08.62.1,1.2.18,1.74.23a14.641,14.641,0,0,0,1.94.07c.13,0,.26-.02.38-.03l.071,0c.119-.01.244-.014.359-.027a6.085,6.085,0,0,0,2.34-.71,2.056,2.056,0,0,0,.31-.2.238.238,0,0,0,.09-.06,1.087,1.087,0,0,0,.18-.14c.12-.09.23-.2.34-.3s.21-.23.31-.35a5.229,5.229,0,0,0,.33-.45,4.817,4.817,0,0,0,.35-.63,7.847,7.847,0,0,0,.313-.806c.074-.206.153-.4.218-.622.118-.408.226-.832.319-1.292.06-.29.12-.6.17-.91.09-.48.16-.98.23-1.49.02-.18.05-.35.07-.53.05-.35.1-.72.14-1.09.03-.19.05-.38.07-.57s.05-.38.08-.57.06-.4.08-.59.05-.4.08-.61c.06-.41.12-.81.19-1.24v-.01c.07-.42.14-.85.22-1.29.05-.27.1-.54.15-.82s.11-.57.17-.86c.02-.11.05-.23.08-.34.05-.23.11-.46.16-.7.11-.48.23-.94.36-1.41q.09-.375.21-.75c.03-.13.07-.26.11-.39s.08-.27.12-.4c.07-.22.14-.45.21-.67.13-.37.25-.74.38-1.11l.3-.78c.24-.64.51-1.3.81-1.96.15-.33.3-.66.46-.99s.32-.67.5-1.01c.08-.17.17-.34.26-.51.19-.35.38-.71.59-1.07.09-.16.18-.31.27-.46.1-.17.2-.35.3-.52.26-.43.54-.87.82-1.31q.5-.765,1.05-1.53c.2-.28.41-.57.62-.85.62-.83,1.21-1.63,1.75-2.4.19-.26.37-.51.54-.76s.34-.5.51-.74c.34-.49.65-.96.95-1.42.75-1.15,1.41-2.22,1.97-3.23q.51-.885.93-1.71c0-.01,0-.01.01-.01q.345-.69.63-1.32a20.879,20.879,0,0,0,1.09-2.94c.05-.18.09-.36.13-.53.03-.14.07-.28.09-.41s.052-.223.074-.331c.013-.066.021-.13.032-.2.033-.215.067-.427.084-.644a4.46,4.46,0,0,0,.05-.72c.02-.32.02-.63.01-.93v-.03a7.059,7.059,0,0,0-.1-.82c-.02-.15-.06-.3-.09-.44h.01c4.84-.51,10.39-.21,13.86,2.97a3.042,3.042,0,0,1,.31.31,10.374,10.374,0,0,1,.9,1.04,8.754,8.754,0,0,1,.75,1.21c.08.15.15.3.22.45a8.743,8.743,0,0,0,.8,1.39c.15.2.3.4.46.58a7.339,7.339,0,0,0,3,2.09,2.807,2.807,0,0,0,.31.11c.31.1.62.19.94.26,4.89,1.11,11.01-1.05,13.8,1.61a5.133,5.133,0,0,1,.38.42,2.019,2.019,0,0,1,.17.24,4.634,4.634,0,0,1,.55,1.14c.07.21.13.45.19.69a12.092,12.092,0,0,1,.16,3.36v.01a55.276,55.276,0,0,0,2.75,20.54c.16.49.33.98.51,1.46v.01c.18.48.36.96.56,1.43l.3.72c.4.95.83,1.87,1.29,2.77v.01c.23.45.47.9.72,1.33.25.45.51.88.76,1.32.27.42.53.84.82,1.25a30.189,30.189,0,0,0,3.74,4.56C2124.24-2888.54,2124.5-2888.29,2124.77-2888.04Z" transform="translate(-1618.68 3492.04)"/><path class="b" d="M2084.98-2980.32a14.567,14.567,0,0,1-1.48,10.22c-.13.24-.26.48-.41.72s-.29.47-.44.7a3.983,3.983,0,0,1-.23.34l-.36.51a.176.176,0,0,1-.04.05c-.09.13-.19.26-.28.39-.09.11-.17.21-.25.31-.14.18-.29.36-.44.54-.12.15-.24.3-.36.44-.25.28-.5.56-.75.83-.33.35-.65.68-.99,1.01v.01c-.19.19-.39.38-.58.57l-.01.01c-.2.18-.39.37-.58.55a5.8,5.8,0,0,1-.44.41c-.05.05-.1.09-.15.14l-.01.01-1.17,1.05-.57.51c-.2.18-.39.34-.59.51s-.38.35-.57.52c-.53.47-1.04.93-1.52,1.38-.18.17-.35.34-.51.5s-.32.32-.46.48c-.12.13-.24.26-.36.38-.02.02-.04.05-.06.07a11.616,11.616,0,0,0-.82,1,3.761,3.761,0,0,0-.38.57,2.2,2.2,0,0,0-.24.41.6.6,0,0,0-.07.14.716.716,0,0,0-.12.25,3.493,3.493,0,0,0-.33,1.04,3.221,3.221,0,0,0,.03,1.38,4.027,4.027,0,0,0,.27.78,4.489,4.489,0,0,0,.29.52c.14.22.28.43.43.64.02.03.04.05.06.08.12.19.26.38.4.57.99,1.38,2.04,2.58,2.91,3.79.25.35.49.7.71,1.05.09.16.18.32.27.47a.3.3,0,0,1,.04.08.4.4,0,0,1,.05.09,9.543,9.543,0,0,1,.48,1.02l.01.01a9.187,9.187,0,0,1,.37,1.19c.03.14.06.29.09.44.04.27.08.54.1.82v.03a9.982,9.982,0,0,1-.144,2.294c-.006.042-.009.083-.016.126-.005.023-.011.047-.016.069-.075.408-.167.828-.294,1.271a20.879,20.879,0,0,1-1.09,2.94q-.285.63-.63,1.32c-.01,0-.01,0-.01.01-.11.21-.22.42-.34.64-.18.34-.38.7-.59,1.07-.56,1.01-1.22,2.08-1.97,3.23-.3.46-.62.93-.95,1.42-.17.24-.34.49-.51.74s-.35.5-.54.76c-.54.77-1.13,1.57-1.75,2.4-.21.28-.42.57-.62.85q-.555.765-1.05,1.53c-.28.44-.56.88-.82,1.31-.2.33-.39.66-.57.98-.21.36-.4.72-.59,1.07-.09.17-.18.34-.26.51-.18.34-.35.68-.5,1.01-.17.33-.32.66-.46.99-.3.66-.57,1.32-.81,1.96-.11.27-.2.53-.3.78-.13.37-.25.74-.38,1.11-.07.22-.14.45-.21.67-.04.13-.08.27-.12.4s-.08.26-.11.39q-.12.375-.21.75-.2.72-.36,1.41c-.05.24-.11.47-.16.7-.09.41-.17.81-.25,1.2-.05.28-.1.55-.15.82-.08.44-.15.87-.22,1.29v.01c-.1.63-.19,1.25-.27,1.85-.02.19-.05.39-.08.59q-.075.585-.15,1.14c-.04.37-.09.74-.14,1.09-.02.18-.05.35-.07.53-.07.51-.14,1.01-.23,1.49-.05.31-.11.62-.17.91-.092.457-.2.886-.319,1.292-.064.219-.144.417-.218.622-.055.153-.1.32-.163.466-.05.12-.1.24-.15.34a4.817,4.817,0,0,1-.35.63,5.229,5.229,0,0,1-.33.45c-.1.12-.2.24-.31.35s-.22.21-.34.3a2.151,2.151,0,0,1-.18.14.238.238,0,0,1-.09.06,2.056,2.056,0,0,1-.31.2,6.085,6.085,0,0,1-2.34.71,1.5,1.5,0,0,1-.22.02,1.059,1.059,0,0,1-.139.007c-.149.011-.3.028-.451.033a14.641,14.641,0,0,1-1.94-.07c-.54-.05-1.12-.13-1.74-.23-6.73-1.12-11.38-2.25-14.61-2.08-.2.01-.39.02-.58.04h-.04c-.2.03-.39.05-.58.09a2.711,2.711,0,0,0-.41.09,2.3,2.3,0,0,0-.28.07h-.01c-.13.04-.25.08-.37.12s-.23.09-.34.14a3.536,3.536,0,0,0-.34.16c-.1.06-.21.12-.31.19a3.13,3.13,0,0,0-.59.44,3.37,3.37,0,0,0-.28.25l-.26.29a6.769,6.769,0,0,0-.42.56,3.205,3.205,0,0,0-.19.31c-.06.09-.11.19-.17.29a8.165,8.165,0,0,0-.39.84h-91.68a50.192,50.192,0,0,0-7.94-2.49c-21.1-4.76-6.81-37.41,6.12-41.49,4.92-1.55,7.77-13.57-2.01-21.43.02-.02.03-.04.05-.05,2.79-3.12,10.92,1.3,15.61-2.89a7.7,7.7,0,0,0,1.67-2.17,22.939,22.939,0,0,0,2.9-10.61c0-.14,0-.29.01-.44-.07-11.98-10.36-20.99-11.42-28.4-1.36-9.53-3.35-23.16,4.81-30.64s35.83.2,44.68.2,11.01,12.57,14.42,3.04c3.17-8.88,20.64,1.35,27.38-4.98a6.562,6.562,0,0,0,1.28-1.63c3.47-6.07,13-6.34,19.48-11.19a41.363,41.363,0,0,0,18.63,16.63C2095.19-3015.7,2081.57-2996.65,2084.98-2980.32Z" transform="translate(-1618.68 3492.04)"/><path class="c" d="M2059.793-3058.2c0,7.656-2.693,11.906-6.385,14.672-6.473,4.845-16.012,5.116-19.482,11.182-5.443,9.521-24.237,20.943-47.066,11.635-8.195-3.342-19.973-6.524-28.484-2.114-9.836,5.1-18.377,14.965-17.017,24.491s17.99,21.711,8.508,39.456l-.092.173a12.76,12.76,0,0,1-19.534,3.622c-6.171-5.188-15.264-10.723-27.679-16.038-38.112-16.329-46.963-38.1-45.6-67.349s-28.586-38.777-53.09-61.944,7.487-27.173,23.139-25.135c8.4,1.1,12.685-3.681,20.216-7.927,9.922,12.772,27.525,33.506,36.958,33.062,13.613-.644,34.713,11.6,46.963,2.758s20.42-4.081,29.95,8.162,21.1-9.521,36.074-6.8,25.183,24.486,38.8,16.324a22.1,22.1,0,0,1,5.865-2.536C2052.413-3085.2,2059.793-3076.126,2059.793-3058.2Z" transform="translate(-1618.68 3492.04)"/><path class="d" d="M2091.721-3155.574c-.374,4-2.577,8.362-8.109,12.66-18.376,14.286-25.183,1.364-30.626,12.248s4.763,24.491,0,33.332a85.432,85.432,0,0,1-11.152,15.152,22.1,22.1,0,0,0-5.865,2.536c-13.613,8.162-23.823-13.607-38.8-16.324s-26.543,19.046-36.074,6.8-17.7-17-29.95-8.162-33.35-3.4-46.963-2.757c-9.433.444-27.036-20.29-36.958-33.062,6.5-3.668,15.427-6.936,31.515-5.675,31.728,2.482,33.318-19.469,54.152-67.425,15.871-2.6,35.762-5.075,49.3-4.01,25.863,2.043,43.559,6.124,44.239,26.534s53.77,23.128,63.3,21.769a5.89,5.89,0,0,0,1.044-.236A15.053,15.053,0,0,1,2091.721-3155.574Z" transform="translate(-1618.68 3492.04)"/><path class="c" d="M2092.065-3191.942c-.6.689-1.213,1.421-1.839,2.216-9.784,12.39.428,21.538.557,27.53.1,4.52-64.023,1.835-64.7-18.575s-17.531-27.322-43.394-29.365c-13.542-1.065-33.434,1.408-49.3,4.01,1.959-4.507,4.087-9.241,6.424-14.21,27.223-57.828,58.533-108.848,61.257-138.1a30.337,30.337,0,0,1,1.822-7.794c9.228-5.791,20.113-4.489,28.124.991,12.934,8.841,4.767,29.93,18.381,25.849s26.168,5.276,25.183,12.243c-.038.27-.071.56-.138.862-1.5,7.234-12.631,22.626-8.712,31.112,4.083,8.846,16.337,17.008,18.376,25.854a17.5,17.5,0,0,0,.5,1.768c2.528,7.411,8.646,9.974,3.586,21.36-5.447,12.247,4.083,11.568,11.569,28.572C2106.785-3201.654,2101.218-3202.471,2092.065-3191.942Z" transform="translate(-1618.68 3492.04)"/><path class="b" d="M2369.82-3301.081c-3.741,17.008.8,9.868-15.084,16.329s-14.862,21.089-21.669,29.251-9.53-4.423-20.078,0,.68,15.987-7.828,21.09c-7.318,4.387-29.222,12.292-43.658.373a41.154,41.154,0,0,0,8.606-16.418c4.763-18.425-6.806-10.827-12.254-30.557s-18.376-12.243-23.819-24.486,13.614-20.41,5.443-20.41a18.781,18.781,0,0,1-2.11-.133c6.788-5.6,16.354-14.335,20.26-21.862,6.353-12.248,8.624-6.351,20.873-19.051s31.31,6.35,47.19,4.081,7.264-7.256,19.514-7.256a36.34,36.34,0,0,0,11.49-2.057c3.31,5.13,8.05,11.333,13.124,13.283,8.851,3.4.085,7.145-3.359,14.965s4.466,8.846,0,19.731S2373.566-3318.085,2369.82-3301.081Z" transform="translate(-1618.68 3492.04)"/><path class="b" d="M2425.68-3438.08v510.06a39.991,39.991,0,0,1-40,39.98H2124.79c-.27-.24-.54-.5-.8-.76a30.189,30.189,0,0,1-3.74-4.56c-.28-.41-.55-.83-.82-1.25-.25-.44-.51-.87-.76-1.32s-.48-.88-.72-1.33v-.01c-.46-.9-.89-1.83-1.29-2.77l-.3-.72c-.19-.47-.38-.95-.56-1.43v-.01c-.18-.48-.35-.97-.51-1.46a55.276,55.276,0,0,1-2.75-20.54v-.01a11.719,11.719,0,0,0-.16-3.36,4.6,4.6,0,0,0-.19-.69,4.3,4.3,0,0,0-.55-1.14,2.019,2.019,0,0,0-.17-.24,3.124,3.124,0,0,0-.38-.42c-2.79-2.66-8.91-.5-13.8-1.61-.32-.07-.63-.16-.94-.26a2.807,2.807,0,0,1-.31-.11,7.156,7.156,0,0,1-3-2.09c-.16-.18-.31-.38-.46-.58a8.743,8.743,0,0,1-.8-1.39c-.07-.15-.14-.3-.22-.45a8.7,8.7,0,0,0-.74-1.21,9.294,9.294,0,0,0-.91-1.04,3.042,3.042,0,0,0-.31-.31c-3.47-3.18-9.02-3.48-13.86-2.97a8.54,8.54,0,0,0-.32-1.05.822.822,0,0,1-.06-.14l-.01-.01c-.07-.19-.15-.37-.24-.56a4.073,4.073,0,0,0-.24-.46.4.4,0,0,0-.05-.09.3.3,0,0,0-.04-.08,4.387,4.387,0,0,0-.27-.47c-.22-.36-.45-.7-.71-1.05-.28-.39-.58-.79-.89-1.18-.15-.2-.31-.4-.48-.61-.15-.2-.32-.4-.47-.61a7.658,7.658,0,0,1-.49-.63c-.06-.07-.11-.14-.17-.21-.14-.18-.27-.36-.41-.55s-.27-.38-.4-.57c-.02-.03-.04-.05-.06-.08-.14-.21-.28-.43-.42-.64v-.01c-.11-.17-.2-.35-.3-.51a4.027,4.027,0,0,1-.27-.78,3.6,3.6,0,0,1-.06-1.13c.01-.08.02-.17.03-.25a4.853,4.853,0,0,1,.27-.87c0-.01,0-.04.01-.05a.612.612,0,0,1,.05-.12.672.672,0,0,0,.06-.12c.02-.05.04-.09.06-.13a.6.6,0,0,1,.07-.14.53.53,0,0,1,.06-.1c.06-.11.12-.2.18-.31.12-.19.25-.38.38-.57a11.968,11.968,0,0,1,.82-1c.02-.02.04-.05.06-.07.12-.12.24-.25.36-.38.14-.16.3-.31.46-.48s.33-.33.51-.5c.15-.14.31-.28.47-.43s.35-.32.53-.48.34-.31.52-.47.38-.34.57-.52.39-.33.59-.51l.57-.51,1.17-1.05.01-.01v-.01c.05-.04.1-.09.15-.13a5.8,5.8,0,0,0,.44-.41c.19-.18.38-.37.58-.55l.01-.01c.2-.19.39-.37.58-.56v-.02c.34-.33.66-.66.99-1.01.25-.27.5-.55.75-.83.12-.14.24-.29.36-.44s.24-.29.35-.44c.03-.03.06-.07.09-.1.08-.1.16-.2.25-.31.06-.09.13-.18.19-.28a1.064,1.064,0,0,0,.09-.11.176.176,0,0,0,.04-.05,1.883,1.883,0,0,0,.13-.17c.08-.12.16-.22.23-.34a3.983,3.983,0,0,0,.23-.34c.15-.23.31-.47.44-.7.15-.24.28-.48.41-.72.4-.01.79-.03,1.19-.06.19-.01.39-.03.59-.05.15-.01.3-.03.45-.04.44-.04.89-.09,1.34-.17.3-.04.6-.08.9-.13.41-.07.84-.15,1.26-.23.27-.05.54-.11.81-.17.357-.076.717-.164,1.076-.248.824-.2,1.656-.41,2.484-.632.49-.14.98-.28,1.46-.43.24-.07.49-.15.73-.22s.5-.16.74-.24c.49-.15.98-.31,1.47-.47s.97-.32,1.46-.5h.01c.49-.17.97-.33,1.46-.5.25-.09.49-.17.73-.26s.49-.17.73-.25c.49-.18.97-.35,1.46-.53h.01c.96-.34,1.93-.68,2.9-1.01h.01c.04-.01.08-.04.13-.05.1-.03.19-.06.29-.09l.21-.06a.7.7,0,0,1,.19-.06c.1-.04.21-.07.31-.1.16-.04.32-.08.47-.12.04-.01.08-.02.13-.03a2.823,2.823,0,0,1,.37-.09c.22-.04.44-.09.64-.13a2.323,2.323,0,0,1,.28-.05.127.127,0,0,1,.06-.01,2.5,2.5,0,0,1,.27-.04,4.885,4.885,0,0,1,.54-.06.218.218,0,0,1,.1-.02c.4-.03.78-.04,1.14-.04h.32a.411.411,0,0,1,.11.01,4.027,4.027,0,0,1,.49.03,8.2,8.2,0,0,1,.91.14,2.975,2.975,0,0,1,.43.09c.05.01.1.02.14.03s.1.02.14.03.09.03.14.05a3.567,3.567,0,0,1,.4.12c.13.04.26.09.38.13s.26.1.38.15.25.11.37.17l.12.06a3.058,3.058,0,0,1,.41.2.828.828,0,0,1,.16.09.87.87,0,0,1,.17.08c.06.03.11.07.16.09h.02c.11.06.21.12.32.19s.21.13.32.19.21.13.32.2c.22.12.43.25.63.38.22.12.41.25.63.37h.01c.1.06.21.12.31.18s.21.11.32.16c.21.11.43.22.64.31s.44.19.67.27a6.534,6.534,0,0,0,2.26.38c.11,0,.22,0,.33-.01a.341.341,0,0,0,.1-.01,1.531,1.531,0,0,0,.22-.02,2.273,2.273,0,0,0,.26-.02c.08-.01.16-.03.25-.04s.17-.03.26-.05h.01c.03,0,.05-.01.08-.01a4,4,0,0,0,.42-.09c.16-.04.31-.08.48-.14.01,0,.02-.01.03-.01.19-.06.4-.13.61-.2.19-.07.39-.14.6-.24a6.558,6.558,0,0,0,.63-.26c.2-.09.41-.18.6-.27.58-.25,1.15-.47,1.7-.65.28-.09.54-.17.81-.24s.53-.14.79-.2c.17-.03.35-.07.52-.11h.02c.33-.06.66-.11.98-.16.01.01.01.01.02,0a26.664,26.664,0,0,1,3.97-.15c.02,0,.03.01.05,0,.36.01.73.03,1.1.04.97.03,1.98.06,3.05.03.16,0,.32,0,.49-.01a1.691,1.691,0,0,0,.22-.01c.11,0,.22,0,.34-.01l.4-.03a2.819,2.819,0,0,0,.29-.02c.15-.01.3-.03.46-.05l.34-.03a16.386,16.386,0,0,0,2.07-.3c.15-.02.32-.06.47-.09.11-.03.24-.05.36-.09a.09.09,0,0,0,.05-.01h.02c.25-.06.52-.12.78-.18.34-.08.7-.18,1.06-.3.16-.04.32-.09.48-.14s.33-.1.5-.15l.01-.01c.33-.11.67-.22,1.03-.35.34-.13.71-.26,1.08-.41.11-.04.21-.09.32-.14.63-.25,1.27-.53,1.95-.84h.02c.4-.19.79-.38,1.21-.58h.01c.26-.12.51-.25.76-.36s.49-.22.73-.33c.12-.06.24-.11.36-.16.36-.15.69-.28,1.02-.41s.66-.25.97-.36.61-.2.91-.29c.11-.04.23-.07.34-.1a1.946,1.946,0,0,1,.23-.06l.3-.09a2.1,2.1,0,0,1,.24-.07h.01c.18-.05.36-.07.52-.11s.34-.07.5-.1.34-.06.49-.08l.47-.06.45-.03a1.633,1.633,0,0,0,.22-.02c.07,0,.14-.01.21-.01a12.457,12.457,0,0,1,4.34.66c.16.06.33.11.49.16s.33.1.49.15c.33.11.65.21.99.29a9.6,9.6,0,0,0,3.41.36,6.5,6.5,0,0,0,.73-.08,13.133,13.133,0,0,0,2.52-.62c.16-.05.32-.11.48-.17s.32-.12.49-.18c.33-.14.68-.28,1.05-.45.35-.16.72-.34,1.12-.53.26-.13.51-.26.76-.38.3-.16.59-.3.86-.44.17-.1.33-.18.49-.27s.33-.17.48-.25.31-.16.45-.24.29-.17.43-.25.29-.16.42-.23c.27-.15.53-.3.77-.45s.49-.29.72-.44a1.276,1.276,0,0,0,.12-.07,2.262,2.262,0,0,1,.2-.13c.11-.07.21-.15.31-.22q.27-.18.51-.36l.2-.14.13-.1c.09-.06.17-.13.25-.19s.16-.14.24-.2.15-.14.22-.2c.14-.13.28-.26.41-.39.1-.1.19-.19.28-.29.03-.03.05-.06.08-.09a.645.645,0,0,1,.08-.09c.08-.1.16-.2.24-.31a3.563,3.563,0,0,0,.28-.4c.04-.07.09-.13.13-.21.12-.2.23-.41.33-.62.07-.14.13-.29.19-.44a2.994,2.994,0,0,0,.16-.45c.1-.31.19-.63.27-.98.08-.32.15-.66.22-1.02l.06-.3c.04-.17.06-.35.1-.52.03-.21.07-.41.11-.62l.09-.54q.12-.645.24-1.35a.785.785,0,0,1,.02-.14c.09-.41.16-.85.25-1.3.05-.23.1-.45.15-.69s.11-.48.16-.73v-.01c.1-.41.21-.8.31-1.24.03-.11.05-.22.08-.33s.06-.21.09-.32v-.01c.4,0,.76-.01,1.12-.02h.04c.36-.01.7-.04,1.04-.07h.01l.55-.06c.14-.02.27-.04.4-.06.15-.02.3-.04.44-.07.16-.03.3-.06.45-.09l.12-.03c.23-.05.44-.11.64-.17.25-.08.48-.16.7-.25h.02c.1-.04.2-.09.3-.14a5.2,5.2,0,0,0,.57-.31,3.766,3.766,0,0,0,.5-.36,1.311,1.311,0,0,0,.22-.19,1.05,1.05,0,0,0,.21-.21,1.674,1.674,0,0,0,.18-.21c.06-.07.11-.13.16-.2,0-.01.01-.01.01-.02a2.336,2.336,0,0,0,.22-.36.6.6,0,0,0,.07-.14c.03-.05.05-.09.08-.14a2,2,0,0,0,.1-.26,4.722,4.722,0,0,0,.17-.53,4.179,4.179,0,0,0,.11-.51,4.51,4.51,0,0,0,.06-.53c.01-.1.02-.2.02-.3s.01-.22.01-.34c0-.22-.01-.45-.02-.68-.01-.12-.02-.26-.04-.39-.01-.11-.02-.21-.04-.32s-.02-.24-.04-.36q-.075-.57-.21-1.17c-.05-.28-.11-.56-.19-.86-.08-.34-.18-.7-.27-1.07-.07-.26-.14-.52-.23-.81-.19-.66-.41-1.36-.64-2.08-.21-.65-.43-1.33-.66-2.02-.09-.29-.19-.57-.28-.86-.05-.15-.1-.3-.15-.44s-.09-.29-.14-.44c-.12-.37-.25-.74-.37-1.12-.25-.75-.49-1.51-.74-2.29-.06-.17-.11-.35-.16-.53s-.1-.35-.15-.52c-.11-.35-.2-.69-.31-1.04v-.01c-.1-.35-.18-.69-.28-1.04s-.17-.69-.26-1.04c-.13-.52-.25-1.03-.37-1.55-.1-.52-.22-1.05-.32-1.56s-.18-.99-.26-1.49c-.09-.54-.16-1.07-.24-1.61-.01-.13-.03-.26-.05-.39-.05-.38-.09-.78-.13-1.16-.02-.18-.04-.36-.05-.52-.03-.34-.06-.67-.08-1.01-.03-.5-.06-1-.08-1.49v-.05c-.04-1.16-.03-2.32.02-3.47.02-.33.04-.65.06-.98s.05-.65.08-.97c.04-.39.09-.79.13-1.18,0-.03.02-.07.02-.11,0-.02.01-.06.01-.08.06-.45.12-.89.2-1.34l.22-1.14v-.02c.08-.41.17-.84.28-1.24.05-.21.1-.42.16-.63l.18-.63c.02-.1.05-.21.08-.31.08-.26.16-.53.24-.79.01-.01.01-.01.01-.02s.01-.02.01-.03a2.047,2.047,0,0,0,.07-.23c.16-.46.33-.94.5-1.39v-.02c.03-.06.05-.13.08-.19.19-.49.39-.97.6-1.45.1-.23.21-.44.3-.66.11-.22.22-.45.32-.67.09-.17.17-.34.27-.51.24-.46.49-.92.74-1.37a.01.01,0,0,0,.01-.01c.29-.5.6-1.01.92-1.5.2-.3.39-.61.61-.91l.64-.89c.29-.39.58-.77.88-1.15.78-.96,1.62-1.91,2.53-2.84.74-.75,1.39-1.47,1.97-2.17.29-.34.56-.67.8-.99.4-.51.76-1,1.07-1.48.22-.31.41-.61.59-.91.2-.31.37-.61.54-.9v-.01c.17-.3.32-.58.46-.86v-.01a3.241,3.241,0,0,0,.19-.37c.01-.02.01-.03.02-.05q.315-.615.57-1.23c.12-.26.22-.53.32-.78s.2-.5.28-.74c.19-.5.36-.97.51-1.43.07-.17.13-.33.18-.49a1.263,1.263,0,0,0,.06-.18c.2-.54.39-1.06.6-1.55.06-.13.12-.26.18-.4s.13-.26.19-.39c.06-.11.12-.23.18-.34a7.911,7.911,0,0,1,1.33-1.76,8.92,8.92,0,0,1,.77-.68c.1-.07.19-.14.3-.21.2-.14.42-.27.64-.41a.01.01,0,0,0,.01-.01c.19-.11.39-.22.6-.32a.747.747,0,0,1,.12-.07l.41-.19a19.739,19.739,0,0,1,2.38-.89q.81-.255,1.77-.48c.42-.1.87-.21,1.33-.3.23-.05.45-.1.65-.16h.01c.02,0,.05-.01.07-.01.19-.04.37-.09.54-.14.22-.05.43-.1.63-.16q.54-.15,1.02-.33h.01a1.752,1.752,0,0,0,.3-.1c.05-.02.11-.04.17-.07a3.61,3.61,0,0,0,.35-.13c.17-.07.32-.13.48-.2a.107.107,0,0,1,.06-.02,6.414,6.414,0,0,0,.74-.39h.01a5.726,5.726,0,0,0,.64-.39.649.649,0,0,0,.12-.07.7.7,0,0,0,.17-.13,1.214,1.214,0,0,0,.14-.1,1.03,1.03,0,0,0,.12-.1h.01a1.641,1.641,0,0,0,.24-.21c.07-.07.15-.13.22-.21a3.7,3.7,0,0,0,.38-.42.847.847,0,0,0,.14-.21c.01-.01.01-.01.01-.02a3.49,3.49,0,0,0,.28-.43.91.91,0,0,0,.11-.22,1.076,1.076,0,0,0,.1-.22.578.578,0,0,0,.06-.17.06.06,0,0,0,.01-.04c.01-.02.02-.03.02-.05a.866.866,0,0,0,.07-.17c.02-.08.05-.15.06-.22v-.01a1.642,1.642,0,0,0,.06-.21.422.422,0,0,1,.02-.11v-.04a.17.17,0,0,0,.01-.07c.01-.04.02-.07.03-.11.02-.11.03-.21.04-.32a.833.833,0,0,0,.03-.22,1.357,1.357,0,0,0,.02-.2c.01-.07.01-.15.02-.22a1.5,1.5,0,0,0,.02-.2,1.475,1.475,0,0,1,.01-.21c0-.07.01-.13.01-.19v-.01c.01-.13.03-.26.04-.39,0-.06.01-.13.01-.19.02-.13.03-.25.06-.37a1.4,1.4,0,0,1,.06-.28c0-.01.01-.04.01-.06.01-.05.03-.09.04-.13s.03-.08.04-.12a2.742,2.742,0,0,1,.29-.53.435.435,0,0,1,.06-.07.444.444,0,0,0,.06-.07,1.323,1.323,0,0,1,.12-.12.17.17,0,0,1,.06-.06.423.423,0,0,1,.07-.06,3.068,3.068,0,0,1,.35-.24c.09-.05.19-.09.28-.13s.18-.07.28-.11a1.818,1.818,0,0,0,.22-.07,2.137,2.137,0,0,1,.27-.06,2.137,2.137,0,0,1,.27-.06,2.717,2.717,0,0,1,.3-.04c.18-.03.36-.05.56-.08h.04c.11-.01.23-.02.35-.02.14-.01.28-.02.43-.02.54-.02,1.14-.01,1.82.03.66.04,1.28.05,1.85.03a.18.18,0,0,0,.1-.02c.13,0,.26-.01.38-.02a4.4,4.4,0,0,0,.51-.05.5.5,0,0,0,.12-.02c.13-.01.26-.03.39-.05.25-.05.49-.09.7-.15a1.334,1.334,0,0,0,.18-.07.06.06,0,0,0,.04-.01,2.335,2.335,0,0,0,.37-.13.592.592,0,0,0,.14-.06.916.916,0,0,0,.23-.09,1.507,1.507,0,0,0,.28-.15.529.529,0,0,0,.11-.05c.05-.03.1-.06.14-.09a.811.811,0,0,0,.12-.08.643.643,0,0,0,.13-.1,1.309,1.309,0,0,0,.23-.18,2.023,2.023,0,0,0,.22-.19,2.286,2.286,0,0,0,.3-.32.234.234,0,0,0,.07-.07l.02-.02c.09-.14.2-.27.3-.41.07-.11.14-.21.2-.32a1.852,1.852,0,0,0,.16-.28,4.821,4.821,0,0,0,.26-.56c.05-.09.09-.2.13-.29.05-.11.08-.22.12-.33.08-.21.15-.43.22-.65.04-.12.08-.24.11-.36.07-.24.15-.48.21-.73v-.01c.07-.26.13-.5.2-.77.03-.14.07-.27.09-.41a4.261,4.261,0,0,0,.11-.42c.04-.14.07-.28.1-.43.1-.44.21-.89.33-1.36.1-.39.21-.79.32-1.2.05-.21.11-.41.17-.63l.18-.63v-.02a.5.5,0,0,1,.04-.11c.09-.31.18-.62.29-.95.07-.2.13-.41.2-.61.12-.35.24-.7.37-1.06.03-.07.05-.14.08-.21.08-.22.16-.44.25-.66a.4.4,0,0,0,.06-.15c.02-.04.04-.1.06-.14.08-.2.16-.4.25-.6s.16-.4.25-.6c.01-.01,0-.01,0-.01.1-.2.19-.41.28-.61.19-.41.4-.84.61-1.26s.44-.87.68-1.31c.32-.58.66-1.16,1.02-1.76.61-1,1.29-2.02,2.06-3.08.38-.54.76-1.05,1.13-1.55.22-.3.44-.6.65-.9s.43-.57.64-.84c.34-.46.66-.89.97-1.3.05-.08.11-.15.15-.21.36-.49.72-.95,1.05-1.4v-.01c.35-.46.67-.89.99-1.32a.883.883,0,0,0,.07-.1.236.236,0,0,0,.06-.09.386.386,0,0,0,.08-.1,1.825,1.825,0,0,0,.13-.16c.12-.14.22-.3.33-.44.17-.23.34-.47.51-.69.5-.68.97-1.31,1.4-1.92.3-.41.57-.8.82-1.18v-.01c.27-.39.5-.74.73-1.1.11-.18.22-.37.34-.55.09-.17.2-.35.29-.51v-.01a5.24,5.24,0,0,0,.29-.49c0-.02.01-.02.01-.02l.25-.5c.09-.16.17-.32.24-.47v-.02c.08-.18.17-.35.24-.53.06-.15.11-.28.15-.41a.386.386,0,0,0,.05-.12c.05-.13.09-.25.13-.37a.659.659,0,0,0,.05-.15c.05-.17.1-.35.14-.51.02-.08.04-.16.05-.23.03-.1.04-.19.06-.29a8.427,8.427,0,0,0,.13-1.11v-.02a3.746,3.746,0,0,0,0-.67,1.132,1.132,0,0,0-.01-.26v-.14a1,1,0,0,0-.02-.16,9.031,9.031,0,0,0-.21-1.21,6.49,6.49,0,0,0-.2-.72,10.22,10.22,0,0,0-.34-.97s-.02,0-.02-.01c-.07-.16-.14-.33-.22-.5s-.15-.34-.24-.52c-.07-.17-.16-.35-.25-.53-.11-.18-.2-.37-.31-.56s-.22-.37-.32-.56a2.3,2.3,0,0,1-.13-.2c-.04-.06-.08-.13-.13-.2-.13-.23-.28-.45-.43-.69s-.3-.47-.46-.71c-.12-.19-.25-.36-.38-.54s-.25-.35-.38-.52c-.1-.14-.19-.29-.3-.42h-.01v-.01c-.37-.48-.74-.93-1.14-1.36-.33-.38-.68-.75-1.03-1.11l-.15-.15c-.1-.11-.2-.21-.31-.31-.02-.02-.05-.04-.07-.06-.88-.87-1.78-1.67-2.66-2.44l-.61-.52c-.4-.34-.8-.68-1.19-1.02-.27-.23-.53-.46-.79-.69-.22-.19-.42-.38-.63-.56s-.41-.36-.61-.56c-.56-.54-1.11-1.09-1.6-1.64-.02-.02-.04-.03-.05-.05s-.04-.05-.06-.07c-.12-.14-.23-.28-.34-.43-.11-.13-.21-.26-.31-.39s-.19-.26-.28-.4a.914.914,0,0,1-.11-.16c-.04-.06-.07-.12-.11-.18a5.448,5.448,0,0,1-.31-.52c-.05-.08-.09-.16-.13-.24s-.08-.16-.12-.23-.06-.13-.09-.19a1.4,1.4,0,0,1-.12-.28,1.666,1.666,0,0,1-.08-.2,6.425,6.425,0,0,1-.21-.62,3.233,3.233,0,0,1-.15-.5v-.01c-.03-.16-.07-.31-.09-.48a5.216,5.216,0,0,1-.11-.69c0-.03-.01-.04,0-.06-.01-.05-.02-.1-.03-.16s-.01-.11-.01-.16a11.4,11.4,0,0,1,.07-2.08,13.793,13.793,0,0,1,.3-1.56v-.01a22.029,22.029,0,0,1,1.28-3.54,12,12,0,0,0,.73-2.07c.03-.15.07-.32.09-.47a7.545,7.545,0,0,0,.11-.79,1.43,1.43,0,0,0,.01-.29,2.173,2.173,0,0,0,0-.51,1.22,1.22,0,0,0-.01-.27.76.76,0,0,0-.03-.21,2.446,2.446,0,0,0-.08-.47c-.02-.12-.06-.25-.09-.37,0-.01-.01-.04-.01-.05a1.769,1.769,0,0,0-.12-.32,1.151,1.151,0,0,0-.06-.17c0-.01-.01-.01-.01-.02-.02-.03-.03-.06-.05-.09-.06-.12-.11-.24-.17-.34-.01-.03-.01-.04-.02-.05-.07-.11-.13-.21-.2-.31a.435.435,0,0,0-.04-.07c-.06-.08-.12-.16-.18-.23-.04-.06-.09-.12-.13-.18l-.08-.08c-.09-.1-.19-.21-.28-.3a2.23,2.23,0,0,0-.27-.26,4.891,4.891,0,0,0-.57-.45c-.02-.02-.03-.03-.04-.03v-.01c-.08-.05-.16-.11-.24-.16-.11-.07-.23-.14-.35-.21a5.741,5.741,0,0,0-.81-.44,8.172,8.172,0,0,0-.79-.35c-.18-.07-.36-.13-.55-.2-.17-.06-.34-.11-.51-.17l-.39-.12c-.01,0-.02-.01-.03-.01-.25-.07-.51-.13-.77-.2l-.21-.06a1.743,1.743,0,0,0-.22-.05h-.01c-.3-.07-.61-.13-.91-.18-.28-.05-.55-.1-.82-.14-.31-.05-.62-.09-.93-.13v-.01a5.888,5.888,0,0,0,.24-.58,2,2,0,0,0,.1-.26c.03-.06.06-.13.09-.19q.21-.525.39-1.08c.13-.37.26-.75.38-1.13s.25-.78.36-1.19c.24-.79.47-1.63.69-2.5s.43-1.76.66-2.69c3.4-14.29,15.65-16.33,12.25-26.53-2-6,1.87-9.41,6.37-14.93.36.28.7.57,1.07.83q.36.27.72.51c.26.19.52.36.79.52.23.15.46.3.69.44a.031.031,0,0,1,.02.01.41.41,0,0,0,.09.05,23.512,23.512,0,0,0,2.1,1.11.356.356,0,0,0,.09.04q.585.285,1.17.51c.33.14.67.27,1,.39a1.065,1.065,0,0,1,.19.07c.11.04.21.07.31.1a.418.418,0,0,0,.1.04,2.391,2.391,0,0,0,.25.08c.17.06.33.11.5.16,0,.01.01.01.02.01l.01.01.01.01h.02c.8.25,1.6.45,2.41.63s1.64.32,2.46.43c.26.03.54.07.81.1.06.01.11.01.17.02.26.03.51.05.77.07s.52.05.79.06q.6.045,1.2.06c.4.01.81.02,1.21.02h.05c.63,0,1.25-.01,1.88-.05h.07c.6-.02,1.21-.07,1.82-.13.32-.02.65-.06.98-.09.17-.02.37-.04.54-.06s.36-.05.54-.07c.47-.06.93-.14,1.39-.21l.2-.03a.7.7,0,0,1,.14-.03,2.172,2.172,0,0,0,.25-.04c.22-.03.44-.08.66-.12.61-.11,1.19-.23,1.78-.37h.01c.17-.03.34-.07.5-.11.13-.04.25-.07.38-.1l.86-.21.48-.12c.12-.03.25-.07.37-.11.28-.08.56-.15.83-.24.08-.02.16-.04.23-.06.2-.05.39-.11.59-.17.14-.05.27-.09.4-.13.04-.01.08-.03.11-.04.09-.03.19-.06.28-.1h.01c.27-.08.53-.16.78-.25s.51-.17.76-.27c.5-.17.99-.36,1.47-.55.09-.03.17-.06.26-.09.15-.06.3-.12.44-.18.47-.18.91-.37,1.34-.56.22-.09.42-.18.63-.28s.4-.19.6-.29h.01c.42-.19.81-.38,1.19-.58.33-.16.65-.33.95-.5a4.429,4.429,0,0,0,.47-.27c.15-.07.29-.16.43-.24a7.521,7.521,0,0,0,1.73-1.39v-.01a4.718,4.718,0,0,0,.57-.72c.02-.03.03-.06.05-.09a3.769,3.769,0,0,0,.41-.73c.02-.03.03-.07.05-.1,0-.02.01-.02.01-.03a1.117,1.117,0,0,0,.11-.25.434.434,0,0,0,.01-.05,2.876,2.876,0,0,0,.11-.31.6.6,0,0,0,.06-.19l.01-.01c.01-.03.02-.08.03-.12a2.585,2.585,0,0,0,.09-.33l.03-.18c.01-.01.01-.04.01-.06a3.229,3.229,0,0,0,.1-.61c.01-.05.01-.08.02-.13.03-.2.04-.42.05-.62.3-5.44-3.02-12.07,4.38-15.17.1-.04.21-.08.31-.12s.2-.08.3-.11c.3-.11.6-.21.89-.3s.57-.16.85-.22c.18-.03.35-.07.52-.09a4.518,4.518,0,0,1,.5-.06,10.271,10.271,0,0,1,1.08-.07c.15,0,.3.01.45.01.11.01.22.01.32.02a9.414,9.414,0,0,1,1.22.18,2.857,2.857,0,0,1,.42.1c.11.02.2.06.3.08.02.01.04.01.06.02.18.05.36.11.53.17a15.312,15.312,0,0,1,1.83.79c.12.06.23.12.34.18s.22.11.33.17c.33.17.65.35.96.53h.01q.63.345,1.23.66v.01h.02a6.184,6.184,0,0,0,.58.28c.05.02.09.04.14.06a.488.488,0,0,1,.07.03.612.612,0,0,0,.12.05c.18.08.35.14.53.2a.356.356,0,0,1,.1.02h.01a.987.987,0,0,0,.16.05l.15.03a3.145,3.145,0,0,0,.42.09c.13.02.26.04.39.05h.03a4.859,4.859,0,0,0,.54,0h.06c.11-.02.22-.03.33-.04l.14-.03c.06-.01.13-.03.19-.04.03-.01.05-.02.08-.03a1.362,1.362,0,0,0,.19-.05.074.074,0,0,0,.06-.02c.01-.01.02-.01.04-.01a.339.339,0,0,1,.08-.03,3.109,3.109,0,0,0,.33-.15,4.019,4.019,0,0,0,.46-.24,5.36,5.36,0,0,0,.47-.31c.03-.01.05-.03.08-.04.09-.07.19-.16.29-.24.04-.03.07-.06.11-.09a5.231,5.231,0,0,0,.5-.45c.13-.13.26-.27.41-.42.11-.12.22-.23.33-.37a.1.1,0,0,0,.05-.06.782.782,0,0,0,.09-.09.9.9,0,0,1,.09-.1c.21-.26.42-.52.61-.78.22-.31.44-.62.65-.95.01-.01.01-.01.01-.02a1.153,1.153,0,0,0,.12-.18c.11-.16.22-.34.33-.52.18-.29.34-.59.51-.88s.32-.6.47-.91.31-.62.46-.93q.21-.435.39-.87c.01-.03.03-.07.04-.1s.03-.06.04-.09c.15-.29.27-.58.39-.87.14-.32.27-.66.4-.99v-.01c.15-.34.28-.66.41-.99v-.02c.23-.54.45-1.11.68-1.67.04-.11.09-.21.12-.31.01-.02.01-.04.02-.06.19-.45.37-.89.56-1.34.21-.49.42-.99.64-1.48.03-.09.07-.17.1-.26.08-.17.16-.34.24-.52.12-.25.24-.51.36-.77.05-.08.08-.17.12-.25v-.01c.25-.51.51-1.01.78-1.52.09-.17.19-.34.28-.51.14-.25.29-.5.44-.75.12-.21.24-.42.37-.62s.26-.4.4-.61v-.01c.44-.65.9-1.3,1.4-1.92.13-.16.26-.31.39-.47l.15-.18a1.96,1.96,0,0,0,.14-.16c.11-.11.22-.23.31-.34.15-.17.31-.34.47-.51s.32-.34.49-.5c.33-.33.69-.64,1.06-.97.25-.21.5-.41.75-.62.12-.1.26-.2.39-.3s.27-.2.4-.3c.18-.14.37-.27.56-.4.02-.01.04-.03.06-.04.43-.29.88-.58,1.34-.85.23-.14.47-.28.71-.41.16-.09.32-.17.48-.26s.34-.17.5-.25c.32-.16.64-.32.97-.47.38-.18.76-.34,1.15-.5,2.47-1,4.45-1.68,6.04-2.18.01.01.01.01.02,0,.47-.14.91-.26,1.32-.39a.014.014,0,0,0,.02,0c.31-.09.59-.17.86-.24.18-.05.35-.1.51-.14l.09-.03h.02c.23-.06.45-.11.65-.18a2.17,2.17,0,0,0,.24-.07l.01.01c.01,0,.01,0,.01-.01.09-.02.17-.05.26-.07.34-.1.65-.2.92-.3h.01a2.362,2.362,0,0,0,.37-.15h.01a1.548,1.548,0,0,0,.31-.17c.01.01.01.01.01,0a.992.992,0,0,0,.17-.11,1.853,1.853,0,0,0,.47-.41,1.088,1.088,0,0,0,.18-.24,1.741,1.741,0,0,0,.11-.18v-.01c.01-.02.03-.04.03-.06a1.108,1.108,0,0,0,.14-.26v-.02c.02-.06.05-.12.07-.18a2.62,2.62,0,0,0,.15-.42v-.02c.02-.07.04-.15.06-.23a2.155,2.155,0,0,0,.07-.24v-.02c.02-.08.04-.17.06-.26.05-.19.09-.38.13-.59v-.02c.05-.21.09-.44.13-.68s.1-.49.14-.77a1.554,1.554,0,0,0,.04-.21c.07-.36.13-.74.2-1.14.03-.16.05-.32.08-.49s.07-.35.1-.53.07-.36.11-.55q.18-1,.42-2.19a3.4,3.4,0,0,0,.07-.34c.1-.46.2-.95.3-1.46.06-.25.11-.51.17-.78.2-.91.36-1.77.48-2.56a21.625,21.625,0,0,0,.23-4.98c-.03-.2-.05-.39-.07-.58-.03-.22-.06-.41-.1-.6v-.01c-.04-.19-.08-.38-.12-.56s-.08-.35-.13-.52-.1-.34-.16-.5v-.01a7.321,7.321,0,0,0-.35-.9c-.1-.22-.21-.42-.31-.61a1.224,1.224,0,0,0-.12-.19q-.21-.375-.45-.72a7.676,7.676,0,0,0-.47-.65,7.718,7.718,0,0,0-.49-.61,3.392,3.392,0,0,0-.24-.29c-.11-.15-.23-.29-.35-.43-.03-.04-.07-.09-.11-.14-.06-.07-.12-.14-.17-.21-.08-.1-.15-.18-.22-.28-.02-.02-.03-.05-.05-.07-.11-.17-.22-.32-.33-.49-.02-.02-.03-.06-.06-.08-.06-.11-.12-.2-.18-.31a5.711,5.711,0,0,1-.26-.56,1.3,1.3,0,0,1-.07-.21,1.725,1.725,0,0,0-.07-.21.291.291,0,0,1-.03-.1c-.01-.03-.02-.06-.03-.1-.03-.11-.05-.22-.07-.33s-.03-.21-.05-.31a7.331,7.331,0,0,1,.2-2.59c.04-.18.09-.36.14-.55.01,0,0-.01,0-.01a19.232,19.232,0,0,1,.66-1.85c.26-.63.47-1.23.65-1.8v-.01c.18-.57.33-1.1.44-1.61a13.283,13.283,0,0,0,.31-2.79q0-.39-.03-.75c-.01-.25-.04-.49-.07-.72s-.07-.45-.11-.67-.09-.44-.15-.65a11.328,11.328,0,0,0-.37-1.21v-.01c-.26-.73-.54-1.41-.79-2.09-.08-.23-.17-.46-.24-.69a12.7,12.7,0,0,1-.39-1.41c-.04-.24-.08-.48-.11-.74-.01-.12-.02-.25-.03-.38a9.131,9.131,0,0,1,.89-4.21,22.964,22.964,0,0,1,2.11-3.67c.7-.98,1.41-1.88,2.08-2.72.1-.12.19-.23.28-.34.2-.24.37-.47.55-.69.09-.12.18-.23.26-.34a15.562,15.562,0,0,0,1.12-1.55c.01,0,0-.01,0-.01a4.162,4.162,0,0,0,.33-.57c.09-.19.18-.38.25-.56a2.306,2.306,0,0,0,.09-.28,2.713,2.713,0,0,0,.1-.48c.01-.1.02-.2.02-.3a.758.758,0,0,0-.01-.15.756.756,0,0,0-.01-.15.6.6,0,0,0-.02-.13.076.076,0,0,0-.01-.04.193.193,0,0,0-.03-.1v-.01a1.187,1.187,0,0,0-.08-.22.308.308,0,0,0-.05-.12.964.964,0,0,0-.11-.23,2.238,2.238,0,0,0-.14-.18.555.555,0,0,0-.06-.08,1.54,1.54,0,0,0-.24-.28l-.14-.14a1.226,1.226,0,0,1-.12-.11.355.355,0,0,0-.1-.07c-.08-.07-.18-.14-.27-.21a3.475,3.475,0,0,0-.32-.21,2.492,2.492,0,0,0-.35-.21c-.12-.07-.25-.14-.38-.2s-.28-.13-.43-.2a8.836,8.836,0,0,0-.97-.42c-.16-.06-.32-.13-.47-.19s-.31-.14-.47-.22h-.01c-.16-.08-.31-.16-.47-.24-.31-.17-.62-.36-.93-.55-.15-.1-.31-.2-.46-.3-.23-.16-.46-.33-.68-.49-.23-.18-.47-.35-.68-.54h-.01l-.65-.56c-.08-.06-.16-.13-.24-.2-.09-.09-.19-.17-.28-.27-.48-.45-.97-.94-1.45-1.43-.13-.15-.27-.3-.41-.45s-.26-.29-.4-.43a3.365,3.365,0,0,0-.25-.28,2.02,2.02,0,0,0-.19-.22c-.14-.17-.29-.34-.43-.52-.12-.14-.25-.29-.37-.44s-.23-.29-.35-.43l-.21-.27a3.068,3.068,0,0,0-.23-.28c-.14-.19-.28-.37-.43-.56-.35-.48-.7-.96-1.05-1.43-.23-.34-.46-.67-.69-1.01s-.46-.67-.67-1-.43-.64-.64-.96h.01c.35-.12.67-.24,1-.37a1.042,1.042,0,0,1,.16-.06c.11-.04.22-.09.33-.14.16-.06.32-.13.48-.2s.33-.13.49-.2c.31-.13.62-.27.92-.42a23.012,23.012,0,0,0,2.48-1.37c.25-.16.49-.32.72-.49.17-.11.33-.24.49-.36s.32-.26.47-.39h.01c.19-.16.37-.33.55-.51a3.079,3.079,0,0,0,.25-.26c.09-.09.16-.18.24-.26a4.727,4.727,0,0,0,.41-.53c.05-.07.11-.16.15-.23,0-.01.01-.02.01-.03a4.1,4.1,0,0,0,.45-.98,2.421,2.421,0,0,0,.1-.45,2.382,2.382,0,0,0,.04-.46v-.01c0-.1-.01-.21-.02-.31v-.05a2.765,2.765,0,0,0-.08-.37.984.984,0,0,0-.05-.16c-.01-.02-.02-.05-.03-.07a.65.65,0,0,0-.04-.13l-.06-.12c-.02-.05-.04-.09-.06-.13a.747.747,0,0,0-.07-.12.679.679,0,0,0-.06-.12c-.03-.04-.05-.08-.08-.12-.05-.07-.11-.16-.17-.24v-.01c-.092-.117-.213-.24-.325-.362-.054-.056-.1-.111-.165-.168-.01-.02-.03-.04-.04-.06s-.03-.03-.05-.04a.208.208,0,0,0-.06-.04.138.138,0,0,0-.03-.04.743.743,0,0,0-.09-.09h-.02c-.06-.05-.12-.11-.18-.15a4.691,4.691,0,0,0-.5-.38c-.05-.03-.11-.07-.16-.1a7.425,7.425,0,0,0-.69-.41c-.3-.17-.63-.33-.98-.5-.24-.11-.48-.24-.72-.37-.12-.07-.23-.14-.35-.22-.23-.15-.46-.32-.69-.49l-.34-.28c-.11-.09-.23-.19-.34-.29s-.22-.2-.33-.31c-.21-.21-.44-.44-.65-.66-.22-.24-.42-.48-.64-.73-.07-.08-.14-.17-.2-.25s-.13-.17-.2-.26c-.14-.17-.27-.35-.41-.54s-.26-.37-.39-.56-.26-.38-.39-.58c-.12-.18-.24-.37-.35-.56-.06-.08-.11-.16-.16-.24-.07-.12-.14-.23-.2-.35-.18-.3-.35-.6-.52-.91-.13-.23-.25-.46-.37-.69s-.25-.48-.37-.71c-.24-.47-.47-.94-.69-1.43s-.45-.99-.66-1.49c-.11-.24-.22-.48-.32-.73s-.2-.48-.29-.73c8.1-.2,16.03-8.7,25.46-20.19,7.53-9.14,23.68-15.31,41.99-19.24Q2422.975-3437.57,2425.68-3438.08Z" transform="translate(-1618.68 3492.04)"/><path class="d" d="M2182.306-3404.142c-11.8,4.081-26.316-5.9-30.857,4.987s17.243,4.991,12.254,16.781-12.934,27.213-24.162,16.329-12.591,0-20.309,13.6c-3.552,6.262,1.552,9.356,8.094,10.869a5.913,5.913,0,0,1,3.242,9.668c-2.18,2.4-5.793,3.961-11.789,2.369-14.52-3.855-16.786-15.65-22.233-7.483-2.933,4.4-12.336,8-22.093,10.609a7.337,7.337,0,0,0,.138-.862c.68-6.8-12.079-16.324-25.688-12.243s-5.447-17.008-18.381-25.849c-8.011-5.48-18.409-6.655-27.637-.864,9.49-25.41,50.532-44.1,61.671-37.913,12.249,6.8,34.713-21.09,53.77-40.82s24.5-19.726,24.5-19.726c9.66-3.342,17.9,3.652,27.6,9.809a21.554,21.554,0,0,1,9.63,13.714c1.183,5.672,3.811,11.009,9.053,14.344C2204.086-3417.3,2194.1-3408.223,2182.306-3404.142Z" transform="translate(-1618.68 3492.04)"/><path class="d" d="M2269.483-3226.882c-8.313,16.458-23.942,30.432-29.515,43.935-3.205,7.764-9.577,10.716-27.712,10.782-12.658.046-16.036-1.858-25.867-10.205-13.7-11.635-36.073.679-46.963,2.722s-16.354-1.269-20.421-4.081c-8.269-5.718-20.295-3.7-27.426-8.34,9.152-10.529,14.72-9.712,7.69-25.676-7.486-17-17.016-16.325-11.569-28.572,5.06-11.386-1.058-13.949-3.586-21.36,7.745-3.247,17.159-4.69,24.681,1.78,15.658,13.46,37.438,22.981,57.858,7.337s-4.767-27.893,19.736-38.1,30.63-10.884,30.63-23.811a12.343,12.343,0,0,1,.316-2.936c1.946-7.957,17.483-10.335,22.773-4.946,8.121,8.274-11.519,10.6-6.072,22.852s18.377,4.76,23.819,24.486S2287.4-3262.349,2269.483-3226.882Z" transform="translate(-1618.68 3492.04)"/><g transform="translate(-1618.68 3492.04)"><path class="c" d="M2175.982-3282.434c10.322.465,17.062,11.091,13.505,20.788l-2.035,5.548-7.94,21.648a4.543,4.543,0,0,1-8.531,0l-7.94-21.648-2.034-5.543c-3.558-9.7,3.184-20.328,13.509-20.793.243-.01.488-.016.733-.016S2175.739-3282.444,2175.982-3282.434Z"/><circle class="e" cx="6.213" cy="6.213" r="6.213" transform="translate(2169.034 -3272.931)"/></g><g transform="translate(-1611.839 3484.65)"><path class="c" d="M1976.777-3181.048c10.322.465,17.062,11.091,13.505,20.788l-2.035,5.548-7.94,21.647a4.543,4.543,0,0,1-8.531,0l-7.94-21.647-2.034-5.543c-3.558-9.7,3.184-20.328,13.509-20.793q.364-.016.733-.016T1976.777-3181.048Z"/><circle class="e" cx="6.213" cy="6.213" r="6.213" transform="translate(1969.829 -3171.545)"/></g><g transform="translate(-1618.68 3492.04)"><path class="d" d="M2017.664-3293.937c10.323.465,17.063,11.091,13.506,20.787l-2.035,5.548-7.941,21.648a4.542,4.542,0,0,1-8.53,0l-7.941-21.648-2.033-5.543c-3.558-9.7,3.184-20.327,13.509-20.792q.365-.016.733-.017T2017.664-3293.937Z"/><circle class="e" cx="6.213" cy="6.213" r="6.213" transform="translate(2010.717 -3284.434)"/></g><g transform="translate(-1618.68 3492.04)"><path class="d" d="M1918.417-3086.31c10.323.465,17.063,11.091,13.506,20.787l-2.035,5.549-7.941,21.647a4.543,4.543,0,0,1-8.531,0l-7.94-21.647-2.033-5.544c-3.558-9.7,3.184-20.327,13.509-20.792q.364-.016.732-.016C1917.93-3086.326,1918.174-3086.321,1918.417-3086.31Z"/><circle class="e" cx="6.213" cy="6.213" r="6.213" transform="translate(1911.469 -3076.807)"/></g><g transform="translate(-1618.68 3492.04)"><path class="c" d="M2094.547-3432.69c10.323.465,17.063,11.091,13.506,20.788l-2.035,5.548-7.94,21.648a4.543,4.543,0,0,1-8.531,0l-7.94-21.648-2.034-5.543c-3.558-9.7,3.184-20.328,13.509-20.793q.364-.016.733-.016C2094.06-3432.706,2094.3-3432.7,2094.547-3432.69Z"/><circle class="e" cx="6.213" cy="6.213" r="6.213" transform="translate(2087.6 -3423.187)"/></g><text class="f" transform="translate(299.003 354.566)"><tspan x="0" y="0">ARAD</tspan></text><text class="g" transform="translate(308.05 249.066)"><tspan x="0" y="0">ORADEA</tspan></text><text class="g" transform="translate(183.803 456.693)"><tspan x="0" y="0">TIMISOARA</tspan></text><text class="f" transform="translate(571.767 260.57)"><tspan x="0" y="0">CLUJ - NAPOCA</tspan></text><text class="f" transform="translate(357.933 110.314)"><tspan x="0" y="0">SATU MARE</tspan></text></svg>