<svg xmlns="http://www.w3.org/2000/svg" viewBox="0 0 847 644"><defs><style>.cls-1{fill:#fff;}.cls-2{fill:#f0fbff;}.cls-3{fill:#f3fcff;}.cls-17,.cls-4{opacity:0.58;}.cls-5{opacity:0.54;}.cls-6{fill:#c6d9fb;}.cls-7{fill:#bed1f8;}.cls-8{fill:#9bbbfc;}.cls-9{fill:#fdffff;}.cls-10{fill:#ffddd4;}.cls-11,.cls-13,.cls-34{fill:#2c2c70;}.cls-11{opacity:0.12;}.cls-12{fill:#4741a6;}.cls-13{opacity:0.3;}.cls-14{fill:#e0c2bd;opacity:0.82;}.cls-15,.cls-25{fill:#4b4054;}.cls-16,.cls-17{fill:#bed1f9;}.cls-16,.cls-18{opacity:0.32;}.cls-19{fill:#9393bc;}.cls-20,.cls-28{fill:#f2f6fd;}.cls-21{fill:#f77e6b;}.cls-22{fill:#312938;}.cls-22,.cls-25{opacity:0.59;}.cls-23,.cls-36{fill:#f9ce69;}.cls-24{fill:#5a5a6d;}.cls-26{fill:#373751;}.cls-27{opacity:0.2;}.cls-28,.cls-36{opacity:0.51;}.cls-29,.cls-32{fill:#e8ba69;}.cls-30{fill:#242444;}.cls-31{fill:#ffd580;}.cls-32{opacity:0.31;}.cls-33{fill:#6969e8;}.cls-34{opacity:0.24;}.cls-35{fill:#ffe1a6;}.cls-37{fill:none;stroke:#fff;stroke-linecap:round;stroke-miterlimit:10;stroke-width:3px;}</style></defs><g id="Layer_2" data-name="Layer 2"><g id="Layer_3" data-name="Layer 3"><rect id="Rectangle_184" data-name="Rectangle 184" class="cls-1" width="847" height="644" rx="40"/><path class="cls-2" d="M807,37.53488V566.77674a37.53652,37.53652,0,0,1-37.53488,37.53489H37.53488A37.51157,37.51157,0,0,1,0,566.77674V37.53488A37.53652,37.53652,0,0,1,37.53488,0H769.46512A37.5366,37.5366,0,0,1,807,37.53488Z"/><rect class="cls-3" x="164.18031" y="81.5181" width="428.65644" height="303.40575" rx="30.96628"/><g class="cls-4"><g class="cls-5"><path class="cls-6" d="M517.26372,165.257l71.35743,71.35743a4.94278,4.94278,0,0,0,8.43786-3.49507V132.19567a4.92974,4.92974,0,0,0-5.18687-4.9386,122.61482,122.61482,0,0,0-74.36562,30.77971A4.95757,4.95757,0,0,0,517.26372,165.257Z"/></g><g class="cls-5"><path class="cls-6" d="M476.25765,257.49344A123.14364,123.14364,0,0,0,591.86871,373.1045a4.9321,4.9321,0,0,0,5.1903-4.93959v-110.919a4.94278,4.94278,0,0,0-4.94278-4.94278h-110.919A4.93209,4.93209,0,0,0,476.25765,257.49344Z"/></g><path class="cls-7" d="M467.51079,233.06751l84.76912,0a4.15164,4.15164,0,0,0,2.93565-7.0873l-59.93545-59.93545a4.11751,4.11751,0,0,0-6.06452.20393,102.98829,102.98829,0,0,0-25.85293,62.46217A4.14069,4.14069,0,0,0,467.51079,233.06751Z"/></g><path class="cls-8" d="M686.49554,604.31163H647.044c-6.13687-15.55817-36.65072-128.50725-36.65072-128.50725-8.01374,29.18335-10.04465,59.74477-14.26692,128.50725H559.70952c0-76.10974-.27149-101.88286,6.41953-190.1519l72.6892-5.89687s18.36172,10.58749,21.407,71.874C662.05793,517.02129,672.19464,554.72808,686.49554,604.31163Z"/><path class="cls-9" d="M195.14659,88.08687a24.42529,24.42529,0,0,0-24.39767,24.39762V353.958a24.42526,24.42526,0,0,0,24.39767,24.39768H561.87047A24.42526,24.42526,0,0,0,586.26814,353.958V112.48449a24.42529,24.42529,0,0,0-24.39767-24.39762H195.14659m0-13.13721H561.87047a37.53493,37.53493,0,0,1,37.53488,37.53483V353.958a37.535,37.535,0,0,1-37.53488,37.53489H195.14659A37.53491,37.53491,0,0,1,157.61171,353.958V112.48449a37.53486,37.53486,0,0,1,37.53488-37.53483Z"/><path class="cls-10" d="M419.72673,290.27385c2.3785,2.23881,5.58012,5.45453,12.47905,3.87116.137-.02715.30507-.068.47665-.11284a2.28332,2.28332,0,0,1,1.84471.17208c8.93767,6.06126,12.66706,11.94153,12.66706,11.94153s28.448,1.66993,12.02374-11.59147c-8.32176-6.7192-12.56828-9.78074-17.52822-12.558a31.09485,31.09485,0,0,1-5.971-4.00431c-4.5794-4.19282-17.39336-9.11089-26.23356-6.47877C394.15985,276.0761,412.20623,283.195,419.72673,290.27385Z"/><path class="cls-11" d="M685.908,604.31654h-2.80628c-.8-4.1499-3.73187-10.7588-9.53192-24.83888-10.37988-25.18994-17.10546-53.96044-16.42553-73.19042.68018-19.23-11.46625-41.36059-11.63641-48.68066-.11988-5.15991,1.12011-11.75-.46-17.15991a47.80255,47.80255,0,0,0,8.77-.25c.01,0,.01,0,.02-.01.04.27978.09008.60986.15991.99,1.02,5.28,1.8999,18.80981,2.24,23.07007.34009,4.25,6.06006,35.85986,5.52,43.65991-.61011,8.76,5.07007,17.7,8.3,41.02C672.72779,568.17665,682.49781,595.0265,685.908,604.31654Z"/><path class="cls-12" d="M698.928,366.90663c-1.90014-6.84009-4.58007-13.03-18.9602-38.67993-14.60987-26.07007-22.8999-26.48-31.09986-30.7002-10.62011-5.48-29.56005-7.1499-29.56005-7.1499l-16.56006.31006s-20.52,2.02978-39.58008,9.62988c-18.27979,7.29-56.77,19.64014-61.21,19.87012s-39.29-25.78-41.47-26.7002c-2.18994-.91992-6.66992,6.55-14.92993,10.5-6.29,3.01026,34.41992,39.47022,47.85986,43.80005,10.79,3.47,59.39014-8,76.34009-12.60986-2.26,26.88989-5.12989,60.57983-7.90991,89.32007a4.86726,4.86726,0,0,0,3.60986,5.15991c20.47021,5.46,60.87012,10.18994,79.59009,10.79a47.80255,47.80255,0,0,0,8.77-.25c.01,0,.01,0,.02-.01a3.03142,3.03142,0,0,0,2.5-4.2002s-7.3501-42.42993-7.51-59.67993a92.3703,92.3703,0,0,1,5.42993-33.22,238.035,238.035,0,0,1,15.69018,22.24c3.81983,6.1001,6.02979,10.17993,6.02979,10.17993s-5.5,38.5-8.40991,58.87012a2.4695,2.4695,0,0,0,.66992,2.1001,22.37425,22.37425,0,0,0,4.67016,3.63989,22.68282,22.68282,0,0,0,9.09986,2.95,1.08228,1.08228,0,0,0,1.13012-.77C695.13794,400.7267,701.87793,377.50648,698.928,366.90663Z"/><path class="cls-13" d="M653.86275,440.18666c-.01.01-.01.01-.02.01a47.80246,47.80246,0,0,1-8.77.25,11.9421,11.9421,0,0,0-3.75-5.99c-6.59008-5.62012-2.93994-30.13013,0-43.06006,2.93995-12.93994,1.71794-19.42558,3.9279-32.36576,2.21-12.92994,7.40426-17.04256,7.40426-17.04256,1.91992,2.37989-3.00126,11.11141-4.02128,23.19149-1.02,12.09009.64909,33.1868,1.18912,42.21683.54,9.02,2.52,12.25,4.3899,22.80005C655.95284,439.99672,653.42257,436.51674,653.86275,440.18666Z"/><path id="Path_1942" data-name="Path 1942" class="cls-10" d="M606.252,282.12575c-9.00634-2.70776-14.942-16.15533-11.4913-32.52007,1.07966-5.12025,2.76821-9.57134,3.01838-13.30012.2819-4.20174,3.02713-14.58265,11.68542-16.47069L636.72969,236.686l5.85439,17.52436c-.52825,4.297-4.31768,13.28752-9.75738,20.20179C627.86824,280.71441,617.9265,285.63568,606.252,282.12575Z"/><path id="Path_1947" data-name="Path 1947" class="cls-10" d="M604.23465,280.47612l-2.16861,9.60672c-1.39942,5.53264,3.5782,11.28189,10.82151,12.40507,6.63873,1.02943,12.28488-4.1444,13.82943-10.72365.04294-5.22722-.3754-8.38921.56177-12.74566Z"/><path id="Path_1948" data-name="Path 1948" class="cls-14" d="M605.10885,281.61252s10.01708,4.60494,22.08359-2.1785l-.52573,7.15586C626.46971,286.88038,620.7845,288.7646,605.10885,281.61252Z"/><path class="cls-15" d="M652.49706,224.8445c-1.68142-3.42983-5.81362-5.328-5.81362-5.328-3.73244-7.53476-12.88825-11.94933-23.92992-12.60329-8.24783-.48849-17.44744,5.11573-18.39142,5.73742.38239-.5249.44066-2.18255,2.5167-4.42338a.80958.80958,0,0,0-.3633-1.3404,9.29563,9.29563,0,0,0-2.64084-.28,13.49581,13.49581,0,0,0-3.67437.71493c-2.4207,1.19779-5.24255,2.88505-6.23289,6.75488a11.44394,11.44394,0,0,0-.45533,2.82166,6.10312,6.10312,0,0,0,.59954,2.47756c.3549.80639-1.00839-.64171-1.1337-3.63922a7.34966,7.34966,0,0,0-.3379-1.85792.79856.79856,0,0,0-1.2902-.34473,9.63226,9.63226,0,0,0-1.35,1.48408,9.76071,9.76071,0,0,0-1.31865,2.955,8.26392,8.26392,0,0,0,2.74926,8.044,11.81239,11.81239,0,0,0,6.16192,2.29787c15.01609-.09128,13.168,3.05238,17.70424,6.64919,8.79885,6.97662,27.41283,7.118,26.20534,16.94792-1.20763,9.82991-3.7155,15.0615.25374,11.4531C654.18162,252.06874,657.90278,235.87127,652.49706,224.8445Z"/><circle class="cls-16" cx="384.11164" cy="149.0965" r="8.73156"/><circle class="cls-16" cx="384.43108" cy="210.77713" r="8.73156"/><circle class="cls-17" cx="384.11164" cy="272.45777" r="8.73156"/><g class="cls-18"><path class="cls-17" d="M226.7438,152.38077H349.65038a3.28431,3.28431,0,0,0,0-6.56861H226.7438a3.28431,3.28431,0,1,0,0,6.56861Z"/></g><path class="cls-16" d="M257.65005,174.82472h92.00033a3.2843,3.2843,0,1,0,0-6.5686H257.65005a3.2843,3.2843,0,0,0,0,6.5686Z"/><path class="cls-16" d="M226.7438,214.06132H349.65038a3.2843,3.2843,0,1,0,0-6.5686H226.7438a3.2843,3.2843,0,1,0,0,6.5686Z"/><path class="cls-16" d="M257.65005,236.50528h92.00033a3.28431,3.28431,0,0,0,0-6.56861H257.65005a3.28431,3.28431,0,0,0,0,6.56861Z"/><path class="cls-17" d="M226.7438,275.74188H349.65038a3.2843,3.2843,0,0,0,0-6.56861H226.7438a3.28431,3.28431,0,1,0,0,6.56861Z"/><path class="cls-17" d="M257.65005,298.18583h92.00033a3.2843,3.2843,0,1,0,0-6.5686H257.65005a3.2843,3.2843,0,0,0,0,6.5686Z"/><path class="cls-19" d="M466.15527,260.77617v2.28993c0-.76939.00917-1.5296.01833-2.28993Z"/><path class="cls-19" d="M466.15527,263.0661V265.356h.01833C466.16444,264.5957,466.15527,263.83559,466.15527,263.0661Z"/><path class="cls-19" d="M514.70739,149.0965l-.93573.9465c.31892-.30841.638-.62745.957-.92522Z"/><path class="cls-19" d="M510.94318,152.86071l.02129.02128c.29776-.31905.61681-.638.92508-.95688Z"/><path class="cls-1" d="M587.24477,293.23189s.82589,18.30764,7.63825,31.6137a34.61767,34.61767,0,0,0,3.62222,5.74294,4.42831,4.42831,0,0,0,5.12347,1.37938,65.11693,65.11693,0,0,0,7.11294-3.35944,69.75067,69.75067,0,0,0,31.04119-33.90328s-3.21855-1.11672-6.42771-2.06448c-.01879-.00928-.047-.01867-.06575-.02807-1.52027-.44112-3.04032-.85395-4.21328-1.07926l-3.80046-5.0953s.42246,7.34753-18.04487,7.82611c0,0-9.52439-1.3701-7.08453-8.67994l-5.08613,5.85543-1.30424.21581C593.757,291.98389,589.88165,292.6501,587.24477,293.23189Z"/><path class="cls-20" d="M609.24955,294.30164l.12188.26278.23459.52542.02841.07515.028.06563a35.45044,35.45044,0,0,1,1.87675,6.18384c.047.244.10332.488.15028.74135.95716,4.964.47858,9.121,6.16494,6.775,5.696-2.34593,19.77157-15.44557,17.50078-16.29012a21.25485,21.25485,0,0,0-4.279-1.10733s.85383,3.50961-6.69071,10.62243c-7.54432,7.10354-10.42519,7.98556-11.26047,2.58992a24.47074,24.47074,0,0,0-1.05086-4.17571A35.75764,35.75764,0,0,0,609.24955,294.30164Z"/><path class="cls-20" d="M595.75587,291.65549a90.44741,90.44741,0,0,1,1.67973,10.50032c.15945,3.47193,2.03619,5.31122,3.11523,3.95051.41282-.516,1.77365-2.36471,3.31248-4.45726,2.33653-3.20916,5.07651-6.98144,5.34867-7.35681-.03757.02818-.13127.122-.27216.26277a79.47051,79.47051,0,0,0-5.35807,5.968,14.97071,14.97071,0,0,0-2.23322,3.5095c-1.16357,3.11546-2.72118,1.0323-2.8339-1.87675-.12188-2.91832-1.45452-10.71613-1.45452-10.71613Z"/><path class="cls-21" d="M594.883,324.84559a34.61767,34.61767,0,0,0,3.62222,5.74294,4.42831,4.42831,0,0,0,5.12347,1.37938,65.11693,65.11693,0,0,0,7.11294-3.35944l-3.06673-20.355,3.86421-6.839a35.45044,35.45044,0,0,0-1.87675-6.18384l-.028-.06563-.02841-.07515-.23459-.52542-.12188-.26278-.01878-.03745-.01879.01867v.00939c-.03757.02818-.13127.122-.27216.26277a79.47051,79.47051,0,0,0-5.35807,5.968l.28156,1.126,1.55761,6.29655Z"/><path class="cls-10" d="M222.65336,412.78116s4.26449,53.902-16.55626,64.45345a50.83651,50.83651,0,0,0,2.50853,40.40286c10.78665,21.0716-56.4418,5.2679-56.4418,5.2679s12.11485-34.65729,3.83672-55.478c-2.42075-6.08855-16.12706-25.9433-8.50525-33.30223C165.9375,416.319,222.65336,412.78116,222.65336,412.78116Z"/><path class="cls-15" d="M225.32633,401.857s4.85025,13.11855-3.8018,19.20231c-19.85915,13.96412-5.82,29.17165-19.72344,45.96873-8.23632,9.95048-17.61887,11.92378-32.90292,9.49887-13.77764-2.1859-23.67064-24.61026-24.92491-30.5471-2.96965-14.05637-9.20186-38.21567,1.83565-47.58083S225.32633,401.857,225.32633,401.857Z"/><path class="cls-22" d="M212.66225,394.9764s20.12509,8.96107,8.78476,16.62777-62.7711,8.30559-60.05581,22.84037,12.61811,33.22237,7.34725,37.85433-18.04869-7.82642-20.9237-23.47926-10.18415-37.53489-5.81083-41.68768S212.66225,394.9764,212.66225,394.9764Z"/><path id="Path_1940" data-name="Path 1940" class="cls-23" d="M232.06755,395.70458a2.157,2.157,0,0,1-2.3113-1.78664c-1.4108-8.47857-9.72816-41.491-53.42214-37.90747-43.8208,3.59393-42.88648,42.70753-41.9682,52.42977a2.17507,2.17507,0,0,1-1.99384,2.363l-.172.01411a2.16706,2.16706,0,0,0-1.98268,2.337l.28423,3.46558a2.16539,2.16539,0,0,0,2.20405,1.98954c10.77082-.22193,62.01874-1.96341,100.53337-15.26693a2.17167,2.17167,0,0,0,1.44593-2.235l-.28051-3.42023a2.16707,2.16707,0,0,0-2.337-1.98268Z"/><path class="cls-10" d="M351.5218,417.843s3.7687,47.63529-14.6314,56.96a44.92622,44.92622,0,0,0,2.21688,35.70557c9.53258,18.62178-49.87979,4.65544-49.87979,4.65544s12.41453-29.04112,5.09883-47.44122S351.5218,417.843,351.5218,417.843Z"/><path class="cls-24" d="M353.884,408.18884s4.28635,11.59337-3.3598,16.96982c-17.5503,12.34063-9.73022,21.64764-17.75033,39.95268-4.581,10.45573-17.0336,17.24281-30.5407,15.09982-12.17583-1.93176-17.66113-20.91256-18.76957-26.15917-2.6244-12.42215-9.60648-40.64279.14779-48.91914S353.884,408.18884,353.884,408.18884Z"/><path class="cls-1" d="M406.97193,604.31163H218.25582c4.04444-18.81441,15.60525-68.89521,26.23707-80.67182.70378-.77893,1.43574-1.52955,2.205-2.23333,13.53148-12.73366,36.14611-16.14007,53.2808-16.80628,18.10123-.70378,38.0886,0,38.0886,0s18.57042,4.93585,31.73558,8.22954c6.36242,1.59519,12.13332,6.70939,16.7033,13.231.53471.76013,1.05086,1.53894,1.53883,2.33665a62.63417,62.63417,0,0,1,8.32324,20.86938c.33792,1.79221.76953,4.05372,1.27629,6.66231C400.27205,569.64822,404.71993,592.67591,406.97193,604.31163Z"/><path class="cls-25" d="M340.00134,433.16676s-1.93416,9.77279-27.95745,11.61984c-14.31835,1.01627-16.14382,13.7761-12.40143,21.12336s-1.60831,13.73617-6.08056,7.74656-11.73351-25.91162-12.37852-36.65641S340.00134,433.16676,340.00134,433.16676Z"/><path class="cls-10" d="M91.815,403.075s9.58051,43.25984-6.11855,54.18666a41.658,41.658,0,0,0,6.62286,32.504c11.1462,15.87594-45.20706,10.68318-45.20706,10.68318s7.6695-28.26366-1.41244-44.22082S91.815,403.075,91.815,403.075Z"/><path class="cls-10" d="M464.86746,422.578s8.63242,48.68278-9.38744,60.12133a46.48507,46.48507,0,0,0,5.84437,36.55136c11.67474,18.22744-50.9059,9.76953-50.9059,9.76953s9.88893-31.14711.51942-49.36735S464.86746,422.578,464.86746,422.578Z"/><path class="cls-8" d="M142.00392,604.31163H37.53488A37.51157,37.51157,0,0,1,0,566.77674v-42.893c2.33654-9.13973,5.14226-16.44969,7.98556-19.84659,13.40937-16.018,35.32961-16.51533,35.32961-16.51533,17.64144,3.78167,32.87121,3.45315,52.28607,2.60871,0,0,13.8222,2.8245,18.67374,4.72931,6.48407,2.54307,12.715,8.05119,16.8907,15.59574a53.21107,53.21107,0,0,1,5.63962,15.3143C138.21286,533.09856,140.02386,577.23962,142.00392,604.31163Z"/><path class="cls-26" d="M87.35963,509.77766c-3.76715-41.49277-5.49465-46.18753-4.31252-62.15689.443-5.98454,4.233-24.51633,4.23266-24.51747-.6728-2.56635,11.46335-.83682,10.71587-16.097-.91739-18.729-41.72753-40.34527-65.6207-8.41162a14.33744,14.33744,0,0,0-1.67861,2.97878c-.15279.20777-11.66412,18.955-4.43071,68.01015,2.8791,19.52543-6.72119,56.89917-11.17135,79.37113a20.82641,20.82641,0,0,0,14.8836,24.12679c18.04007,4.96421,43.58014,9.90028,50.75326.64735C97.8323,551.66926,87.79118,514.531,87.35963,509.77766Z"/><path class="cls-1" d="M276.29994,419.54s-.68536,14.06935,2.28374,19.80147,63.45413,1.17253,75.1139-9.5289c0,0,6.1236-19.0703,4.6262-24.67719C358.32378,405.13539,349.61276,424.275,276.29994,419.54Z"/><path class="cls-1" d="M276.29994,419.54s-14.25168-8.00816-15.68918-20.07478,4.79578-22.78661,17.97292-21.10952,6.91222-17.06426,25.75952-18.50176c24.13267-1.84063,24.27788,20.04923,38.65294,13.259s23.95177,4.73672,15.32764,32.02244S276.29994,419.54,276.29994,419.54Z"/><path class="cls-20" d="M276.29994,419.54s39.98255,5.12151,71.48789-7.93584c0,0-23.66276,18.08862-71.48789,14.37506Z"/><path class="cls-1" d="M293.40218,488.75033c2.276-1.23785,13.35292,4.09007,27.1316,1.19793s19.10818-3.1146,18.8686,2.63542,2.63543,14.85423,2.63543,14.85423-35.09286,6.1978-53.96325-1.93237c0,0-.92347-.38361,1.15293-7.01211S291.07424,490.01641,293.40218,488.75033Z"/><g class="cls-27"><circle class="cls-6" cx="710.25342" cy="102.48407" r="55.34399"/></g><path class="cls-1" d="M710.25329,160.17366a57.68973,57.68973,0,1,1,57.69018-57.68973A57.755,57.755,0,0,1,710.25329,160.17366Zm0-110.68759a52.99787,52.99787,0,1,0,52.99832,52.99786A53.05763,53.05763,0,0,0,710.25329,49.48607Z"/><path class="cls-28" d="M298.43226,507.02238c1.771,6.09844,2.72273,11.30057-5.4233,14.01222-11.86534,3.9625-13.85239,21.13633-11.42852,41.66787,1.79318,15.13013,11.14629,26.37274,12.05843,41.60916H223.01349c.23266-.89659.52044-1.83722.85227-2.83352,5.91051-17.72018,2.402-33.90173,13.75795-57.74265,11.356-23.82983,15.72785-27.78112,33.06053-30.99092,10.61449-1.95909,15.22984-2.77812,17.07814-4.6375,1.17329-1.1733,1.33182-3.923,1.74656-6.479,1.05287-6.48874,1.169-7.53437,3.29428-11.02088,0,0,5.39065-4.31252,6.46878,1.97657C299.78417,495.57136,297.63538,504.23317,298.43226,507.02238Z"/><path class="cls-1" d="M710.25318,104.484a1.99517,1.99517,0,0,1-1.43457-.60644L690.85572,85.38637a2,2,0,1,1,2.86914-2.78711l17.96289,18.49121a2,2,0,0,1-1.43457,3.39355Z"/><path class="cls-1" d="M749.33082,118.87367a1.00555,1.00555,0,0,1-.36573-.06933L709.887,103.41469a1.00012,1.00012,0,1,1,.73242-1.86133L749.69751,116.943a1,1,0,0,1-.36669,1.93066Z"/><path class="cls-20" d="M288.07456,505.50554s16.40824,6.35284,42.29341,3.42385c0,0-18.67622,4.647-46.868-2.81462Z"/><path class="cls-29" d="M133.36809,410.45661s15.405,2.76838,76.41915-8.34841c0,0-62.51589,10.51537-75.42133,6.332Z"/><path class="cls-23" d="M177.35753,355.93521s.27356-1.392,0-1.55177-6.50275.274-6.942.77588-2.4757,2.4585-2.4757,2.4585Z"/><path class="cls-29" d="M177.35759,355.93523c.0653-.18373.43345-1.24833.06323-1.51683a.2999.2999,0,0,0-.06323-.03494c-2.66946.62639-5.30518,5.39894-6.14343,10.86113-1.01627,6.62279-1.22631,17.24719,1.79682,31.34557C173.011,396.59016,168.08773,362.23878,177.35759,355.93523Z"/><path class="cls-30" d="M61.11989,382.331s-28.758,16.11447-22.23616,45.24542-9.1461,78.55848-10.22227,104.29906,14.72917,44.68064,2.92415,41.64258c-10.86116-2.79515-29.11871-3.6884-11.07-71.51076,7.18083-26.98375.42774-70.965,4.28248-87.46575C28.58959,398.3116,43.90257,381.904,61.11989,382.331Z"/><path class="cls-31" d="M462.7624,410.41438s6.05511,11.267-1.01027,17.8734c-16.21725,15.16369,3.08065,24.90488-7.38353,41.87978-6.19891,10.05583-19.52267,17.18946-33.6728,16.92979-12.75549-.23407-21.64056-14.365-23.52879-19.58312-4.47067-12.35469-15.8591-40.44545-6.86234-50.15645C434.54466,369.60569,462.7624,410.41438,462.7624,410.41438Z"/><path class="cls-32" d="M402.33321,405.13539s9.96208-5.86037,13.36293-7.22883-3.77956,6.6698,3.88714,13.05872-4.5444,18.83055-7.94236,32.17579,3.3104,37.30367,13.53266,38.42173,2.41988,5.60709-1.59723,5.54142-16.76376-1.8037-23.63542-14.21427-15.81614-41.83717-14.69808-49.40522,14.85424-18.34934,15.9723-18.34934Z"/><circle class="cls-31" cx="391.01356" cy="413.68708" r="20.62481"/><path class="cls-12" d="M410.407,504.49831c-2.31731,4.09987-2.31731,18.895-2.31731,18.895H467.8196s-4.33373-11.63433-6.06947-18.19156c-2.15626-8.14587-15.69207,1.43558-30.13073-.70348S412.013,501.657,410.407,504.49831Z"/><path class="cls-33" d="M538.67255,604.31163h-186.83c2.9748-9.13974,6.1182-26.08679,8.08888-36.82171,3.89415-21.29161,12.61166-36.19308,26.08679-40.16238a142.56143,142.56143,0,0,1,22.72711-4.57914c3.02176-.38477,6.04329-.685,9.046-.91959a315.43443,315.43443,0,0,1,36.63408-.38488,149.54,149.54,0,0,1,18.1293,1.74548,104.15777,104.15777,0,0,1,12.97765,2.87136c10.13446,2.95589,19.60272,7.66654,26.30259,15.089C522.57944,553.039,534.21528,589.42906,538.67255,604.31163Z"/><path class="cls-21" d="M395.06844,432.3935c4.167-1.27907,13.32408-5.33556,15.33177-16.62163a1.25124,1.25124,0,0,1,2.28336-.44225c.1883.29425.3637.5766.51079.82665,2.91993,4.96387,7.41493,11.65667-15.85847,20.10487a1.25795,1.25795,0,0,1-1.31216-.302l-1.477-1.48332A1.25179,1.25179,0,0,1,395.06844,432.3935Z"/><path class="cls-34" d="M417.79139,521.82881c1.50149,5.17033,2.30836,9.58074-4.59793,11.87971-10.05955,3.35945-28.71428,8.86757-26.6593,26.27442,1.52027,12.82747-1.323,32.91817-6.12737,44.32869h-26.5562c.19725-.76014.44123-1.55762.72256-2.40229,5.011-15.02335,2.03642-28.74223,11.66413-48.9548,9.62771-20.20318,13.33423-23.55312,28.02906-26.27442,8.99907-1.66093,12.912-2.35532,14.479-3.93172.99473-.99473,1.0417-2.34593.84468-4.53241-.50676-5.63023-.27217-10.96952,1.52966-13.92541,0,0,1.03207-2.68373,6.39014-.45052,5.34868,2.24284-2.4772,2.40229-1.52,10.54741A47.8355,47.8355,0,0,0,417.79139,521.82881Z"/><path class="cls-35" d="M285.52789,604.31163H71.39142C75.492,590.32058,89.0796,546.3014,101.54121,532.498c8.94271-9.89047,22.38026-15.37981,36.11793-18.35449,1.90492-.42234,3.81924-.7882,5.72416-1.10733,3.36884-.5724,8.75486-1.19175,12.02037-1.52016,0,0,16.08383,1.67033,19.56515,1.75475,23.31864.55372,30.77865-2.37411,30.77865-2.37411s21.64831,2.41168,40.95046,10.50984c13.36264,5.61144,23.75965,24.61348,26.706,40.09662C275.86261,574.39632,282.56271,595.33134,285.52789,604.31163Z"/><path class="cls-36" d="M138.27131,524.32861c-12.7056,4.23207-14.63139,6.04864-21.2,27.19019-3.62222,11.64523-9.68406,35.17957-16.16813,52.79283H75.62326c5.93058-13.07146,6.63436-27.5412,16.29024-47.79123,12.15187-25.52379,18.93629-30.77865,36.41828-37.901,12.53675-5.11408,20.28748-4.12874,27.30649-5.43309C166.81443,511.12184,150.9769,520.09654,138.27131,524.32861Z"/><path class="cls-12" d="M175.33492,604.31163H156.25774c-1.18236-1.8016-2.30836-3.64089-3.34066-5.50824-13.90651-25.09206-20.86939-66.55878-19.9498-84.6599,0-.05625.00939-.10321.00939-.15957.2252-4.15692,10.94157-7.34741,15.09849-3.59392a2.71494,2.71494,0,0,1,.60046,1.31374C150.79635,520.17727,147.1274,563.62383,175.33492,604.31163Z"/><path class="cls-12" d="M182.45125,604.31163h19.07717c1.18236-1.8016,2.30836-3.64089,3.34066-5.50824,13.90651-25.09206,20.86939-66.55878,19.9498-84.6599,0-.05625-.00939-.10321-.00939-.15957-.2252-4.15692-10.94156-7.34741-15.09849-3.59392a2.715,2.715,0,0,0-.60046,1.31374C206.98981,520.17727,210.65877,563.62383,182.45125,604.31163Z"/><path class="cls-28" d="M282.26151,422.578s-.55982-12.35628-6.02994-20.46977,8.54557-7.03535,8.54557,1.3501-2.59549,15.05388,1.11806,17.56952,20.43457,2.12477,22.12163-3.18486c3.67257-11.55861-9.224-36.067-2.03647-40.25977s9.77709,13.65631,6.06353,31.86472,17.65532,8.74483,17.65532,8.74483S309.45433,426.36424,282.26151,422.578Z"/><line class="cls-37" x1="660.4055" y1="460.75889" x2="640.16062" y2="481.00377"/><path class="cls-10" d="M682.0008,443.06723s-2.22065,7.06561-3.1172,9.5049a37.35355,37.35355,0,0,0-2.19846,6.845c-.99016,6.12946-7.98845,17.93661-16.55455,21.357-14.8501,5.92965-5.11365-10.84987-3.60743-21.06746.47637-3.2315.99218-7.73983,7.38515-10.77831.12429-.0637.28143-.136.44382-.20723a2.12959,2.12959,0,0,0,1.34-1.27945c1.02326-4.384,1.8314-8.151,2.43174-11.08687C668.12386,436.35478,673.69742,442.45639,682.0008,443.06723Z"/></g></g></svg>