<svg xmlns="http://www.w3.org/2000/svg" width="308" height="308" viewBox="0 0 308 308"><defs><style>.a{fill:none;}.b,.d{fill:#4741a6;}.b{opacity:0.05;}.c{fill:#9bbbfc;}.e{fill:#f9ce69;}.f{fill:#2c2c70;}.g{fill:#d9eff7;}.h,.j{fill:#fddd92;}.i{fill:#fff;}.j{stroke:#000;stroke-miterlimit:10;}.k{fill:#5e5b5c;}</style></defs><rect class="a" width="307.978" height="308"/><g transform="translate(0 28.281)"><path class="b" d="M-3040.389-1856c-55.354-22.447-107.09-96.55-94.6-187.982,10.1-73.963,91.677-69.064,162.428,24.872,43.059,57.169,70.952,63.976,121.762,82.808C-2771.32-1906.848-2924.864-1809.156-3040.389-1856Z" transform="translate(3136.873 2095.007)"/><g transform="translate(3.432 54.961)"><path class="c" d="M-2686.226-1950.994h-63.391l-13.78,55.91h-13.242a6.839,6.839,0,0,0-6.839,6.839h0a8.616,8.616,0,0,0,6.31,8.3l.777.216,12.408-3.543,46.651,1.148,20.471,26.019,25.985-6.3v-33.862Z" transform="translate(2783.477 1960.021)"/><path class="d" d="M-2708.469-1749.163l-7.481,3.938h-38.59l-8.03-4.725-51.818-25.2v-4.725l6.3-6.693,35.829,5.119,20.153,12.6,46.329,7.088Z" transform="translate(2832.887 1872.765)"/><path class="e" d="M-3058.647-1819.555v16.534c0,6.655,1.375,10.269,3.932,8.209,2.062-1.661,6.393-4.9,6.393-4.9a40.538,40.538,0,0,1,28.981-6.92h0a36.962,36.962,0,0,1,23.361,13.164l1.071,1.307a19.812,19.812,0,0,0,15.324,7.255h37.47l59.333-4.138,58.774,34.45-4.607-20.9-99.327-54.7h-25.2v26.984a6.24,6.24,0,0,1-4.769,6.064l-17.47,4.235a4.742,4.742,0,0,1-5.4-2.57l-8.2-17.229a21.686,21.686,0,0,0-19.581-12.366h-44.572A5.518,5.518,0,0,0-3058.647-1819.555Z" transform="translate(3065.735 1895.916)"/><path class="c" d="M-2922.466-1810.424l-31.457-15.777.3-7.972,34.087,18.67a1.953,1.953,0,0,1,1.007,1.936,4.6,4.6,0,0,1-1.335,2.73A2.257,2.257,0,0,1-2922.466-1810.424Z" transform="translate(3111.105 1898.028)"/><path class="c" d="M-2872.667-1834.935l.056.03.825,27.489s-7.911.278-9.093.278c.29-7.556.581-15.49.713-23.4A5.085,5.085,0,0,1-2872.667-1834.935Z" transform="translate(3030.09 1898.76)"/><circle class="f" cx="33.86" cy="33.86" r="33.86" transform="translate(122.044 90.529)"/><path class="g" d="M-2635.081-1940.087h-17.775a1.485,1.485,0,0,0-1.449,1.16l-10.8,48.056a1.292,1.292,0,0,0,1.26,1.575h28.368a1.54,1.54,0,0,0,1.54-1.516l.734-47.369A1.876,1.876,0,0,0-2635.081-1940.087Z" transform="translate(2690.268 1954.233)"/><path class="g" d="M-2747.9-1940.087h-25.124a2.073,2.073,0,0,0-2.073,2.073v46.52a3.168,3.168,0,0,0,2.905,3.157l37.949,2.445a1.542,1.542,0,0,0,1.67-1.537h0a22.366,22.366,0,0,0-.816-5.986l-12.55-45.181A2.037,2.037,0,0,0-2747.9-1940.087Z" transform="translate(2841.237 1954.233)"/><path class="c" d="M-2815.159-1916.273v3.832a2.273,2.273,0,0,1-.666,1.608l-2.808,2.808a5.615,5.615,0,0,0-1.646,3.973v27.99h-6.694l2.206-30.133a5.623,5.623,0,0,1,1.716-3.646l7.073-6.78A.483.483,0,0,1-2815.159-1916.273Z" transform="translate(2948.165 1941.853)"/><rect class="d" width="38.98" height="21.261" rx="10.63" transform="translate(77.95 114.94)"/><path class="c" d="M-3040.7-1787.563l1.574-2.361,25.211,12.205,14.174,5.514,1.814,7.258-12.051-6.472-1.182,17.325c-4.725,1.184-6.3-1.574-6.3-1.574l2.917-18.149Z" transform="translate(3231.233 1874.547)"/><path class="f" d="M-3131.3-1778.893a1.126,1.126,0,0,1,1.873-.272s-2.322,23.145,16.878,48.1c4.752,6.177,13.827,11.537,21.417,15.25a2.144,2.144,0,0,1-1.146,4.063l-20.727-2.034a18.718,18.718,0,0,1-14.069-13.725l-9.8-39.194Z" transform="translate(3368.364 1869.042)"/><circle class="h" cx="18.505" cy="18.505" r="18.505" transform="translate(137.4 105.885)"/><path class="i" d="M-2744.727-1940.087h-14.129l9.37,52.576,19.185,1.236Z" transform="translate(2831.341 1954.233)"/><path class="i" d="M-2654.109-1940.087h-6.363l9.511,50.791h8.019Z" transform="translate(2697.813 1954.233)"/><circle class="j" cx="14.961" cy="14.961" r="14.961" transform="translate(140.943 109.428)"/><circle class="k" cx="6.299" cy="6.299" r="6.299" transform="translate(149.605 118.091)"/><circle class="f" cx="33.86" cy="33.86" r="33.86" transform="translate(5.119 90.529)"/><circle class="h" cx="18.505" cy="18.505" r="18.505" transform="translate(20.082 105.885)"/><circle class="j" cx="14.961" cy="14.961" r="14.961" transform="translate(23.624 109.428)"/><circle class="k" cx="6.299" cy="6.299" r="6.299" transform="translate(32.288 118.091)"/><path class="e" d="M-2685.456-1969.083l2.544,1.387a12.16,12.16,0,0,1,5.6,6.5h0l-63.391.423-1.052-1.4a8.306,8.306,0,0,0-6.644-3.322h0a2.361,2.361,0,0,1-2.04-1.171h0a2.362,2.362,0,0,1,2.04-3.553h58.461A9.365,9.365,0,0,1-2685.456-1969.083Z" transform="translate(2774.567 1970.227)"/></g></g></svg>