<svg xmlns="http://www.w3.org/2000/svg" width="308" height="308" viewBox="0 0 308 308"><defs><style>.a,.i{fill:#4741a6;}.a{opacity:0.05;}.b{fill:#9bbbfc;}.c{fill:#e6f0ff;}.d{fill:#fff;}.e{fill:#eac075;}.f{fill:#eabb5e;}.g{fill:#f9ce69;}.h,.l{fill:none;}.h{stroke:#000;stroke-miterlimit:10;stroke-width:2px;}.j{fill:#2c2c70;}.k{fill:#f4cd7f;}</style></defs><path class="a" d="M-2717.163-1207.466c-55.355-22.394-107.091-96.319-94.6-187.533,10.1-73.786,91.677-68.9,162.428,24.812,43.059,57.033,70.952,63.824,121.762,82.61C-2448.095-1258.189-2601.638-1160.73-2717.163-1207.466Z" transform="translate(2813.647 1474.59)"/><g transform="translate(4.987 68.488)"><path class="b" d="M-2519.74-1298.77l3.477,3.42v94.611h-3.477Z" transform="translate(2665.585 1333.095)"/><path class="b" d="M-2689.014-1364.182h-45.456a16.48,16.48,0,0,0-16.48,16.423l-.192,54.847,3.973.993,100.82,23.59v-32.788C-2646.349-1330.325-2663.949-1364.182-2689.014-1364.182Z" transform="translate(2778.954 1364.182)"/><path class="c" d="M-2737.469-1341.41a10.9,10.9,0,0,1,10.9-10.857h39.922c21.347,0,39.658,25.35,39.658,58.42v30.5L-2737.7-1283.8Z" transform="translate(2772.565 1358.519)"/><path class="d" d="M-2701.1-1352.266l-15.8-.012,13.281,72.226,21.68,4.995Z" transform="translate(2761.635 1358.525)"/><path class="d" d="M-2647.333-1352.267h-8.22l25.515,84.759,14.61,3.238Z" transform="translate(2731.505 1358.519)"/><line class="e" y2="50.382" transform="translate(242.119 117.934)"/><path class="f" d="M-2649.577-1151.94v4.718l-126.645-18.377v-6.456Z" transform="translate(2790.872 1272.875)"/><path class="g" d="M-2651.912-1138.992V-1130l-29.8,15.4H-2757.7l-26.323-17.383s-2.743-5.507-1.49-17.383l1.048-7.685a3.249,3.249,0,0,1,3.685-2.777l126.7,18.338A2.531,2.531,0,0,1-2651.912-1138.992Z" transform="translate(2795.442 1267.084)"/><path class="g" d="M-2664.663-1205.46l-100.7-23.127a6.824,6.824,0,0,0-6.263,1.736c-3.6,3.463-9.058,11.052-9.692,25.531a3.129,3.129,0,0,0,2.633,3.234l126.692,19.878a1.712,1.712,0,0,0,1.978-1.691v-10.166s.5-11.423-10.927-14.4Z" transform="translate(2793.294 1299.824)"/><path class="h" d="M-2530.623-1111.958" transform="translate(2670.925 1244.314)"/><path class="i" d="M-2474.917-1172.082h-57.237a3.407,3.407,0,0,1-3.407-3.407v-23.877a2.756,2.756,0,0,0-5.335-.972c0-1.331-8.072-1.5-8.072-1.5v-19.509a2.094,2.094,0,0,1,2.094-2.094,2.375,2.375,0,0,0,2.375-2.375v-78.72a3.335,3.335,0,0,0-3.334-3.335h-6.244a3.335,3.335,0,0,0-3.335,3.335v.2a7.568,7.568,0,0,0,2.56,5.673h0a4.909,4.909,0,0,1,1.662,3.682v87.429l-8.691,2.482a21.273,21.273,0,0,0-10.678-2.731,24.113,24.113,0,0,0-23.839,22.6h4.718l28.872-13.937-.412,2.632,9.038,11.554h5.213v13.649a3.235,3.235,0,0,0,3.235,3.236h4.309a3.4,3.4,0,0,0,2.816,1.49h31.888c12.5-.136,25.444-.195,32.292-3.472A1.076,1.076,0,0,0-2474.917-1172.082Z" transform="translate(2701.31 1337.419)"/><path class="i" d="M-2784.629-1116c.106.59.247,1.231.436,1.91.2.7.414,1.34.636,1.914l25.36,17.635h5.544c-.793-12.618-11.2-22.98-23.839-23.1A23.762,23.762,0,0,0-2784.629-1116Z" transform="translate(2794.868 1247.013)"/><circle class="j" cx="18.625" cy="18.625" r="18.625" transform="translate(110.574 133.35)"/><circle class="c" cx="9.188" cy="9.188" r="9.188" transform="translate(119.976 142.786)"/><circle class="j" cx="18.625" cy="18.625" r="18.625" transform="translate(0 133.35)"/><circle class="c" cx="9.188" cy="9.188" r="9.188" transform="translate(9.436 142.786)"/><circle cx="5.395" cy="5.395" r="5.395" transform="translate(13.229 146.579)"/><circle cx="5.395" cy="5.395" r="5.395" transform="translate(123.757 146.579)"/><rect class="k" width="61.425" height="50.612" rx="5.912" transform="translate(236.368 117.704)"/><g transform="translate(236.368 126.371)"><rect class="e" width="61.425" height="1.54"/></g><g transform="translate(236.368 134.748)"><rect class="e" width="61.425" height="1.54"/></g><g transform="translate(284.98 117.704)"><rect class="e" width="1.54" height="50.612"/></g><g transform="translate(240.81 117.704)"><rect class="e" width="1.54" height="50.612"/></g><g transform="translate(236.368 143.125)"><rect class="e" width="61.425" height="1.54"/></g><g transform="translate(236.368 151.502)"><rect class="e" width="61.425" height="1.54"/></g><g transform="translate(236.368 159.879)"><rect class="e" width="61.425" height="1.54"/></g><rect class="k" width="4.371" height="54.753" rx="2.185" transform="translate(286.52 115.633)"/><rect class="k" width="4.371" height="54.753" rx="2.185" transform="translate(242.35 115.633)"/></g><rect class="l" width="307.325" height="308" transform="translate(0.484)"/></svg>