<svg xmlns="http://www.w3.org/2000/svg" width="308" height="308" viewBox="0 0 308 308"><defs><style>.a{fill:#2c2c70;}.b,.e{fill:#4741a6;}.b{opacity:0.05;}.c{fill:#ffd78f;}.d{fill:#f9ce69;}.f{fill:#9bbbfc;}.g{fill:#d9eff7;}.h{fill:#5a5aaf;}.i{fill:#fff;}.j{fill:#f77e6b;}.k{fill:#eabb5e;}.l{fill:none;}</style></defs><path class="a" d="M-1298.46-1960.732s2.853,3.194,3.476,5.543c.343,2.217,25.033-3.111,25.033-3.111a44.742,44.742,0,0,0-14.742-4.443C-1293.34-1963.333-1298.46-1960.732-1298.46-1960.732Z" transform="translate(1491.391 2067.532)"/><path class="b" d="M-1467.255-2012.24a80.259,80.259,0,0,1-.777,47.1,95.575,95.575,0,0,1-20.317,34.9c-.2.215-.4.434-.6.653-16.142,17.424-39.949,38.217-86.864,23.832-9.266-2.841-22.612-9.051-35.413-19.04-.658-.513-1.311-1.03-1.96-1.563-16.728-13.628-32.109-33.817-35.649-61.486a95.392,95.392,0,0,1-.765-12.144c0-39.8,14.773-88.552,57.93-135.976,53.328-58.6,148.855-52.89,124.415,29.451C-1479.27-2066.036-1477.426-2047.847-1467.255-2012.24Z" transform="translate(1697.348 2191.927)"/><path class="c" d="M-1416.376-1743.059a95.578,95.578,0,0,1-20.317,34.9c-.2.215-.4.434-.6.653-16.141,17.423-39.949,38.216-86.864,23.832a100.268,100.268,0,0,1-15.972-6.632c-1.993-1.025-4.04-2.142-6.111-3.361-2.989-1.753-6.036-3.713-9.084-5.884a0,0,0,0,0,0,0q-2.127-1.507-4.242-3.159c-.658-.513-1.311-1.03-1.96-1.563l.534-1.236,39.37-52.514,13.086-5.239,11.651-4.664,2.055-.823,2.969-1.187,2.014-4.95,43.773-21.4s11.1,5.8,11.614,10.06c.773,6.4,2.906,9.385,5.073,11.325,4.027,3.618,7.74,10.936,8.65,17.25C-1419.58-1749.583-1418.344-1745.49-1416.376-1743.059Z" transform="translate(1645.691 1969.844)"/><path class="d" d="M-1537-1839.151l-6.518,4.387-15.881,26.83s-18.135,9.047-15.956,22.2-23.6-1.245-25.97,8.832c-.124.657-5.007,5.817-9.9,9.365-.658-.513-1.311-1.03-1.96-1.563-16.728-13.628-32.109-33.817-35.649-61.486-.339-4.027-.558-8.1-.765-12.143,7.637-11.052,23.968-28.24,55.59-39.664,11.044-3.99,11.031-10.841,15.261-11.581,3.432-.6,5.11-3.114,7.136-5.946a20.837,20.837,0,0,1,8.406-6.888c-.211.145-.858,2.306,10.529,29.2Z" transform="translate(1697.348 2034.673)"/><path class="e" d="M-1436.64-1925.624l-4,7.779,1.947,13.236,9.947.572-1.176-19.045Z" transform="translate(1574.781 2045.709)"/><path class="e" d="M-1360.911-1974.527s-.323-3.041-6.119-8.816-14.809-14.584-30.9-13.962c-16,.854-26.428,11.209-26.439,21.252,3.9,7.784,27.06,5.628,27.06,5.628Z" transform="translate(1565.24 2087.771)"/><path class="a" d="M-1430.764-1949.867l-2.546,8.545a1.95,1.95,0,0,0,.5,1.962,20.31,20.31,0,0,0,9.167,4.465l5.537-8.605c-.212.079-8.638-.8-11.483-6.483A.638.638,0,0,0-1430.764-1949.867Z" transform="translate(1570.531 2060.197)"/><path class="a" d="M-1331.906-1977.319a.226.226,0,0,1-.168.4,23.194,23.194,0,0,0-9.924,1.932,25.589,25.589,0,0,0-8.348,6.818L-1361-1970.03s5.242-7.875,12.437-10.508a24.612,24.612,0,0,1,9.51-2.139,3,3,0,0,1,1.921.748Z" transform="translate(1528.074 2079.174)"/><path class="a" d="M-1443.98-1906.811s1.138,9.584,4.755,13c3.532,3.182,2.651,19.93,2.651,19.93S-1452.116-1898.834-1443.98-1906.811Z" transform="translate(1578.125 2034.674)"/><path class="f" d="M-1377.849-1950.257s-6.147-.8-19.024-3.346-24.708,2.246-27.262,12.549c0,0-3.552-.106-5.291,4.746s-2.258,18.158-1.285,25.3c.895,6.933.668,6.313,2.2,8.562s1.224,11.029,10.765,28.149c9.468,16.909,8.564,17.009,13.452,17.564,4.962.76,15.648-2.679,16.792-4.035,1.351-1.431,1.006-6.224,1.006-6.224l17.11-14.691a10.193,10.193,0,0,0,3.149-4.2c1.235-3.028-.192-1.8,3.97-7.073,4.031-4.988,13.01-16.938,13.01-16.938a7.137,7.137,0,0,0,2.61-1.189s2.9-8.086,1.308-22.026c-1.661-14.147-2.725-19.614-2.725-19.614S-1358.307-1950.615-1377.849-1950.257Z" transform="translate(1569.244 2062.515)"/><path class="g" d="M-1342.365-1783.414l-23.935.606s-11.776,20.5-22.773,15.9c0,0,2.644,5.394,4.7,8.645,2.343,3.7,11.586,1.5,13.935.88s6.378-1.9,7.637-3.177c1.193-1.208,1.221-2.978,1.3-5.4a2.221,2.221,0,0,1,.771-1.612Z" transform="translate(1544.539 1962.298)"/><path class="h" d="M-1316.233-1845.527l-17.766,25.7a4.133,4.133,0,0,0,3.391,4.146c6.338,1.726,13.432,1.01,18.8-2.773a12.3,12.3,0,0,0,3.791-6.862l15.9-21.007s-19.4,2.809-21.736,1.558C-1316.384-1845.94-1316.233-1845.527-1316.233-1845.527Z" transform="translate(1512.238 1999.193)"/><path class="e" d="M-1360.139-1905.015c7.889,9.279,17.946,17.866,27.86,24.939l-17.766,25.7s-9.964-31.72-10.961-42.129C-1362.155-1907.323-1360.139-1905.015-1360.139-1905.015Z" transform="translate(1528.283 2033.742)"/><path class="i" d="M-1298.672-1836.587l11.379-.842a1.634,1.634,0,0,1,1.419,2.621l-8.526,11.24a7.268,7.268,0,0,1-3.261,2.414c-3.81,1.416-7.315,1.615-11.483,1.756a2.235,2.235,0,0,1-1.923-3.493l7.388-10.811A6.661,6.661,0,0,1-1298.672-1836.587Z" transform="translate(1499.016 1993.982)"/><path class="g" d="M-1302.171-1949.141l3.555,38.918s.2,4.379,5.4,3.88c5.074-.215,17.842-1.056,17.842-1.056,1.708-.091,5.73-2.287,5.944-3.984,1.24-5.579,1.015-12.364.462-18.053-.71-7.7-3.239-22.939-3.239-22.939S-1284.149-1949.176-1302.171-1949.141Z" transform="translate(1493.566 2061.399)"/><g transform="translate(146.832 210.653)"><rect class="a" width="2.894" height="88.794" transform="matrix(0.479, -0.878, 0.878, 0.479, 0, 2.54)"/></g><path d="M-1440.637-1906.811" transform="translate(1574.781 2034.674)"/><g transform="translate(140.035 205.155)"><path class="a" d="M-1394.958-1694.477a5.555,5.555,0,0,1-2.687-.693L-1423.5-1709.4a5.581,5.581,0,0,1-2.2-7.581,5.582,5.582,0,0,1,7.581-2.2l25.856,14.232a5.582,5.582,0,0,1,2.2,7.581A5.58,5.58,0,0,1-1394.958-1694.477Z" transform="translate(1426.392 1719.874)"/></g><path class="j" d="M-1224.284-1608.657c-.391.978-.865,6.89,2.808,10.553,5.4,5.387,5.108,8.144,5.528,8.963.471.919.493-2.1.466-3.582a12.308,12.308,0,0,0-.487-3.206.345.345,0,0,1,.525-.38,16.394,16.394,0,0,1,4.205,4.245,12.858,12.858,0,0,1,2.376,5.4c.231,1.23,1.058-1.458.976-3.443-.063-1.523-1.11-2.912-.777-3.209.253-.225,2.461,3.135,5.719,4.041,1.636.455,3.081.712,4.023.289.986-.442-2.343-.447-3.113-2.379a3.22,3.22,0,0,1-.249-1.787c.234-.579,1.318.022,1.934.278,5.863,2.432,8.287,3.536,11.983,6.809,2.076,1.838-1.973-3.664-3.472-5.322-1.561-1.727-4.1-4.292-4.394-4.633-.442-.511,1.731.519,3.1.439,1.531-.09,4.766-1.173,3.755-1.741-1.047-.588-3.3-.545-5.734-2.009a13.144,13.144,0,0,1-3.237-2.749,1.255,1.255,0,0,1,.451-1.986,5.759,5.759,0,0,1,1.03-.271c1.764-.31,3.655.326,4.587.192,2.308-.331-6.208-3.662-8.015-4.008-3.709-.71-4.458-.228-5.363-.534-1.272-.43,1.235-1.9,1.752-2.146a11.153,11.153,0,0,1,3.672-.816.473.473,0,0,0,.145-.9c-6.769-3.1-17.451-3.481-21.629.525A8.929,8.929,0,0,0-1224.284-1608.657Z" transform="translate(1448.037 1863.49)"/><path class="k" d="M-1564.724-1711.52s-13.724-5.154-20.48-4.371-3.8-6.668-8.656-5.9-3.378-3.174-6.334-7.748-14.96-9.615-10.768-10.273c4.474-.7,9.542,4.795,14.081,14.473,1.3,2.766,13.41-1.789,8.594-9.678-5.309-8.7-4.971-15.124-2.752-18.852,1.833-3.079,2.2-.119,2.752,7.813s4.984,11.379,3.295,16.517,1.927,10.568,4.764,7.748S-1564.724-1711.52-1564.724-1711.52Z" transform="translate(1675.201 1945.669)"/><path class="a" d="M-1484.4-1728.395a6.278,6.278,0,0,1-1.017,3.436l-45.911,70.764c-1.993-1.025-4.04-2.142-6.111-3.361-2.989-1.753-6.036-3.713-9.084-5.884l46.783-63.715,4.048-5.152a6.321,6.321,0,0,1,8.447-1.373,6.387,6.387,0,0,1,1.212,1.038A6.32,6.32,0,0,1-1484.4-1728.395Z" transform="translate(1636.889 1933.737)"/><rect class="l" width="308" height="308"/><path class="e" d="M-1489.639-1672.783c-.457-3.084-12.662-7.521-12.662-7.521-1.778-.867-3.413-1.642-4.93-2.325a3.28,3.28,0,0,1-1.554-4.515l3.2-4.373-14.021,4.714a18.578,18.578,0,0,1-3,.812c-5.054.906-14.239,3.875-18.471,11.615-4.628,8.463-1.882,19.746.17,22.54s5.266,1.923,7.745.021,6.57.918,17.008-.471c10.8-1.438,13.725-12.946,19.161-12.962S-1489.182-1669.7-1489.639-1672.783Z" transform="translate(1635.18 1908.396)"/></svg>